<?xml version="1.0" standalone="no"?>
<!DOCTYPE svg PUBLIC "-//W3C//DTD SVG 20010904//EN"
 "http://www.w3.org/TR/2001/REC-SVG-20010904/DTD/svg10.dtd">
<svg version="1.0" xmlns="http://www.w3.org/2000/svg"
 width="666.000000pt" height="666.000000pt" viewBox="0 0 666.000000 666.000000"
 preserveAspectRatio="xMidYMid meet">
<metadata>
Created by potrace 1.11, written by Peter Selinger 2001-2013
</metadata>
<g transform="translate(0.000000,666.000000) scale(0.100000,-0.100000)"
fill="#000000" stroke="none">
<path d="M805 5534 c-38 -7 -83 -17 -100 -24 -16 -6 -38 -13 -48 -15 -37 -8
-183 -87 -246 -135 -109 -81 -196 -189 -227 -283 -21 -62 -23 -181 -4 -228 29
-73 94 -117 188 -125 76 -7 91 3 73 51 -45 125 -1 336 91 441 33 37 104 94
118 94 5 0 3 -19 -2 -42 -5 -24 -12 -53 -14 -66 -3 -13 -16 -76 -30 -140 -33
-153 -33 -152 -39 -184 -3 -16 -12 -56 -20 -90 -8 -35 -16 -74 -19 -88 -2 -14
-9 -45 -15 -70 -5 -25 -10 -47 -11 -50 0 -3 -3 -14 -5 -25 -3 -11 -7 -31 -9
-45 -2 -14 -13 -65 -25 -115 -11 -49 -22 -101 -25 -115 -10 -57 -39 -190 -57
-268 -35 -152 -42 -146 170 -147 94 0 171 1 171 3 0 5 95 448 132 615 34 157
36 167 37 185 1 15 261 18 261 2 0 -6 -9 -50 -19 -98 -11 -48 -23 -103 -26
-122 -3 -19 -8 -42 -10 -50 -2 -8 -6 -26 -9 -40 -2 -14 -11 -54 -20 -90 -8
-36 -18 -81 -21 -100 -3 -19 -12 -63 -20 -96 -38 -163 -39 -178 -20 -194 21
-17 332 -22 344 -5 4 5 20 69 35 140 15 72 43 204 62 295 37 173 41 194 48
235 3 14 7 33 10 43 3 9 7 28 10 42 3 14 7 34 9 45 3 11 13 56 22 100 20 96
17 81 50 235 15 69 29 136 31 150 3 14 7 33 10 42 3 9 7 27 9 40 3 13 16 79
31 147 34 164 43 156 -171 157 -141 0 -166 -2 -170 -15 -2 -9 -18 -81 -35
-161 -17 -80 -35 -163 -40 -185 -8 -33 -39 -178 -56 -259 -2 -10 -5 -21 -8
-23 -4 -4 -154 -7 -229 -4 -27 1 -28 3 -22 32 4 17 9 39 10 48 2 9 4 16 5 16
1 0 3 11 5 25 3 20 36 173 60 285 48 216 48 226 5 240 -28 9 -144 3 -225 -11z"/>
<path d="M4360 5540 c-19 -4 -60 -11 -90 -14 -93 -10 -155 -18 -158 -21 -4 -4
-28 -142 -36 -210 -4 -27 -9 -57 -11 -65 -2 -8 -6 -37 -10 -65 -10 -79 -15
-116 -25 -170 -5 -27 -12 -72 -16 -100 -9 -74 -11 -86 -18 -130 -4 -22 -18
-114 -31 -204 -31 -205 -36 -197 105 -195 55 1 102 3 104 5 1 2 26 90 55 194
29 105 55 199 59 210 3 11 7 25 8 30 1 6 24 84 49 175 26 91 50 179 55 195 4
17 27 99 50 184 32 112 40 158 33 170 -11 18 -70 24 -123 11z"/>
<path d="M2820 5066 c-6 -17 -18 -70 -35 -156 -2 -8 -4 -15 -5 -15 -1 0 -3
-13 -6 -30 -2 -16 -6 -37 -7 -45 -2 -8 -7 -31 -11 -51 -8 -37 -28 -49 -141
-83 -67 -20 -68 -19 -81 67 -27 176 -124 267 -289 272 -308 9 -541 -236 -619
-650 -33 -176 -4 -337 76 -415 87 -85 236 -123 368 -95 77 17 106 30 175 76
140 96 253 303 281 518 7 54 10 58 49 64 17 3 50 12 75 21 60 21 63 20 55 -11
-4 -16 -8 -35 -10 -43 -11 -56 -36 -172 -100 -475 -3 -11 -7 -31 -10 -45 -3
-14 -7 -35 -10 -48 -2 -13 -6 -31 -9 -40 -3 -9 -8 -32 -11 -50 -3 -18 -12 -65
-21 -105 -8 -39 -18 -83 -20 -97 -3 -14 -7 -32 -10 -40 -3 -8 -8 -32 -10 -52
-3 -20 -13 -68 -23 -107 -17 -70 -17 -71 3 -89 17 -15 27 -17 51 -11 17 5 42
11 57 14 14 3 55 12 90 21 68 18 66 17 121 29 43 9 45 10 52 61 3 22 8 46 11
54 3 8 8 26 11 40 2 14 18 88 34 165 17 77 32 145 33 152 4 22 13 23 52 7 87
-37 256 -22 355 32 204 112 332 407 325 749 -2 106 -7 141 -25 187 -28 71 -87
131 -153 156 -67 25 -182 22 -258 -7 -29 -11 -56 -19 -58 -17 -2 2 1 20 6 39
8 27 7 40 -4 55 -12 17 -26 19 -179 19 -160 0 -167 -1 -175 -21z m-532 -240
c1 -2 7 -17 11 -34 8 -25 5 -34 -11 -49 -29 -26 -39 -49 -45 -103 -5 -49 18
-120 39 -120 30 0 -33 -216 -91 -312 -57 -94 -141 -128 -178 -72 -38 59 -18
270 43 439 24 66 78 171 106 205 30 36 73 60 98 54 14 -3 26 -7 28 -8z m1004
-57 c22 -29 29 -122 17 -225 -28 -233 -120 -414 -225 -441 -39 -10 -94 0 -94
17 0 4 21 106 46 226 26 121 48 226 49 234 1 8 5 31 10 50 5 19 10 38 11 43 1
4 2 15 3 25 1 23 49 76 85 94 37 19 73 10 98 -23z"/>
<path d="M3913 4236 c-92 -42 -137 -147 -103 -245 20 -60 48 -93 99 -117 143
-68 304 43 287 198 -7 62 -29 101 -79 142 -33 26 -48 31 -105 33 -43 2 -79 -2
-99 -11z"/>
<path d="M232 3711 c-6 -4 -10 -36 -9 -76 l2 -70 105 0 105 0 3 54 c6 100 6
100 -102 99 -52 0 -99 -3 -104 -7z"/>
<path d="M1175 3670 l-50 -5 -1 -72 c0 -70 -5 -87 -25 -89 -5 -1 -14 -2 -19
-3 -7 -1 -10 -32 -8 -83 3 -80 4 -83 27 -83 l24 0 1 -275 c1 -297 3 -308 56
-335 30 -16 107 -19 173 -9 l38 7 -3 76 c-3 72 -4 76 -29 81 l-25 5 0 220 c1
212 2 220 21 224 29 5 35 19 35 91 0 72 -6 86 -35 85 -18 0 -20 7 -21 70 -1
39 -2 75 -3 82 -1 13 -84 20 -156 13z"/>
<path d="M3533 3672 l-63 -3 -1 -32 c0 -18 -1 -53 -1 -79 0 -27 -4 -49 -9 -49
-42 -6 -46 -14 -44 -91 3 -94 1 -88 29 -88 l24 0 0 -262 c0 -149 4 -274 10
-288 24 -60 82 -82 186 -68 33 5 62 10 64 13 9 9 9 120 0 138 -6 12 -17 17
-29 14 -14 -4 -19 0 -19 16 -1 12 -1 114 -2 227 -1 193 0 205 18 208 32 6 37
19 38 92 1 70 -10 100 -33 86 -17 -11 -23 13 -22 84 0 38 -4 72 -10 76 -13 8
-57 10 -136 6z"/>
<path d="M3796 3663 c-2 -10 -4 -224 -4 -475 0 -325 4 -460 12 -467 14 -11
191 -9 203 2 4 5 8 147 8 315 1 169 4 313 8 320 10 16 34 16 44 0 4 -7 8 -150
8 -318 1 -168 4 -310 7 -316 7 -11 186 -13 203 -2 7 4 10 122 10 340 l-1 333
-24 50 c-29 57 -59 81 -116 93 -44 10 -110 -6 -124 -28 -13 -20 -17 2 -15 75
1 39 0 76 -3 83 -3 8 -34 12 -107 12 -90 0 -104 -2 -109 -17z"/>
<path d="M812 3539 c-18 -3 -41 -14 -51 -23 -22 -20 -28 -20 -33 2 -5 16 -16
18 -99 18 -52 -1 -98 -4 -104 -8 -11 -7 -13 -787 -2 -805 8 -12 191 -12 204 0
3 4 7 146 8 315 0 169 4 313 8 320 13 19 37 14 46 -10 4 -13 8 -157 7 -321 -1
-189 3 -302 9 -306 8 -6 162 -8 198 -2 4 0 7 154 7 341 -1 354 -4 380 -46 432
-25 32 -106 57 -152 47z"/>
<path d="M1660 3539 c-112 -12 -189 -80 -209 -182 -15 -73 -11 -441 4 -494 30
-101 108 -153 230 -153 98 0 143 15 191 64 61 60 68 94 67 346 0 244 -6 281
-61 342 -57 63 -129 88 -222 77z m56 -196 c6 -22 9 -333 5 -429 -1 -28 -32
-40 -47 -19 -14 19 -16 431 -2 458 13 26 37 21 44 -10z"/>
<path d="M4585 3543 c-110 -21 -170 -61 -202 -132 -24 -55 -23 -485 1 -558 32
-96 104 -142 221 -143 89 0 137 14 179 51 42 36 65 93 72 173 3 34 7 67 10 74
2 7 -5 21 -15 31 -15 15 -31 18 -105 15 -47 -2 -90 -6 -95 -9 -5 -3 -8 -31 -7
-63 3 -66 -7 -102 -28 -102 -25 0 -30 21 -32 121 l-2 96 136 2 c75 1 137 3
139 4 6 7 4 235 -3 272 -16 89 -84 151 -176 161 -29 3 -57 6 -63 8 -5 1 -19 1
-30 -1z m50 -183 c3 -6 7 -39 9 -75 2 -67 -4 -77 -46 -67 -32 8 -17 152 16
152 8 0 18 -5 21 -10z"/>
<path d="M231 3530 c-11 -7 -11 -792 0 -806 5 -6 49 -10 106 -10 l98 1 3 408
c1 224 -1 408 -5 408 -26 5 -195 4 -202 -1z"/>
<path d="M2566 3024 c-292 -63 -531 -329 -573 -638 -9 -64 -9 -228 -1 -281 10
-61 41 -147 71 -196 106 -179 319 -235 510 -136 20 10 40 23 43 28 10 17 25 9
19 -10 -3 -11 -8 -28 -10 -38 -2 -10 -11 -52 -20 -93 -9 -41 -24 -106 -32
-144 -44 -208 -129 -299 -228 -246 -42 23 -62 104 -37 156 17 36 65 63 102 57
33 -4 80 -24 80 -32 0 -13 39 -9 51 5 18 21 22 88 9 129 -23 70 -88 107 -186
107 -108 0 -201 -59 -256 -165 -32 -60 -32 -194 0 -253 57 -109 166 -166 317
-166 227 1 376 151 466 471 11 41 23 86 25 100 3 14 7 34 10 43 3 10 7 30 10
45 3 16 7 36 10 45 3 9 7 25 9 35 7 38 37 179 40 193 2 8 18 82 36 164 29 137
30 150 15 161 -24 18 -263 20 -263 2 0 -27 -57 -195 -84 -250 -34 -67 -90
-132 -132 -153 -35 -19 -107 -20 -138 -3 -64 34 -93 118 -92 269 1 328 202
652 410 665 113 7 153 -77 93 -195 -10 -20 -26 -42 -34 -49 -32 -27 -14 -66
43 -96 125 -64 249 23 255 179 5 111 -50 203 -153 259 -28 15 -51 25 -51 22 0
-3 -10 0 -22 6 -34 18 -231 20 -312 3z"/>
<path d="M5300 2948 c-81 -22 -134 -95 -132 -180 4 -196 270 -241 345 -58 22
52 14 115 -19 163 -47 66 -121 95 -194 75z"/>
<path d="M4310 2535 c-108 -29 -208 -108 -284 -224 -146 -225 -183 -555 -79
-701 57 -78 144 -116 254 -107 79 6 134 32 200 94 l49 46 14 -35 c15 -35 59
-74 108 -95 14 -7 60 -11 101 -9 62 2 88 8 142 35 60 30 155 111 155 132 0 5
5 9 10 9 6 0 10 -7 10 -17 0 -25 45 -96 76 -118 48 -36 82 -44 162 -41 88 4
144 23 222 77 29 21 55 37 57 35 1 -1 -2 -17 -7 -35 -6 -23 -5 -39 3 -52 11
-17 25 -19 164 -19 150 0 153 0 157 23 3 12 12 54 20 93 9 39 30 138 47 220
17 82 32 154 33 159 2 6 6 28 10 50 28 146 79 246 132 259 23 6 32 3 47 -16
25 -30 20 -83 -29 -298 -60 -263 -51 -380 36 -453 81 -69 244 -58 316 20 33
36 64 101 64 134 0 31 -20 43 -71 40 -74 -4 -81 34 -35 222 14 60 28 122 31
139 3 17 8 35 10 38 10 17 18 90 18 162 -1 91 -26 154 -80 195 -71 55 -192 63
-287 20 l-52 -24 -10 21 c-9 20 -17 21 -165 23 l-157 1 -7 -41 c-4 -23 -9 -46
-11 -52 -1 -5 -21 -98 -43 -205 -23 -107 -44 -202 -47 -211 -2 -10 -6 -31 -9
-48 -5 -41 -15 -71 -23 -70 -27 4 -40 -8 -64 -59 -31 -67 -86 -112 -135 -112
-43 0 -57 21 -50 73 9 56 17 98 23 119 3 9 7 27 9 40 3 13 10 48 16 78 7 30
13 64 15 75 1 11 14 72 29 135 14 63 28 129 31 145 2 17 9 45 14 63 6 23 5 40
-2 52 -10 16 -28 18 -164 19 -149 1 -152 0 -157 -22 -32 -141 -73 -338 -83
-392 -2 -16 -9 -43 -13 -60 -5 -16 -15 -58 -21 -92 -12 -59 -15 -63 -40 -63
-23 0 -29 -6 -39 -42 -15 -50 -63 -123 -86 -132 -37 -14 -72 -6 -85 19 -12 22
-10 40 10 132 13 60 24 117 25 128 2 11 10 50 19 88 9 37 18 81 21 97 3 16 12
58 20 92 8 35 16 74 19 88 2 14 9 45 15 70 14 58 14 56 -5 75 -22 22 -314 22
-314 -1 0 -18 -4 -18 -42 2 -40 21 -158 26 -218 9z m192 -164 c19 -3 28 -42
19 -83 -6 -24 -13 -58 -16 -77 -3 -19 -7 -37 -9 -40 -2 -3 -7 -22 -10 -41 -15
-96 -59 -269 -76 -305 -33 -67 -110 -103 -153 -71 -70 53 -6 403 99 541 52 68
88 87 146 76z"/>
<path d="M3247 2467 c-23 -100 -86 -397 -91 -427 -2 -14 -9 -43 -15 -66 -6
-22 -13 -56 -15 -75 -3 -19 -5 -34 -6 -34 -1 0 -3 -8 -5 -19 -2 -10 -8 -39
-14 -65 -6 -25 -13 -61 -16 -80 -3 -19 -8 -37 -10 -41 -2 -4 -7 -22 -10 -41
-3 -19 -8 -42 -11 -51 -3 -10 0 -26 6 -38 10 -19 20 -20 164 -20 l154 0 5 28
c3 15 20 92 37 172 16 80 32 156 35 170 2 14 18 88 35 165 17 76 33 155 36
175 7 41 33 73 81 95 40 19 43 17 67 -48 20 -53 42 -67 103 -67 124 0 198 143
133 257 -30 54 -64 75 -122 79 -62 3 -100 -8 -161 -46 -42 -26 -48 -27 -42
-11 3 11 0 29 -7 40 -12 20 -22 21 -164 20 l-151 0 -16 -72z"/>
</g>
</svg>
