<svg xmlns="http://www.w3.org/2000/svg" width="638.85" height="640" viewBox="0 0 638.85 640"><path d="M29.92,245.21c1.9,0,1.9.94,3.79.94-1,1.9-6.63,3.79-7.57.95-7.58,1-2.84,6.63-2.84,9.47,0,3.78-.95,8.52-.95,11.36-1.89-1.89,0-3.79-1-5.68-.94,0-.94.95-.94,1.89-2.84-2.84,0-8.52-1.9-11.36,0-.95,1.9-.95,2.84-.95v-1.89c-2.84.95-2.84-2.84-6.62-3.79,2.84,0,3.78-1.89,3.78-2.84,1.9-.94,1,.95,1.9,1.9.94,0,.94-1.9.94-1.9,1,.95,0,1.9,1.9,3.79,1.89-1.89,5.68-.95,6.62-1.89M21.4,267.93c1.9.95,1,3.79,0,4.73-.94-1.89,0-3.78,0-4.73m16.1,8.52c0,1.89-8.52,1.89-14.2,1.89,0,1,.94,1,1.89,1,.95,1.89-2.84,3.79-3.79,5.68,1-1.89,1-5.68,0-9.47,1.9,0,1.9,1.9,1.9,2.84,2.84-1.89,7.57,0,11.36-.94,1.89,0,1-.95,2.84-.95m5.68-32.19c0-.95,2.84,0,1.89,1-1.89.94-4.73.94-6.62,1.89-1-1.89-2.85,1-4.74-.95.95-1.89,9.47,0,9.47-1.89m-1,29.35c1.9-1.89,1.9,1.89,3.79,1.89-1,.95-1.89.95-3.79.95,0-.95,1.9-2.84,0-2.84m-3.78,4.73c-1.9,0-1,2.84-4.74,1.9,4.74-2.84-5.68,0-5.68-1.9,7.58,0,12.31-1.89,18-1.89.95,3.79-4.73,3.79-7.57,1.89m-2.84,28.41H32.76c-.94-.95,1.9-.95,1.9-1.9,1.89-.94,1.89.95,1,1.9m-10.42-.95c-1.89,0-2.84,0-2.84-1.89h1.89ZM21.4,293.49c1-.95,0-3.79,1-4.73v2.84h0c0,.94.95,1.89-1,1.89M19.51,266c0-1.9.95.94.95,1.89,0,2.84-.95-.95-.95-1.89m.95,7.57.94,8.52c-1.89,0-.94-1.89-2.84-2.84,1.9-1.89,0-5.68,1.9-5.68m0,28.4h0c.94-.95,2.84-6.63,3.78-3.79h0c-.94,1.9,0,3.79,0,5.69-2.84,1.89-.94-2.85-3.78-1.9m-.95-84.26v2.84c0,2.84.95,12.31,0,5.68h0c.95-2.84-1.89-10.41,0-8.52m35,16.1c2.84,0,0,2.84-.95,3.78-1.89-.94,2.84-1.89.95-3.78m38.82-66.28h1.89c1.89,1-1,1,0,2.84H91.46c0-.94,1-1.89,1.9-2.84m32.19-86.15c0,1-1,1-1,1.89-1.89-.94-.95-.94-4.73-1.89.94-1,2.84,0,5.68,0m5.68-1.89c.94,0,2.84,0,2.84-1,.94-1-.95,1,.94,1.89-3.78,0-1.89,1.9-4.73,1.9,0-1,1.89-1,.95-2.84m5.68-9.47c0,1.89,4.73,1,2.84,3.79,1.89,0,4.73-.95,1.89-.95,1.89-1.89,1,1.89,1.89,1.89-.94.95-1.89,0-3.78.95a.93.93,0,0,0-.95-.95c-2.84.95-4.73-.94-5.68.95-1.89,1,0-1.89-1-2.84C136,71,136,71,136.91,70.06m1.89-4.73c5.68,0,0,3.78,3.79,4.73a2.94,2.94,0,0,0-1.9,1c-1.89,0-1.89-1.9-1.89-2.84h1.89c0-1.9-2.84-1.9-1.89-2.84M153,97.51c.95,0,.95-.94.95-1.89.94,0,1.89-1,3.79-1s5.68,0,5.68-.94c2.84.94,0,4.73,0,5.68-2.84-1.9-5.68,3.79-7.58,5.68-1-1.89-1-4.74,3.79-5.68-.95-1-6.63.94-6.63-1.9Zm6.63-33.13c1,1-1.89,1-.95,1.89,3.79,1,.95-1.89,3.79-1.89-1.89,1,.95,1.89,1.89,2.84.95-1,3.79-1.89,4.74-2.84,1.89,0,1.89,1,3.78,1,1,0,1-1,0-1,4.74-.95-.94,1.89,1,2.84.95,0,.95-1,1.89-1C174.78,69.11,171,71,169.1,72c-.95-.94.94-1.89.94-2.84s-4.73,0-2.84,1c-2.84-1-4.73-1.89-8.52-1.89-.94-2.84-.94-3.79.95-3.79m5.68-3.79c.95,0,1.89.95,3.79.95-.95,0-1.9,1-5.68,1,1.89,0,2.84-1,1.89-1.9m13.25,8.52h1.9c0,1-1.9,1.9-3.79,1.9,0-1,1-1,1.89-1s0,0,0-1m5.68-3.78c.95,0,1.9.94,1.9,0h.94c1.9.94,3.79-1,4.74-1.9,1.89,0-.95,1.9,0,2.84-3.79-.94-2.84,1-4.74,2.84-2.84,0-2.84,0-4.73-.94,0-1,1-1.9,1.89-2.84M188,49.23c.95,1.89,2.84,0,2.84,1.89-1.89,1-4.73,0-2.84-1.89m18-3.79c1.89,0,1.89,1.9.95,1.9-.95.94-2.84-1-2.84,0-3.79-1,1.89-1,1.89-1.9m0-2.84c2.84,0-1,1.9,3.79.95-.95,1-1.9,1-3.79,1.89-1-.94-1-2.84,0-2.84M188,81.42c-.95,0-1.89,0-1.89-1l-.95-.94c2.84,0,4.73.94,2.84,1.89M165.31,94.67c0-.94.95-1.89,2.84-1.89,0,0,0,1.89-2.84,1.89M133.12,87.1c1.89,0,.95,2.84,0,3.79-2.84-1,.95-2.84,0-3.79m5.68,15.15c-2.84,1-3.79,0-3.79-1-1.89,0,0,1.9-.94,2.84-3.79-1.89-2.84-8.52,0-10.41,0,2.84-.95,4.73,0,7.57.94,0,.94,0,1.89-1h0c-1,1.9,3.79,0,2.84,1.9m87.1-65.33c.95,1.9,1.89,3.79,0,4.74-1,.94-1-1.9-1.89-3.79.94,0,1.89,0,1.89-.95M224,26.51c1.89,0,1.89-1,4.73-1-1,1-1,1-2.84,1-1,.95.95.95.95,1.89H225c1-.94-.94,0-.94-1.89m2.84-10.42c1.89,0,.94,1.9,1.89,3.79.95-.95,2.84,0,1.89-.95,3.79,1.9-5.68,2.85-1.89,3.79-2.84-1.89-1.89-5.68-1.89-6.63m81.42-1.89c.94,1.89-2.84,0-2.84,1.89-1.9,0-1.9-.94-2.84-1.89,1.89,0,1.89,1,5.68,0m6.62,11.36c.95,0,1.9,1.9,1.9,1,1.89,1.89-2.84,0-3.79.95-2.84-.95,1.89-.95,1.89-1.9M314,13.25h0l.94.95H313c-.95-.95.95,0,.95-.95m3.79,8.53c-1.9.94-4.74-1-4.74-2.85a10.11,10.11,0,0,0,4.74,2.85Zm3.78,18c-1.89,0-1.89,1-3.78,1,0-1,.94-1.89,2.84-1.89h0c.94,0,.94,0,.94.94m3.79-6.62c0-1-.95,0-1.89,0l.94-1c0-.95,0,0,.95,1,.95,0-.95,0,0,.94-1.89,0-1.89-.94-2.84-.94,0-1,1.89.94,2.84,0M324.36,0c0,1,0,1-.94,1.89h-2.84C321.52,0,322.47,0,324.36,0m3.79,27.46c1,0,0,.94,1.89.94,0,1-.94,1-1.89,1,1,.95,1.89,0,2.84.95-.95.94-3.79.94-4.73.94-.95-1.89,0-2.84,1.89-3.78m6.63,3.78c-.95-.94-2.84-.94-3.79-1.89,1.89-1.89,4.73.95,3.79,1.89m4.73-2.84c0,1-3.79,1-4.73,1,0-1.89,2.84-1,4.73-1m.95,0c0-.94.94,0,1.89-.94,0,.94,0,1.89-1,1.89h-1.89c0-1,.95,0,1.89-1h-.94m13.25-2.84h2.84c-.95,1,0,3.79,2.84,3.79,0,.95-3.79,0-2.84-1h-4.73c0,1,2.84,1,3.78,1.9,0,.94-1.89.94-.94,1.89-1.9,0-1.9-.95-3.79-.95,0-1.89-.95-1.89-1.89-3.78,3.78.94,1.89,0,5.68.94,1.89-1.89-1.9-.94-1-2.84m7.58-.94c1.89,0,1.89.94,3.78.94,2.84,0-.94-2.84.95-2.84s1.89,1.9,2.84,2.84c-.95,0-1.89,0-1.89,1,1.89,0,4.73,0,6.62-1,0,1-1.89,1-3.78,1.9,0,.94,0,1.89,2.84,1.89-.95.95-2.84.95-4.74.95a3.48,3.48,0,0,0-.94-2.84c-1,0-1,.94-1.9.94-.94,1,0,1.9-3.78,1.9V24.62m21.77,0c1.89-.95,0,.94,0,1.89-2.84-1-3.79,0-8.52,0,0-1.89,7.57,0,8.52-1.89m7.57,7.57c1.9,1,5.68,1,9.47,1-.94,2.84-6.63,0-9.47,1.89,2.84,1.89,10.42,1.89,12.31,5.68-8.52-1.89-13.25-5.68-21.77-6.63.94-1.89-.95-1.89,2.84-1.89-2.84,1.89,2.84,1.89,5.68,2.84a3.49,3.49,0,0,0,.94-2.84m6.63-2.84c0,.95,0,1.89-1.89,1.89-.95-.94,0-1.89,1.89-1.89m3.79-1c.95,0,.95,1,.95,1.9h-2.84c-1-1.9,1.89-.95,1.89-1.9m1.89,2.84c.95,1.9-2.84,3.79,0,5.68h-3.78c0-2.84,1.89-1.89.94-4.73,1.9,1.89,2.84,1,2.84-.95m4.74,9.47c.94,0,.94.95,1.89.95,0,.94-.95,0-.95,0-1.89,0-.94.94-1.89.94-1-.94-2.84-1.89-2.84-2.84,0,1,.95,1.9,3.79,1m6.62,4.73c.95-.94,4.74-.94,4.74,1H416.2c0,1,.94,1,1.89,1,0,.94-.95.94-1.89.94C415.25,51.12,420,51.12,420,53a.93.93,0,0,1-.94-1c-4.74,1.89-4.74-5.68-7.58-8.52,1.9,0,2.84,0,2.84,1.89m0-3.78h0c3.79,0,0,.94,0,0-1.89.94,0-.95-1.89-.95.95-1,2.84,0,1.89.95m-.94,15.14c0-.94,1.89-.94.94-2.84,2.84.95,1.9,3.79-.94,2.84M336.67,43.55c-1.89,0-1.89-1.89-.95-1.89,2.84,0,1.9.94.95,1.89m-18,5.68c-.94-.95-.94-1.89.95-2.84h1.89c-1.89,1.89-2.84,1-2.84,2.84m-4.73-17c0-.95,3.79,0,2.84-1.89,1.89.94,0,2.84-2.84,1.89.94,1,.94,0,0,0M436.08,69.11c-.95,1-3.79,1-4.74,1a3.31,3.31,0,0,1,4.74-1m0-20.83c.94,1.9-2.84.95-1.9,2.84-2.84,0-1.89-1.89,1.9-2.84m1.89,0c3.79,0-1.89,3.79,2.84,2.84-4.73,1-3.79-1.89-2.84-2.84m16.1-6.62c-6.63,1.89-5.68-1.9-7.58-4.74,3.79.95,4.74,2.84,7.58,4.74m-3.79,19.88h3.79c.94,1.89-3.79,1.89-3.79,0m17,9.47h1.89c1,1.89,1.9,4.73,1,6.62-4.73,0-2.84-3.78-2.84-6.62m14.2,6.62c2.84-.94,1,1.9,3.79,1.9h1.89c-2.84,1.89,0,2.84.95,4.73-.95,0-1.89,0-1.89.95-1.9,0,0-2.84-.95-3.79-1.89,0-5.68-1-3.79-3.79m2.84-10.41h0c1.9-1,2.84,2.84,0,1.89Zm0-5.68c1.9,1,3.79,1.89.95,2.84h-.95Zm-.94-4.74c1.89,0,.94,2.84,0,4.74Zm4.73,18h6.63v1.9h-6.63c1.89,0,0,0,0-1.9m1-12.3c.94-1,4.73,0,3.78.94-1.89,0-2.84,0-3.78.95-2.84-.95,2.84-1.89,0-1.89M490,54h1.9c0,.95-.95,1.9-2.84,1.9,0-1,.94-1,.94-1.9m5.68,36h-1.89c0-1,.95-1.89,2.84-1.89,0,.94-.95.94-.95,1.89m0-14.2c1.9,1,1.9,0,4.74,1-.95,1.89-1.9,0-4.74.94ZM497.62,54c.94,0,.94.95.94,1.9-.94-1-2.84-1-2.84-1.9Zm-.95,15.15c2.84-.94,1.89,1.9.95,1.9-1.9,0-1.9-1-.95-1.9m.95,4.74c0-.95,0-1.9.94-1.9,1.9-.94.95,1.9-.94,1.9m1.89-15.15c1.89,0,3.79,0,3.79.94-2.84,0-3.79,1-2.84,1.9-1.9,0-.95-1.9-.95-2.84m42.6,71c-1.89,2.84-9.46,7.58-14.2,10.42,1.9-2.84,9.47-7.58,14.2-10.42m1.9,18c5.68,0,2.84,3.79,3.78,4.74-.94.94-2.84,0-5.68.94-.94-.94.95-.94.95-2.84-.95,0-.95.95-1.89.95.94-2.84,3.78-1.89,2.84-3.79m3.78-20.83c2.84-2.84,10.42-7.57,14.21-9.46h0c-4.74,2.84-9.47,5.68-13.26,8.52,0,.94,0,.94-1,.94l-.94,1c0-1,0-1,.94-1m-53-22.72v-3.79a.93.93,0,0,1,.94,1h0c0,1.9,0,5.68-.94,2.84m-6.63,1c-1.89,0-.95-1.89-2.84-1,0-1.89,3.79-1.89,2.84,1m-5.68-22.72c.95.94,1.89.94,2.84,2.84-3.79,0-2.84-1.9-2.84-2.84M611.23,208.28c-1-1.89-1-4.73-1-7.57,2.84,2.84,1,4.73,1,7.57.94,1.9.94,2.84,1.89,1.9,1,0-1.89,1.89,0,2.84-1.89,0-1-1.9-2.84-1,1,0,1-.95,1.89-.95-.94-.94-1.89-.94-2.84-1.89,0,0,1.9,0,1.9-.95M50.75,260.35h0c2.84-1.89,2.84.95,0,.95-.94.95,0-2.84,0-.95m-29.35-53c0,2.84,1,6.62,0,7.57h-.94V214l.94-6.62c-8.52,22.72-15.14,46.39-18,70.06,3.78-.95,4.73-.95,8.52-1.9,0,1.9,3.78.95,3.78,2.84H9.1c0,1.9,5.68,0,7.57,0-1,1.9-3.79,1-7.57,1.9,0,.94,3.78,0,1.89.94-2.84,0-4.73,0-4.73-.94a.92.92,0,0,0-1,.94c-1.89,0-1.89-.94-1.89-.94-.95,0-.95.94-1.9.94V284a14.66,14.66,0,0,1,1.9,7.58c.94,0,2.84,0,.94,1.89-1.89,0-2.84-1.89-1.89-2.84H.58v1.89c1.89.95,4.73,1.9,1.89,1.9,2.84,0,3.79,2.84,3.79,6.62,4.73-.94,2.84.95,6.62,1.9C11,303,10,302,9.1,303c.94,1.89,1.89,1.89,4.73,1.89,0,.95.95,1.9.95,2.84-2.84-.94-2.84-1.89-5.68-.94.94,1.89,2.84,2.84,3.78,4.73,1.9-1,0-2.84.95-3.79a5.22,5.22,0,0,1,2.84,4.74c-2.84-.95-2.84-.95-5.68,0,0,.94,2.84.94,2.84,1.89,2.84,0,3.79-2.84,5.68-.95h.95c-1.9-.94.94-2.84-.95-3.78v-.95h0a.93.93,0,0,0,.95-.95,4.17,4.17,0,0,1,.94,2.84h1v-3.78h-1c-2.84,0-.94-2.84-1.89-3.79a.93.93,0,0,1,.95,1h.94a2,2,0,0,1,1.9,1.89h-.95c.95,1.89,0,4.73.95,6.63.94,0,1.89.94,2.84.94s0-1.89-.95-1.89c1.89-1.89,2.84,1.89,3.79,0,2.84.95-3.79,2.84,1.89,2.84-2.84,0-2.84.95-2.84,2.84a.93.93,0,0,1,.95.95H28V320h0l-1-.95V320c-1.89,0-2.84,0-2.84.95-.94-.95,1-1.9,1.9-2.84a3.48,3.48,0,0,1-.95-2.84,4.17,4.17,0,0,0-2.84.94v1.9c-1,0-1.89,0-1.89.94H17.62c0-.94,0-.94.94-1.89-.94,0-.94-1-1.89-1-1.89,1-1.89,1.9-1.89,2.84h.94a.92.92,0,0,0-.94.95c.94,1.89,2.84,2.84,4.73,3.79h0l2.84,2.84c-1.89-.95-3.79-.95-2.84-2.84h0c-1.89,0-1.89,2.84-1,2.84-7.57,2.84,1.9,7.57,6.63,3.78,2.84.95,1.89,2.84,6.63,1.9,0-.95-.95,0-1.9,0,0-.95,3.79-.95,5.69-.95,0,.95-1,.95-1.9.95,0,.94,2.84.94,4.74.94,0-.94-1.9-.94-2.84-2.84,1.89.95,3.78.95,4.73,1.9,3.79,0,3.79-1.9,7.57-.95l-.94.95h3.78a143.36,143.36,0,0,1,0-28.4h0v-1h1c.95-19.88,4.73-39.76,9.47-57.75-1,0,.94-1-1-1.9-.95,0-.95.95-1.89.95,0,1,1.89,1.89,1.89,3.79-.95.94-2.84.94-2.84,1.89h.95c-2.84.95,0-1.89,0-3.79-.95-.94-2.84-.94-3.79-1.89-2.84,1-4.73,0-7.57,1-.95-1.9,5.68-1,4.73-2.84,0,1.89,7.57,0,9.47,0h1.89c3.79-13.26,8.52-26.51,15.15-38.82H73.47a.93.93,0,0,0-.94.95c-4.74-.95-8.52,0-14.2,0,5.68-1.9,10.41-1.9,17-1.9h2.84a257,257,0,0,1,19.88-35s-1-.94,0-.94H96.2v-.95c1.89-1.89,1.89-1.89.94-4.73h1c1-.95-1-.95-1-1.9,2.84-.94,1.9.95,1.9.95v2.84h-1c1,.95,1,.95,0,2.84h1c.94-1.89,2.84-3.79,3.78-5.68h-.94c1.89,0,1.89-.95,2.84-1.89,1.89-1.9,2.84-4.74,4.73-6.63,1-3.79,2.84-5.68,3.79-9.47,1.89,0,1.89,1,2.84,1a.93.93,0,0,1,1-1h0c3.78-4.73,8.52-8.52,12.3-13.25v-.95h.95l1.89-1.89c-.94,0-2.84,0-2.84.94-1.89-.94,0-7.57,0-8.52,2.84-.94.95,1,1.9,1.9-2.84,0,0,3.78.94,4.73,23.67-22.72,53-41.66,84.26-54.91h-.94c1.89-1,0-1,0-2.84,3.78,0,7.57,1,8.52-1.89a.92.92,0,0,1,.94.94C244.84,58.7,266.61,54,288.39,51.12c-.95-.94-2.84,1.9-4.74,0,2.84-.94,3.79-.94,1-1.89,8.52-.95.95-6.63,5.68-7.57,0,2.84,3.79,6.62,2.84,9.46,2.84,0,5.68-.94,8.52-.94a171.57,171.57,0,0,1,31.24,0c-1.89-1-2.84-1.9-.94-2.84h.94c1.9.94.95,1.89,1.9,2.84A251.9,251.9,0,0,1,426.61,72.9h3.79l-.95.95a291.52,291.52,0,0,1,52.07,31.24v-1c1-.94,1,2.84,1.9,1V107c37.87,29.35,68.16,69.11,85.2,114.56,9.47,0,19.88,0,25.56-1.9,4.74,1,13.26,1.9,17.05,0,0-.94-2.84-.94-1.9-2.84,1.9.95.95-1.89,4.74-1.89.94,1.89.94,3.79,3.78,4.73,1.9,0,3.79,0,4.74-.94,0-.95-1-.95-1-1.9h0a178.37,178.37,0,0,0-11.36-28.4v9.47c-.95-1.89-2.84-8.52-.95-10.41-1.89-4.74-4.73-9.47-6.62-15.15,0,.94-1.9.94-1.9.94-2.84,0-2.84-1.89-2.84-2.84.95-.94,3.79,0,4.74,1-10.42-20.83-23.67-39.76-37.87-56.8a.93.93,0,0,0-1,.94c-.95,0-.95-.94,0-.94-19.88-24.62-44.5-45.45-71-62.49-3.78,0-7.57,0-10.41,1.89-2.84-.94-5.68,0-6.63-1.89h2.84c-1.89-1-.95,0-.95-1.89-1.89,0-1.89.94-3.78.94-1.9,1-.95,2.84-4.74,2.84-6.62-1.89-9.46,2.84-6.62,4.74,0,.94,2.84,0,3.78,0-.94.94-.94.94.95.94,0,1-1.89,0-2.84,1,.95.95,2.84,0,2.84.95s-2.84-.95-1.89,1c4.73-1,0,1.89,2.84,2.84-1.9,1.89,0,4.73-3.79,5.68.95-1-1.89-1.9,0-1.9-2.84-1.89-12.31,0-14.2-.94-1.89.94-.95.94-.95,1.89-4.73,1-4.73-1.89-9.47,0,.95-3.79,19.89,0,16.1-4.73h-3.79c-.94-1.9,3.79,0,1.9-1.9.94,0,2.84,1.9,2.84,0,1.89,0,1.89,1.9,2.84,1.9,1.89-1-.95-2.84-3.79-2.84,1.89-1.9-2.84-2.85-3.79-5.69-.94-.94-.94,1-2.84,1,3.79-1-1.89-1.89-.94-3.79-1.9,0-1.9.95-1.9,1.9h-2.84c1.9-1.9,0-2.84,2.84-1.9l-.94-.94c-.95,0-.95.94-1.9.94-.94,1.9-2.84,2.84-5.68,3.79,0,1,1.89,1,1.89,1.89-3.78-.94-5.68-2.84-9.46-1.89.94-1,0-1.89-1.9-2.84.95,0,4.74,1,5.68,1,1.9-1,2.84-1.9,4.74-2.84,5.68,0,4.73-1,10.41,0,0-1-2.84-2.84-.94-3.79.94,0,.94,1,.94,1.89,2.84,0,1.9-1.89,3.79-2.84-3.79-1.89,0-2.84,0-5.68,3.79,0,1.89,2.84,2.84,3.79,6.63,0,15.15,2.84,20.83-1.89h1.89A318,318,0,0,0,299.75,1.89a352.56,352.56,0,0,0-54,7.58c1.9,0,4.74-1,7.58-1-1.9,1.89-6.63,1.89-11.36,1.89h0A207.24,207.24,0,0,0,219.27,17c0,1.89-1.89,3.79.95,5.68-1.89,1-2.84,2.84-3.79,5.68-1.89,0,.95-2.84-2.84-2.84.95-.94.95-1.89,1.9-.94v-1.9c-2.84,2.84-1-1.89-1.9-3.79a304.23,304.23,0,0,0-83.31,43.56c0,.94,0,.94.95.94-.95,4.74-1.9,2.84-1.9,0-50.17,36.92-89,87.1-110.77,145.8l2.84-1.89" transform="translate(-0.58)" fill="#b72726"/><path d="M348,586h0" transform="translate(-0.58)" fill="#b72726"/><path d="M22.35,314.32v0" transform="translate(-0.58)" fill="#b72726"/><path d="M621.64,236.69c1,2.84,0-5.68,0-4.74a.93.93,0,0,1-.95,1c0-1,0-2.84-.94-1.89,0,1.89.94,2.84.94,4.73h.95v.95h0" transform="translate(-0.58)" fill="#b72726"/><path d="M118,565.21h0" transform="translate(-0.58)" fill="#b72726"/><path d="M171,66.27c0-.94,0-1.89-1.89-1.89-.95,1,0,1.89,1.89,1.89" transform="translate(-0.58)" fill="#b72726"/><path d="M119.87,567.1c0,.95.94.95,0,0h0" transform="translate(-0.58)" fill="#b72726"/><path d="M8.15,306.75c-2.84,2.84.95,2.84-1,5.68,4.74.94,1,.94,1,2.84,0,0,0,.94.95,0,0-.95.94.94,1.89,0-1-2.84-1.89-5.68-2.84-8.52" transform="translate(-0.58)" fill="#b72726"/><path d="M13.83,325.68c0-1.89-.95-2.84-.95-4.73h-.94V320c-.95-2.84,0,5.68,0,4.73a.92.92,0,0,1,.94-.94c0,.94,0,2.84.95,1.89" transform="translate(-0.58)" fill="#b72726"/><path d="M1.52,308.64c1,0,2.84,0,2.84-.95a13.16,13.16,0,0,1-2.84-3.78v4.73" transform="translate(-0.58)" fill="#b72726"/><path d="M1.52,301.06a.93.93,0,0,1,1,.95c0-2.84,0-4.73-1-6.63v5.68" transform="translate(-0.58)" fill="#b72726"/><path d="M251.46,629.59c-.94,0-1.89,0-1.89.94,1.89,0,3.79,1,5.68,1-.95-1-2.84-1-3.79-1.89" transform="translate(-0.58)" fill="#b72726"/><path d="M162.47,596.45h0" transform="translate(-0.58)" fill="#b72726"/><path d="M3.42,308.64c-1.9,0-1.9.95-1.9.95V320s1,.95,0,.95c1.9,0,5.68-.95,6.63,0a2.51,2.51,0,0,0-2.84-2.84c0-.95,1-.95,1.89-.95,0-1.89-6.62-3.79-.94-5.68-2.84,0-1.9-1-2.84-2.84" transform="translate(-0.58)" fill="#b72726"/><path d="M22.35,307.69h0" transform="translate(-0.58)" fill="#b72726"/><path d="M6.26,304.85c0,.95.94,1.9,2.84,1.9-.95-.95-1.9-1.9-2.84-1.9" transform="translate(-0.58)" fill="#b72726"/><path d="M21.4,306.75h0" transform="translate(-0.58)" fill="#b72726"/><path d="M4.36,325.68c1.9.95.95,0,2.84,0,0,1.89,1,.95,0,2.84-2.84,0-1.89-.95-3.78-.95.94-.94,1.89-.94.94-1.89M11,327.57c0-.94-1,0-1.89,0,.94,0,.94-3.78-1.9-3.78,0-1,1-1.9,1-2.84H.58v9.46h0c5.68,1.9,11.36.95,10.41-2.84" transform="translate(-0.58)" fill="#b72726"/><path d="M612.17,239.53c-.94,0-.94.94,0,1.89-.94,0,0-.95,0-1.89" transform="translate(-0.58)" fill="#b72726"/><path d="M631.11,247.1h0a47.36,47.36,0,0,0-1.9-11.36h-2.84a2.51,2.51,0,0,0,2.84,2.84c0,.95-.94.95-1.89.95,0,1.89,6.63,3.78.95,5.68,1.89-1,.94,0,2.84,1.89" transform="translate(-0.58)" fill="#b72726"/><path d="M353.71,588.88c-.95-1.9,2.84-1.9,3.79-1-.95,0-2.84,1-3.79,1M349,593.61c-1-1,0-1,0-1.89-1.9,0-1,.94-3.79.94.95-.94.95-1.89,3.79-1.89,1.89,1,5.68,0,7.57,0,.95,1-5.68,1.89-7.57,2.84m8.52,27.45h-1.9v-1.89c1.9,0,1.9,1,1.9,1.89M348,623.91c0-.95-.95-.95-1.89-.95,0-1,1.89-1.9.94-3.79,2.84-.95.95,2.84,1.9,1.89,1.89,0,0,2.85,2.84,1.9.94.95-1.9.95-3.79.95m0,10.41c-.95,0-.95-1-1.89,0a2,2,0,0,1-1.9-1.89c.95,0,1.9,1.89,2.84.94.95,0,1.9,0,.95,1m-4.73-17c1.89,0,1.89-.95,2.84-.95a3.27,3.27,0,0,0,1.89.95c-.95.94-2.84,1.89-3.79.94a.92.92,0,0,1-.94-.94Zm3.78-28.4c1.9,0-.94,1.89-.94,1.89h-1.9c0-.95,1.9-.95,2.84-1.89M328.15,604c-.95,1-2.84,0-2.84-1.89-1.89,0-1.89,1-3.79,1,0,.94,1.9,1.89,0,1.89-2.84-1,0-2.84-4.73-1.89,2.84,1.89-4.74.94-8.52.94,6.62-3.78-7.58-3.78-11.36-5.68,0-.94.94-1.89.94-2.84,1.9,1.9,6.63,1.9,8.52,3.79.95,0,.95-.95,0-.95,0-.94,2.84,0,4.74-.94-2.84,1.89-1.9,5.68,3.78,6.62,1.9-.94-.94-.94.95-1.89,3.79,1.89,9.47,0,15.15,1-.95,0-6.63-1-2.84.94M314,612.54a10.15,10.15,0,0,1,4.73-2.84h-.94c.94.95,2.84,0,2.84,0,.94,1.9-4.74,1.9-6.63,2.84m-17-16.09c-3.79.95-3.79-1.89,0-1.89Zm-5.68,11.36c-1.9,0-2.84-.95-3.79-.95.95-.94,1.89,0,4.73-.94a3.28,3.28,0,0,0-.94,1.89m-5.68,19.88c-1.9.95,3.78-.94,5.68-1.89,0,1.89-2.84,1.89-5.68,1.89M274.18,623c-.94-1,1.9-1,.95-1.9,3.79,1.9,4.74-1.89,10.42-1.89,1.89,1.89-2.84,1-1.9,1.89-3.78-.94-4.73,1-9.47,1.9m5.69,5.68c-2.85,0-.95-1.89,1.89-.95,1.89.95-1.89,0-1.89.95m-11.37-4.73c0-.95,2.84-2.85,4.74-1.9-1.9,1-2.84,1.9-4.74,1.9m3.79,1.89c-2.84,0-1.89,1-3.79,0a4.57,4.57,0,0,1,3.79,0h0c.95,1,0,1,0,0m-4.73-34.08h-6.63c0-1,5.68-1.9,6.63,0m6.62,16.09c-.94,1-2.84,1-5.68,1,.95-1,2.84-1,5.68-1M272.29,586c1.89.94,7.58,0,6.63,2.84-2.84-1-3.79-1.9-6.63,0ZM283.65,605c1,.95,3.79.95,2.84,2.84-4.73,0-8.52,0-12.31,1l.95-1v-.95c3.79,0,9.47.95,8.52-1.89m-.94-9.47c1.89,0,2.84,0,2.84,1-1.9,0-3.79.95-2.84-1m29.34,0c.95-.94.95,1,1.9,1.9h.94c1.9,0,0,1.89-1.89.94-.95-1.89,0-.94-.95-2.84m-60.59,29.35c-1.89-.94,0-.94,0-1.89a3.32,3.32,0,0,1,1.9.95c1.89,0-1-.95,0-1.9,1.89,0,1.89,1.9,4.73,1.9-.95,0-4.73,0-6.63.94m-17-30.29c0-.95,2.84-.95,1.89-2.84a3.46,3.46,0,0,0-2.84-1c.95-.95,0-1.89,1.9-1.89h-1c0,.94,2.84-1,2.84,1.89,1-.95,1.9-.95,1.9,1a1.31,1.31,0,0,1,1.89,0,.93.93,0,0,0,.95-1c1.89,1,3.78,0,5.68,0-3.79,1-10.42,2.84-13.26,3.79m6.63,13.25c-2.84,0-5.68,0-6.63-.95,1.9,0,2.84,0,3.79-.94.95,0,0,0-1,.94,0,.95,5.68-.94,3.79.95m.95,17c-.95,0-1.9,0-1.9.95h-.94c-1.9,0-1.9-1.89-1.9-2.84,1.9,0,1.9,1.89,2.84,0,1,0,1,.94,1.9.94Zm-12.31-28.4c1.89.95,4.73-1,6.62,0-.94.95-5.68,2.84-6.62,0M218.33,581.3c-1-1.89.94-1.89.94-2.84,1.9,0,.95,1.89,2.84,1.89-.94.95-1.89.95-3.78.95m-21.78-14.2c-1.89-1-2.84-1-5.68,0-1-2.84,7.58-1,5.68-2.84,1.9-1,4.74-1,6.63-1-1.89,1-2.84,1.9.95,1.9,0,.94-6.63-1-7.58,1.89m-16.09,24.62a5.67,5.67,0,0,1-3.79-1c1,0,4.73,0,3.79,1m-6.63,1.89c.95-1-2.84-1.89,1.89-1,0,1,0,1-1.89,1m4.73-5.68c1.9,0,1.9,1,1.9,1.89-1.9,0-2.84-.94-1.9-1.89m-26.51-8.52h-1.89c1-.95,5.68-2.84,8.52-2.84-.94.94-5.68.94-6.63,2.84m-4.73-.95h-1.89c-1.9-1,1.89-1,.94-1.89a2,2,0,0,1,1.9,1.89h-1m8.52-44.5a.93.93,0,0,0-1,.95c-.94,1-.94-1.89-.94-2.84l1.89,1.89c1.9,0,0-1.89,1.9-.94-1,.94.94.94.94,1.89-1.89,1-.94-.95-2.84-.95m.95,18.94c-2.84,1,1,2.84-.95,4.73-2.84-.94-1-2.84-1-4.73V552c1-1.89,1,0,1.9.95ZM154,562.37h0v-2.84c1.89,0,.94.94,2.84.94-.95.95-.95,1.9-2.84,1.9m-2.84-27.46h0v1c-1,0-1-1-1.9,0,0-1,0-1.9,1.9-1Zm.94,25.56c-.94-.94-1.89-2.84-.94-3.78h.94Zm1.9-14.2v-1.89c.94,0,.94-1,1.89-1-3.79,1.9,1.9,2.84-1,3.79-1.89.95-.94,0-.94-1m-12.31,17c-1.89,0,1.89-1.89-.95-2.84h.95c1,0,1,0,1-.94.94.94-1,2.84-1,3.78M128.39,524.5c-.95-1,4.73-1.9,0-1.9l.94-.94c1.9.94,3.79.94,4.74,1.89,1.89,0,1.89-.95.94-1.89h1a3.28,3.28,0,0,1,1.89.94c-2.84,1.9-5.68,0-9.46,1.9m-2.84-2.84c0,1.89-3.79,1.89-3.79,3.78-2.84,0-3.79-.94-6.63-.94,1.9-1,2.84.94,5.68,0,0-1-.94-1-1.89-1,1-2.84,3.79-2.84,6.63-1.89a3.48,3.48,0,0,1-1-2.84c2.84-1,2.84.94,3.79.94-.95,1-.95,1.9-2.84,1.9Zm-10.42,22.72c0-1,1.9-1,1.9,0a.93.93,0,0,0,.94-1c1,0,3.79,1,3.79,0,.95,1.9-3.79,1.9-6.63,1m5.68,12.31c-2.84,0-2.84-1.9-2.84-3.79,2.84,0,4.74,2.84,2.84,3.79m-8.52-42.61a2,2,0,0,1-1.89-1.89,1.32,1.32,0,0,1-1.9,0h3.79v1.89m-1.89,4.74c1.89-1-1-3.79,2.84-2.84-.95.94,0,2.84-2.84,2.84m7.57.94c-4.73,1.9-2.84-5.68-1.89,0Zm-2.84-13.25c0,.95,1,.95,1,1.89-1.9,1-2.84-1.89-4.74-.94-1.89-1.9,1.9,0,3.79-.95m7.58,7.57c-1.9.95-1.9,1.9-4.74,1.9,0-1,0-1-.94-1,.94-1.89,3.78,0,5.68-.95m6.62-4.73c.95.95-1.89.95-3.78.95.94.94,2.84,1.89,0,2.84-1.9-.95,0-2.84-3.79-3.79Zm3.79,5.68c-1,0-1,0-1.89,1-.95,0,.94-2.84-1.9-1-1.89,0,0-1.89,0-1.89,1.9.94,3.79.94,3.79,1.89m-7.57,2.84c0,1-3.79,0-3.79,0,1.89,0,3.79-1.89,0-1.89a5.55,5.55,0,0,1,4.73-1.9c-3.78,1.9,1.9,1.9-.94,3.79m.94,1c0-1,1.9-1,1-1,1.89,0,3.79,1.89,6.63,1,0,1.89-3.79.94-5.68,1.89,4.73-1.89.94-2.84-1.9-1.89m-28.4-6.63c-1-1,4.73-1.89,5.68,0-1.89,0-4.73.95-5.68,0m-10.41-2.84c-2.84-1-2.84,0-5.68-1,2.84-.94,10.41-1.89,13.25,0-2.84-.94-6.63,0-7.57,1M84.84,498a2,2,0,0,1-1.9,1.89c-2.84,0-.94-1.89,1.9-1.89M65,443.08c0-.95,2.84-.95,2.84-1.9,2.84,0-.94.95-2.84,1.9m-2.84,59.64c0-1,0-1.89,1-1.89h1c1.89-1.9,0,1.89-1.9,1.89m-2.84-41.66c1.9,0,5.68,2.85.95,3.79-1.89-.94,0-1.89-.95-3.79m-8.52-8.52h0c2.84-.94,3.79-3.78,6.63-3.78-1,.94-9.47,6.62-6.63,3.78m7.58,36a2.88,2.88,0,0,1-3.79,0c0-.95,1-.95,1-1.89,1.89,0,2.84.94,2.84,1.89M45.07,475.27c-.94,0-1.89-.95-3.78-.95.94-1.89,5.68-.95,4.73-2.84,3.79.95,0,2.84-1,3.79M29,383.43c-.95-.94,1.89-.94,1.89-1.89,2.84,0,2.84,1.89,2.84,2.84s-3.79,0-4.73-.95m-6.63-36c.95,1.89.95,4.73.95,7.57-2.84-1.89-.95-4.73-.95-7.57-1-1.9-1-2.84-1.89-1.9-.95,0,1.89-1.89,0-2.84,1.89,0,.94,1.9,2.84.95-.95,0-.95.95-1.9.95,1,.94,1.9.94,2.84,1.89,0,0-1.89,0-1.89.95m-1,21.77c0-2.84,1-6.63,0-10.41,1,1.89,3.79,9.46,0,10.41m1,4.73c-2.84,0,0-1.89-1-3.78,2.84,0,0,2.84,1,3.78m-1,22.73c-.94-4.74,1-6.63,0-11.36v-1.9c1-2.84-.94-5.68,1.9-8.52-.95,5.68-.95,16.1-1.9,21.78M3.42,337c.94,0,1.89,0,1.89-1,0,1.9,3.79,2.84,5.68,1.9,0,2.84-9.47,1.89-7.57-.95m4.73,35c-1,0-1-.95-1.89-.95h0l.94-.94c1.9,0,1.9.94,1,1.89M371.7,612.54c1.89,1-.95,2.84-2.84,1.9-.95-1.9,1.89-1,2.84-1.9m2.84,9.47c1.89,0,4.73,0,2.84,1h-.95c-.94,0-.94-1-1.89-1h0M384,597.4c.94-.95,2.84-.95,3.78-.95,0,.95-.94.95-.94,1.89H385c-1.89-.94,3.79-.94-.94-.94m.94,5.68h3.79c0,.94-4.73.94-3.79,0m8.52-1v1c-1.89,0-1.89.94-3.78.94.94-.94,0-1.89,3.78-1.89m-1.89-5.68c4.73-2.84,11.36,0,13.26-1.89.94,0,.94.94.94,1.89h-2.84c.95.95.95.95,0,1.89,3.79.95,2.84,4.74-1.89,4.74,0-1.9,2.84-1,2.84-2.84a4.92,4.92,0,0,0-3.79,1.89c-1.89-2.84-1.89-4.73-6.63-5.68-.94,1.89,3.79,1.89,1.9,2.84-1.9,0-2.84-.95-5.68-.95.94,0,1.89-1.89,1.89-1.89M396.31,586c0,1.89,0,2.84-2.84,1.89.95-.95-.94-1.89-.94-2.84,1.89,0,1.89.95,3.78.95m10.42,8.52c1.89-1.9,7.57-1.9,9.47,0,0,.94,0,1.89-1.9,1.89.95-1,0-1.89-.94-2.84,0,.95.94,4.73-3.79,5.68-.95-1.89-2.84-2.84-2.84-4.73.95.94,1.89.94,1.89,0s-2.84,1.89-1.89,0m10.41,12.3c.95,0,1.9.95,1.9,2.84-1,0-1.9.95-2.84.95-1.9-1.89,1.89-1.89.94-3.79-1.89,0-2.84.95-4.73,0,0-.94.95-.94.95-1.89-.95.95-.95.95-3.79.95V605h7.57c-.94.95-.94.95,0,1.89m.95-13.25c1.89,0,2.84,0,2.84.95-.95,0-2.84.94-2.84-.95m-19.88,12.31c1.89,0,1.89,0,1.89-.95-.94-1-.94.95-1.89,0,0-1,0-1-.95-1,.95-.94,1.9-.94,3.79-.94,3.79.94,0,.94,4.73.94-.94,1-.94,1.9,2.84,1.9-.94,1.89-.94.94,0,1.89h-1.89c0,1,1.89,1,2.84,1-3.79,0-9.47-1.9-11.36-2.84m3.79,9.46c-1.9,0-.95,1.9-2.84,1.9,0-.95.94-.95,0-1.9.94,1,3.78,0,4.73,1,1.89-1-.95-1-1.89-1m-4.74-.94c-2.84,0-2.84-1-5.68,0,0-1.9-2.84-1-2.84-2.84,4.73,1.89,2.84.94,6.63.94,0,1,2.84,0,1.89,1.9m-10.41-7.58c-1.9,0,0-1.89-1.9-.94,2.84-.95,6.63,0,9.47,0,0,.94-1.89.94-.95,1.89-1.89-.95-1.89,0-3.78,0,.94-.95-2.84-1.89-2.84-.95M428.5,586h0l2.84-.95c1,.95-.94.95-2.84.95Zm3.79-10.42,1.89-1.89h1.9c-.95-1,1.89-1,.94-1.9,1.9,0,0,1.9,1.9.95-.95,1-.95,1.89-2.84,1.89,0-.94,0-.94-.95-.94,0,.94,0,1.89.95,1.89,1.89,1-1.9,1-3.79,0Zm4.73-7.57c1.9,0,0,.94,0,1.89a2,2,0,0,1-1.89-1.89c-1.89.94-.95,0-2.84,0,.95-.95,4.73,1.89,4.73,0m8.53,3.78c1.89,0,2.84.95,3.78.95-3.78,1,1.9,1.89-.94,3.79,0-1.9-3.79-2.84-6.63-1.9-2.84-.94,3.79-.94,3.79-2.84m6.62-4.73c.95,1.89-2.84,1.89-4.73,1.89a5.58,5.58,0,0,1,4.73-1.89m.95,4.73h-2.84c0-.94,1-.94,2.84-.94Zm.95-1.89c2.84,0,4.73,2.84,1.89,3.79-.95.94-.95,0,0,0-.95,0-1.89,0-1.89-1H456c1-1.89-1.89-1.89-1.89-2.84m1.89-14.2h1.89c0,1-.94,1,0,1,0,.94-.94-1-2.84,0l.95-1m3.79,9.47c0,.94,0,.94-.95.94,0,1,.95,0,1.89,0a.92.92,0,0,0-.94-.94c2.84,0,1.89,1.89,1.89,2.84H458.8c0-1.9-.95-2.84.95-2.84m1.89-3.79c.95,0,2.84,1,.95,1,0,.94.94,0,1.89,0l-1,.94c-.94,0-1.89-.94-3.78-.94.94,0,1.89,0,1.89-1m3.79,12.31c-.95,0-1.9-1.9-1.9-1-1.89,0,1.9-.95,1-1.89h1.89c.95,1.89-.94,1.89-.94,2.84m4.73,1.89c.95,1.89-2.84,1-3.79,1.89-2.84,1-.94-.94-2.84-.94,1-1,3.79-1,6.63-1m0-12.31c1.89,0,1.89,1.9.95,1.9,1.89,0,1.89-1.9,5.68-1,.95,0,.95,1,.95,1.89h0c-1.9,0-1.9,1-2.85,1.9.95.94,2.85,1.89,0,3.78-.94-.94-5.68,0-5.68-1.89h1.9a.93.93,0,0,0,.94-1c.95,0,.95,1,1.9,1,.94-1-3.79-1.89-5.68-2.84,0-1.89,1.89-2.84,1.89-3.79m.95-15.14c1.89,0,.94.94,1.89.94,0,.95-1.89,1.9-4.73,1.9,0-1.9,1.89-1.9,2.84-2.84m7.57,18c2.84,0,3.79,1,3.79,1.9-2.84,0-2.84-.95-5.68,0,.94-.95.94-.95-1-.95,0,0,2.84,0,2.84-1m6.63,5.68c-.95,1.9-.95-.94-2.84,0h-1c0,.95,1,1.9,1,2.84-2.84,0-3.79,0-4.74-1.89-2.84,0-4.73,1-7.57,1a17.76,17.76,0,0,1,7.57-1.9c2.85-.94,3.79-.94,7.58-1.89-.95.95-.95,1.89,0,1.89m3.79-31.24c0,1.89-2.84,0-5.68.95,0-1.9,3.78-.95,5.68-.95m2.84,35c-1.9,0-2.84,0-3.79-1,1-.94,3.79,0,3.79,1m4.73-5.68c-.95,0-.95.95-.95,1.89-.94.95-.94,0-.94-.94-.95,0-.95,0-.95.94-.95,0-.95-.94-1.89-.94,1.89-.95,2.84,0,4.73-.95m1.89-30.3c-.94,1.9-2.84,1.9-6.62,1.9.94-1.9,3.78-2.84,6.62-1.9m2.84,30.3c1.9.95-2.84.95-.94,2.84.94,1,3.78-.95,2.84,1.89h-2.84c0-.94-1.9-2.84,0-4.73,0,0,.94.95.94,0M504.24,533c-1.89,1.89-1.89,1.89-1.89,3.78,2.84,0,.95-2.84,3.79-1.89,0-1.89-.95-.95,0-2.84,1.89,0,0,2.84,2.84,2.84.94,0,0-1.89.94-1.89s2.84.94,2.84,1.89c-2.84,0-3.78,1.89-3.78,2.84-3.79-1-3.79,1-8.52,1-1.9-1.9,3.78-3.79-.95-4.74a16.66,16.66,0,0,0,4.73-.94m-.94-1.9c0-1.89,2.84,1.9,2.84,0,1.89,0,0,1.9.94,1.9-.94,0-1.89-.95-4.73-.95a.93.93,0,0,1,.95-1h0m10.41,21.78c1.89,0,1.89,0,1.89-.95,2.84.95-2.84.95-.94,2.84-1.9,0,0-1.89-.95-1.89m.95-12.31c2.84,0-.95,1.89,1.89,1.89-2.84.95-2.84-.94-1.89-1.89m3.78,18.94c-3.78,0-1.89-3.79-1.89-5.68,1.89,0,1,2.84,1.89,5.68m1.9,6.62c-2.84,1-1-.94-2.84-.94,0-1,2.84-1,3.79-1-.95,0-.95,1-.95,1.89m4.73-6.62c-1.89-.95-1.89.94-4.73.94,0-1.89,4.73-3.78,4.73-.94m-15.15-17c0,.95-.94,1.9-2.84,1.9-1.89-1-1.89-3.79,2.84-4.74-1.89,1.9-1.89,1.9,0,2.84M509,551c-2.84,0,.94-3.79-2.84-2.84-1.9-.95,1.89-1.9.94-3.79,2.84,1.89.95,4.73,1.9,6.63m-11.36,23.66c-2.84,0-1.9-.94-.95-1.89,1.89,0,.95,1.89.95,1.89m-15.15,1.9c0-1,2.84-1,4.73-1.9,0,1,1.9,1,1.9,1-1,1-4.74,1-6.63,1m-21.78-8.52c1.9.94-.94,1.89.95,2.84-3.79,0-1.89-1.9-.95-2.84m-17,24.61c0-.94,0-.94-.94-.94s-.95.94.94.94c-5.68,0,0-2.84,4.74-1.89-.95-.95.94-1.89.94-2.84,2.84,0,3.79,1.89,2.84,3.79-1.89,0-5.68.94-8.52.94m-7.57-12.31c.94-1.89-2.84-.94-1.9-2.84,2.84,0,2.84,1,4.74,1.9-.95,0-1.9.94-2.84.94m.94,13.26c-2.84-1-2.84-1-5.68,0,1.9-1,1-1.89,4.74-1.89-.95,1.89,1.89.94.94,1.89m-5.68,20.83c-.94-1,0-1.9,1-2.84,1.89,0,2.84,1.89,3.79.94,1.89,0-1.9,1.9-4.74,1.9m117.4-89.94c1,1.89-2.84,0-1.89,1.89-1,0-1-.95-1.9-.95,0-.94.95-.94,3.79-.94m56.81-90.89c0,.95,0,.95-.95.95s-1.89,0-1.89.94c-1,0-1,.95-1.9.95,0-1.89,2.84-2.84,4.74-2.84m-9.47-154.32c0-1.89,8.52-1.89,14.2-1.89,0-.95-.95-.95-1.89-.95-.95-1.89,2.84-3.79,3.78-5.68-.94,1.89-.94,5.68,0,9.47-1.89,0-1.89-1.9-1.89-2.84-2.84,1.89-7.57,0-11.36.94-.95,1-.95,1-2.84,1m-9.47,0c0-2.84,5.68-2.84,8.52-1.89,1.89,0,1-2.84,4.74-1.9-4.74,2.84,5.68,0,5.68,1.9-7.58,0-13.26,1.89-18.94,1.89m4.73,2.84c-1.89,1.89-1.89-1.89-3.78-1.89.94-.95,1.89-.95,3.78-.95,0,.95-1.89,2.84,0,2.84M598,249.94h2.84c1,.95-1.89.95-1.89,1.89-1.9,0-1.9-1.89-.95-1.89m10.42,0c1.89,0,2.84,0,2.84,1.89h-1.9Zm3.78,12.31c-.94.95,0,3.79-.94,4.73v-2.84h0c.94,0,0-1.89.94-1.89m1.9-8.52h0c-1,.94-2.84,6.62-3.79,3.78h0c1-1.89,0-3.78,0-5.68,1.89-1.89,0,2.84,3.79,1.9m-1,29.35-1-8.52c1.9,0,1,1.89,2.84,2.84-1.89.94,0,4.73-1.89,5.68m1,7.57c0,1.89-1-.95-1-1.89,1-3.79,1,.94,1,1.89m-2.84-7.57c1.89,1.89,0,2.84,0,4.73-1-.95,0-2.84,0-4.73m7.57,26.51c-2.84,0-3.79,1.89-3.79,2.84-1.89.94-.94-.95-1.89-1.9-1,0-1,1.9-1,1.9-.94-.95,0-1.9-1.89-3.79-2.84.95-6.63,0-6.63.95-1.89,0-1.89-.95-3.78-.95.94-1.89,6.62-3.79,7.57-.95,7.57-.94,2.84-6.63,2.84-9.47,0-3.78,1-8.52,1-11.36,1.89,1.9,0,3.79.94,5.68,1,0,1-.94,1-1.89,2.84,2.84,0,8.52,1.89,11.36,0,.95-1.89.95-2.84.95v1.89c3.79.95,2.84,3.79,6.63,4.74M614.07,338v-2.84c0-2.84-1-12.31,0-5.68h0c0,3.78,1.89,10.41,0,8.52m4.73,50.18c-.95,0-.95.94-2.84.94-1-.94.95-.94.95-1.89,1.89,0,1.89,0,1.89.95Zm-4.73-1.9c1.89,1,0,4.74,2.84,3.79-.95,1.89-1.9,0-2.84.95,1.89.94,0,1.89-1,2.84-2.84-1,1-4.74-2.84-4.74,1-.94,4.73-.94,3.79-2.84m-1.9-37.87c0-2.84-.94-6.63,0-7.57h1v12.31c-1,1.89-1-2.84-1-4.74m-1.89,17a3.28,3.28,0,0,0,1.89-.94h0c1.9-.95-.94-6.63,1-8.52v12.3c-1,2.84,1,9.47-1,12.31-1.89-1.89,1-3.79-.94-5.68,0,0-1.9,1.89-1.9.95,3.79-3.79,4.74-10.42.95-10.42m6.63,38.82c-.95,0-.95-.95-1.9-.95-1.89.95,0,2.84-.94,3.79.94,0,1.89-1,1.89,0h0c-1.89,0-1,.95-2.84.95,1-2.84-1.89-4.74,0-7.58a3.27,3.27,0,0,0-1.89.95,4.91,4.91,0,0,1-1.9-3.79c3.79.95.95-.94,3.79-1.89v3.79a.93.93,0,0,0,1-.95c2.84,0,0,.95.94,2.84,1.9,0,1-1.89,2.84-1.89,0,1.89,0,3.78-.94,4.73m-2.84,18c-3.79-1.9.94-6.63-3.79-9.47h1.89c1-.95-.94-2.84,1.9-3.79,1.89.95,0,3.79-1,3.79,2.84,0,0,1,1.89,1-2.84.94,0,4.73-.94,8.52m-1,3.79h0c0-1.9,0-2.84,1-3.79.94,0,1.89,3.79-1,3.79m1,11.36h0v2.84c-2.84-4.74-1.9-6.63-1.9-12.31V426c2.84,3.78,1.9,8.52,1.9,11.36m17-89c-2.84-.94-5.68,1-9.47,1,1-2.84,8.52-2.84,9.47-1M634,307.69c.94,0-5.68,1.9-6.63,0,2.84,0,3.79.95,6.63,0m2.84-5.68c.94,0,.94,1.9,1.89,2.84-.95,0-.95-.94-1.89-.94-.95-1,.94-1,0-1.9m-.95-20.83c1.89,0,1.89,1.9,1.89,2.84-2.84,0-1.89-1.89-1.89-2.84M362.23,628.64c5.68,0-1.89,3.79,2.84,2.84a3.49,3.49,0,0,0-.94,2.84c18-2.84,36-6.63,53-12.31a8.59,8.59,0,0,0-2.84-6.63v-.94c1.9-1.9,2.84-2.84.95-5.68,3.79,0,0,3.78,5.68,2.84,1.89-1-.95-1,.95-1.9a8.07,8.07,0,0,0,8.52.95c2.84,1.89-1.9,1-.95,2.84H416.2c0,1,1.89,1,2.84,1l-1,.94h0c1.89,1,1,1.9,0,3.79,8.52-2.84,17-5.68,25.56-9.47h0a331.89,331.89,0,0,0,56.81-31.24c0-1-6.63-1.89-4.74-4.73.95,0,.95.94.95,1.89,1.89,0,1.89-1,1.89-1.89-.94,0-4.73,0-3.78-1.9a98,98,0,0,1,16.09-.94c-.95-.95-4.73-1.9-1.89-3.79,0,.95,1.89,3.79,2.84.95,1.89,0,0,1.89,0,1.89,1.89,0,1.89-1,1.89-1.89a.93.93,0,0,1,.95.94c.94-.94,1.89-1.89,2.84-1.89a.93.93,0,0,1,1-1h0c2.84-1.89,5.68-4.73,8.52-6.62,0-.95,0-2.84-1.9-2.84l1.9-1c3.78,1,.94,1.89.94,3.79,52.07-45.45,89.94-106,104.14-176.1v-.94h0c1-2.85,1-5.69,1.9-8.53-3.79-.94-7.58,1-11.36,0,4.73-.94,8.52-1.89,12.3-1.89,3.79-23.67,5.69-48.28,3.79-73.85a21,21,0,0,0-.94-7.57c-1-1.89,0-2.84-1-4.73l1,.94c0-3.78-1-7.57-1-10.41-1.9,0-1.9,0-1.9.95-.94-.95-4.73,0-3.78-1.9-3.79.95-5.68.95-9.47,1.9,0-1.9-3.79-.95-3.79-2.84h6.63c0-1.9-5.68,0-7.57,0,.94-1.9,3.78-.95,7.57-1.9,0-.94-3.79,0-1.89-.94,2.84,0,4.73,0,4.73.94a.92.92,0,0,0,.95-.94c1.89,0,1.89.94,1.89.94,1,0,1-.94,1.89-.94,0-3.79-2.84-5.68-1.89-9.47-.95,0-2.84,0-.95-1.89,1.9,0,2.84,1.89,1.9,2.84.94-.95.94,0,1.89,0,1.89-2.84-7.57-3.79-2.84-3.79-2.84,0-3.79-2.84-3.79-6.63-4.73.95-2.84-.95-6.62-1.89,1.89,0,2.84.94,3.78,0-.94-1.9-1.89-1.9-4.73-1.9,0-.94-.95-1.89-.95-2.84,2.84.95,2.84,1.9,5.68.95-.94-1.89-2.84-2.84-3.78-4.73-1.9.94,0,2.84-1,3.78a5.2,5.2,0,0,1-2.84-4.73c2.84,1,2.84,1,5.68,0,0-.95-2.84-.95-2.84-1.89-2.84,0-3.79,2.84-5.68.94h-1c1.9.95-.94,2.84,1,3.79v1h0a.92.92,0,0,0-1,.94,4.14,4.14,0,0,1-.94-2.84h-1v3.79h1c2.84,0,.94,2.84,1.89,3.79a.93.93,0,0,1-1-.95h-.94a2,2,0,0,1-1.9-1.89h.95c-.95-1.9,0-4.74-.95-6.63-.94,0-1.89-.95-2.84-.95s0,1.9,1,1.9c-1.89,1.89-2.84-1.9-3.79,0-2.84-1,3.79-2.84-1.89-2.84,2.84-.95,2.84-.95,2.84-2.84a.93.93,0,0,1-1-.95h1v-1.89h0l.95.94v-.94c1.89,0,2.84,0,2.84-.95.94.95-.95,1.89-1.9,2.84a3.47,3.47,0,0,1,1,2.84,4.15,4.15,0,0,0,2.84-1v-1.89c1,0,1.89,0,1.89-1H615c0,1,0,1-.94,1.9.94,0,.94.94,1.89.94,1.89-.94,1.89-1.89,1.89-2.84h-.94a.92.92,0,0,0,.94-.94c-.94-1.9-2.84-2.84-4.73-3.79h0l-2.84-2.84c1.89.95,3.79.95,2.84,2.84h0c1.89,0,1.89-2.84,1-2.84,7.57-2.84-1.9-7.57-6.63-3.79-2.84-.94-1.89-2.84-6.63-1.89,0,1,1,0,1.9,0,0,1-3.79,1-5.69,1,0-1,1-1,1.9-1,0-.95-2.84-.95-4.74-.95,0,.95,1.9.95,2.84,2.84-1.89-.94-3.78-.94-4.73-1.89-3.79,0-3.79,1.89-7.57,1l.94-1c-3.78,0-6.62,1-9.46,1v-1c-2.84,0-1,2.84-3.79,0h-.95c3.79,9.47,6.63,18.93,9.47,28.4h1.89v.95h-1.89A287.83,287.83,0,0,1,588.5,302v7.58c1.9-.95,4.74-.95,5.68-1.9,1,1.9,2.85-.94,4.74.95-.95,1.89-9.47,0-9.47,1.89,0,1-1,1-1.89,0,2.84,94.68-45.45,180.83-119.29,230.06h.94c0,.95-.94.95-.94,1.9-1.9,0-2.84,0-1.9.94-.94,0-1.89,0-.94-.94A270.8,270.8,0,0,1,356.55,583.2c.95,0,1.9,0,1.9.94s-3.79,0-4.74,0h-.95c0,1,0,1-.94,1.9-2.84.94-4.74-1.9-5.68,0a.93.93,0,0,1-.95-.95v-1a20.76,20.76,0,0,0-7.57,1c.94.95.94,1.89,1.89,2.84-2.84,0-1.89-1.89-1.89-2.84h-2.84A266.56,266.56,0,0,1,211.7,563.31h0a269.07,269.07,0,0,1-66.27-41.65c-1.9,0-1,0-1-.95a103.24,103.24,0,0,1-10.41-9.47c-.95,0-.95,1-1.9,1-1.89,0,1-1,0-1.89h1C110.4,488.52,91.46,462,77.26,433.61a54.8,54.8,0,0,1-6.63,3.79h0c1.9-.95,4.74-2.84,6.63-3.79A270.6,270.6,0,0,1,51.7,333.25a65.71,65.71,0,0,0-15.15,1.9c-4.73-.95-13.25-1.9-17,0,0,.94,2.84.94,1.89,2.84-1.89-.95-.94,1.89-4.73,1.89-1-1.89-1-3.79-3.79-4.73-3.78,0-3.78.94-6.62.94,0-.94.94-.94,1.89-.94-1.89-.95-4.73,0-7.57,0h0v.94C3.42,381.54,14.78,423.2,34.66,462a.92.92,0,0,0,.94-.95c4.74-1.89,6.63-4.73,11.37-7.57-3.79,2.84-8.52,5.68-12.31,8.52,8.52,16.1,17,31.24,28.4,45.45,6.63,0,12.31-.95,15.15-3.79,1.89.95,0,1.89,1.89,3.79-3.79,0-5.68.94-6.63,2.84-1.89-.95,1-1.9-1.89-2.84-3.79,0-5.68,0-8.52.94a20.63,20.63,0,0,0,3.79,4.74c0-.95,0-.95-.95-1.9,1.89,0,2.84,1,3.79,1a2.94,2.94,0,0,0-1.9.95c.95.94,1.9,0,3.79.94,5.68-2.84,14.2-.94,16.1-4.73.94,0,1.89.95,1.89,2.84-4.73.95-10.41,1.89-14.2,2.84-1.9-.95-6.63,0-8.52,1,12.31,16.09,26.51,30.29,41.65,43.55,1,0,2.84,0,3.79.94-1,0-1,.95-1.89.95.94,1,2.84,1.89,3.78,2.84.95,0,.95,0,.95,1,1.89,0,0-1.9,1-1.9,1.89,1,.94-.94,2.84-.94-1.9,1.89,1,.94,2.84,1.89,0,1-1,1-1.89,1,1.89,1.89.94,1.89,2.84,3.78-.95,0-1.9,1-2.84,1h0c6.62-1,13.25-1,19.88-1.89-.95.94,0,.94,0,.94.94-.94,4.73,0,4.73-1.89,8.52,0,21.78-2.84,26.51-1.89,1.89,0,2.84-1,1.89-1.9-1.89,0-.94,1.9-3.78,1-3.79-3.79,3.78-3.79,2.84-5.68,3.78.95,2.84,3.79,1.89,6.63,2.84.94,3.79,0,6.63,0-1,.94,0,.94-1,1.89-4.73.95-21.78,0-24.62,1.89-.94-.94-3.78,0-3.78-.94-1,.94-1,.94-3.79.94,0,1,3.79,0,1.89,1,.95-1,.95-1,3.79-1,.95,1.9-3.79,1-4.73,2.84-1,0-1-.94-1-1.89-4.73.95-12.31-1-12.31,2.84-.94,0-.94,0-1.89,1-2.84-1-7.57-2.84-9.47,0h-.94l19.88,14.2h1.89v1.89c1,0,1,.95,1.89.95v-.95h.95c0-.94,1-.94,1,0v1.9a.92.92,0,0,1,.94.94h0c1.9,0,0-1.89.95-1.89,0-.95,1.89,1,1.89-.95a3.32,3.32,0,0,1-1.89-.94c2.84-1-.95-2.84,3.79-4.74v1c-1.9,0,0,2.84-.95,2.84,2.84,0,0,1.89,1.89,2.84,1.9-.95,3.79,0,5.69-.95,0,.95-1.9,1.9-1.9,2.84a5.58,5.58,0,0,0-4.73-1.89h0a3.46,3.46,0,0,0-2.84,1c1.89.94,2.84-1,3.78,0-2.84,0-1.89.94-1.89,2.84a3.28,3.28,0,0,1,1.89.94c1.9,0,2.84-.94,3.79,0,.95-.94-1-.94-1-1.89,1.9,0,1.9,2.84,2.85.95,1.89.94-1,2.84-2.85,2.84,1,.94,1.9-.95,3.79,0,0,1.89-.94,3.78,2.84,2.84l-.94.94a319,319,0,0,0,36.92,17s-1-.94,0-.94,2.84.94.95.94c0,.95.94,0,1.89,0v.95a214.59,214.59,0,0,0,22.72,7.58c0-1.9,4.73-1,5.68-1,0,1-2.84,1-4.73,1,5.68,1.89,11.36,2.84,17,4.73a.93.93,0,0,1,1-1c.94,1,4.73,1,4.73-.94a8.5,8.5,0,0,1-4.73-1c.94-.95,4.73,1,5.68-.95.94.95,5.68,0,5.68-.94.94,0,1.89.94,2.84,1.89-1,2.84-2.84,3.79-6.63,4.73A385,385,0,0,0,310.16,640h25.56c8.52-1,16.1-1,24.62-2.84,2.84-3.79,1-6.63,1.89-8.52" transform="translate(-0.58)" fill="#b72726"/><path d="M488.15,46.39c-.95,0-1.89,0-1.89,1,.94.94,2.84,0,3.78.94-.94,0-.94-.94-1.89-1.89" transform="translate(-0.58)" fill="#b72726"/><path d="M484.36,50.18c0-1,1.9-1,.95-1.9-2.84,0-6.63,0-8.52.95,2.84-.95,5.68-.95,7.57,1-.94-1-.94,0,0,0" transform="translate(-0.58)" fill="#b72726"/><path d="M500.46,582.25c.94-1,1.89-1,1.89-1.9-1,.95-1.89.95-1.89,1.9" transform="translate(-0.58)" fill="#b72726"/><path d="M502.35,579.41c1.89,0,2.84-.95,1.89-1.9-1.89,0-1.89,1-1.89,1.9" transform="translate(-0.58)" fill="#b72726"/><path d="M491.94,49.23h0" transform="translate(-0.58)" fill="#b72726"/><path d="M612.17,249h0" transform="translate(-0.58)" fill="#b72726"/><path d="M611.23,248.05h0" transform="translate(-0.58)" fill="#b72726"/><path d="M625.43,249c2.84-2.84-.95-2.84.94-5.68-4.73-.94-.94-.94-.94-2.84,0,0,0-.94-.95,0,0,.95-1-.94-1.89,0a86.32,86.32,0,0,0,2.84,8.52" transform="translate(-0.58)" fill="#b72726"/><path d="M634.89,267a3.5,3.5,0,0,0-.94-2.84c-1,0-1.9,0-1.9.95,1.9,0,2.84,1,2.84,1.89" transform="translate(-0.58)" fill="#b72726"/><polyline points="635.27 268.88 635.27 268.88 635.27 269.82 635.27 268.88" fill="#b72726"/><path d="M634.89,263.2c-.94-2.85-.94-5.69-1.89-8.53,0,0-1,0,0,1a2,2,0,0,1-1.89-1.89c-1,3.78,0,6.62,3.78,9.47" transform="translate(-0.58)" fill="#b72726"/><path d="M628.27,250.89c0-.95-.95-1.9-2.84-1.9,0,.95.94,1.9,2.84,1.9" transform="translate(-0.58)" fill="#b72726"/><path d="M622.59,228.17c0,.94.94,0,1.89,0-1,0-1,3.78,1.89,3.78,0,1-.94,1.9-.94,2.84h2.84c0-1.89-.95-2.84-.95-4.73h-1c0-1.89-.94-.95,0-2.84h1c0-.95-1-1.89-1-2.84-2.84,1-3.78,1.89-3.78,3.79" transform="translate(-0.58)" fill="#b72726"/><path d="M632.05,248.05c-.94,0-1.89,0-1.89.94l3.79,3.79a6.1,6.1,0,0,1-1.9-4.73" transform="translate(-0.58)" fill="#b72726"/><path d="M469.21,76.69c-.94-1,1-3.79-.94-3.79.94,1.89-1.9,3.79.94,3.79" transform="translate(-0.58)" fill="#b72726"/><path d="M487.2,315.27c0-.95,1.9-.95,2.84-.95h2.84c1.9.95-3.78.95-5.68.95m13.26-.95H508c-1.89,0-7.57,1.89-7.57,0Zm2.84-33.14c.94,1.9-3.79.95-5.68.95a12,12,0,0,0,5.68-.95m-2.84-18.93h2.84c1.89,0,0-1.9.94-1.9h0c1.9-.94-1.89-2.84.95-4.73,1.89,1.89,1.89-1,1.89-1,.95,0,1.9,1.9.95,4.74-1.89,0-.95-1.9,0-1.9-2.84,0-.95,2.84-.95,4.74.95,0,.95-.95.95-1.9,1.89,0,1.89.95,1.89,1.9h0v.95c-.94,0-1.89,0-1.89-.95-.95,0-.95.95-.95,1.89h-2.84c-.94.95-2.84.95-4.73.95-.95-1.89.95-1.89.95-2.84m5.68-10.42v1.9c-3.79,0,.94-5.68,0-1.9M509,288.76h0c0,.94-1,0,0,0l-1-.95V284c1.89,1.9,1,2.84,1,4.74m.94,19.88v-1.89c0-1.9-.94-2.84,0-4.74.95.95,1.9,7.58,0,6.63m-3.78-39.76c-3.79,0,0-2.84-1.9-2.84h0c5.68,0,.95,0,1.9,2.84m0,9.46c-1.9,0-2.84,0-2.84-.94h0c1.89-.95.94,0,2.84.94Zm9.46,1.9c-1.89-19.89-11.36-36.93-21.77-50.18V232c0,1,0,1-1.89,1h0c1.89-1,0-2.84.94-2.84-8.52-9.47-18-18-26.51-23.67,10.42,9.47,19.89,20.83,24.62,34.08,0-.94.95-.94,2.84-.94,0,.94.95,1.89-.95,1.89h-.94q1.41,4.26,2.84,8.52C509,302,474,356,418.09,371.12c-12.31,2.84-23.67,4.74-35,3.79a95.72,95.72,0,0,0,67.22,5.68c47.34-14.2,70.06-54.91,65.32-100.35" transform="translate(-0.58)" fill="#b72726"/><path d="M167.2,396.69c0,.94,0,.94,1,1.89l.95-.95a3,3,0,0,0-1.9-.94" transform="translate(-0.58)" fill="#b72726"/><path d="M371.7,154.32c-3.79-.95-8.52-.95-13.25-1.89-.95,0-1.9.94-2.85.94,0,0,.95.95,0,.95h16.1" transform="translate(-0.58)" fill="#b72726"/><path d="M331,501.77c1.89-2.84,4.73,0,5.68,1-1.89.95-4.73-1-5.68-1m-7.57-2.84c0-.94,0-.94-2.84-1.89-2.84,0-1.9,1.89-5.69,1.89v.95h0v.95H313c-.95-.95,0-.95,0-1.9a232.09,232.09,0,0,0-26.51,1.9c-.94-1.9,4.74-1.9,5.68-1.9-2.84-1.89.95-1.89,3.79-2.84,1.89,1.9,4.73,1,7.57,1,0,.95-.94.95-1.89.95,3.79-.95,7.57-.95,9.47-1.9a.93.93,0,0,1-.95-.94c0-.95-1.89,0-2.84,0,0-.95,1.89-.95,3.79-1.9-.95-.94,0-1.89-.95-1.89,1.89-.95.95.95,3.79-.95,0,.95,0,1.9-.95,1.9.95.94,1.89-.95,2.84,0,0,2.84,1.89,2.84-.95,4.73h1.9c0-1,5.68-2.84,7.57-1.89,1.9,0-.94-.95.95-1.9.95.95,2.84.95,3.79,1.9-1-.95,6.62-1.9,8.52-.95-1.9,0-1.9-.95-4.74,0v.95c0,.94,2.84,0,3.79,0-2.84,2.84-10.41,0-13.25,3.78m-1.9,1.9c1.9,0,1.9,0,1.9-.95,1.89,0,0,1.89,1.89.95.95,1.89-4.73,1.89-3.79,0m-5.68,5.68c-4.73.95-5.68-.95-6.63-2.84a2.88,2.88,0,0,1,3.79,0c0,.95-.95.95-1.89.95,0,.94,3.78,0,3.78-.95,1.9,0,.95,1.89.95,2.84m-.95,2.84H313c.95-1,2.84,0,2.84-1.89,1,.94,0,.94-.95,1.89m-16.09,0h0c-2.84-1-.95-2.84-2.84-4.73,1,.94,5.68,2.84,2.84,4.73m-4.73-8.52c2.84-.95,2.84,0,3.78.94,0,0-1.89,0-1.89,1,0-1-1.89-1-1.89-1.89m-12.31-54.91a2,2,0,0,1-1.89-1.9c2.84,0,1.89-.94,3.78,0,0,1-1.89,1-1.89,1.9m-3.79-17c1.9,0,3.79-.95,2.84-1.9h1.9c0,.95-1.9,1.9-1.9,2.84s1.9,0,2.84,0c-.94.95-.94.95-.94,1.9-1.9,0-1.9-1-2.84-1s-.95,1-1.9,1c0,1.89,2.84-1,1.9.94-.95,0-1.9.95-2.85.95,1-2.84,2.85-3.79,1-4.73m1.9,42.6c-2.85,0-4.74-1.89-5.69.95-1.89,0-1.89-1.9-3.78-1.9,2.84-1.89,7.57-.94,9.47-.94v1.89m-13.26-25.56c-1.89-.95.95-1.9-.95-2.84,5.68.94,2.84-.95,7.58.94,0,1-2.84,1-1.9,1.9-3.78.94-3.78-.95-4.73,0M260,421.3c-.94-.95-.94-.95,0-1.89.95,0,1.9.94,2.84.94,0,0,0,1.9-2.84.95m.95,6.63c-.95-.95-2.84-1.89-6.63-.95,1.9-.94-.94-1.89-2.84-.94v-1.9c3.79,0,7.58,0,9.47-1.89,1.89.95-1.89,1.89-1.89,2.84a8.5,8.5,0,0,0,4.73,1c0,.94-1.89.94-2.84,1.89m3.79,25.56c-1.9,0-1-.95-2.84-1.89a.93.93,0,0,0,.94-1c1.9-.95.95,1,1.9,2.84M260,443.08c-1.89,0,2.84-4.74-2.84-3.79,1.9-1.89,1.9-3.79,5.68-3.79-.94,1.9,0,2.84,0,4.74-1.89,0-1.89,0-2.84,2.84m-1.89,4.73c-1.89-.95-1.89-2.84,1-2.84,2.84.95,1.89,1.89-1,2.84M260,451.6c-1.89.94-.94,0-2.84,0v-1c1.9,0,.95,0,2.84,1Zm-6.62-14.2c-2.84-.95-2.84-2.84-5.68-1.9v-1.89c1.89,0,1.89.95,2.84,1.89,1.89,0,.94-1.89,2.84-1.89,0,.95,0,1.89,2.84,1.89,0,.95-2.84.95-2.84,1.9M251.46,463c-2.84,0-3.78-.95-3.78-1.9.94-.94,1.89,0,3.78,0h.95c0,.95-1.89.95-.95,1.9m-8.52-20.83c0-1.89,4.74-.95,2.84-2.84h2.84c0,.95-1.89,4.73-5.68,2.84m-2.84,17c1,0,2.84,0,3.79.95-.95.94-4.73.94-3.79-.95M237.26,426c1.9.94,1-1.9,3.79-1.9,1.89,0,.95.95,1.89.95-1.89,1-5.68,0-3.78,2.84-1.9.95-1.9,0-1.9-1.89m-.94,2.84c-4.74-.95-.95.94-4.74,1.89,1.89-1.89-1-1.89-2.84-1.89-1,.94,0,.94-1.89.94s-.95-1.89,0-1.89a.93.93,0,0,1-.95-.95,3.27,3.27,0,0,0-1.89.95c-2.84-.95.94-1.89.94-3.79,1,0,1,.95,0,.95,1,1.89,2.84-.95,2.84,1.89,0,0,1.9,0,1.9.95a3.79,3.79,0,0,1,1.89-3.79c.95.95.95,2.84,4.74,1.9,1.89,0-4.74.94-3.79,1.89s4.73-.95,3.79.95m-5.69,46.39c-.94-1.9,2.84-.95,2.84-1.9.95,0,.95.95,1.9.95a10.29,10.29,0,0,0-4.74.95m-4.73-1.9c2.84,0,4.73,0,6.63-.94-.95.94-6.63,2.84-6.63.94m1.89-41.65c0-1,1-1,1-1.9,1.89,0,1.89.95,2.84,1.9-1.89-1-1.89,0-3.79,0m0,35H225.9c0-.95-1-1.9.95-1.9h.94c-.94,0,3.79,0,0,1.9M217.38,345.56c-1.89,0,0-.94,0,0v-.94c3.79-.95,3.79-3.79,8.52-4.74-2.84,1.89-6.63,2.84-8.52,5.68,0-.94-.95-.94,0,0m2.84,61.54c-.95,0-2.84-1-2.84-1.89,1,0,1-.95,1.89-.95,1.9.95,1.9,1.89.95,2.84m0,55.86h0c.95-.95.95-2.84,2.84-1.9,0,.95-.95,1.9-2.84,1.9m-10.41-60.59c0-.95,2.84-.95.94-.95h-1.89c-1-1.89,1.89-1.89-1-2.84,1.9-.95,5.68-.95,4.74-2.84.94,0,.94.95,0,.95.94,0,.94.94,1.89.94,0,.95-.95.95-2.84.95,0,.95,0,1.89-.95,1.89,2.84.95,4.74-.94,6.63,0-2.84.95-2.84,1.9-7.57,1.9m2.84,4.73c-1,0-1.9-1-2.84-1,0-.94-.95-1.89.94-1.89a.92.92,0,0,0-.94.95c1.89.94,3.78,0,2.84,1.89m-3.79,34.08H207c0-.94-2.84,0-1.9-.94h0c0-1.9,1-.95,1.9-4.74,1.89,0,4.73,0,5.68.95,1.89,1.89-2.84,2.84-3.79,4.73m-9.47-36c-1.89,0,0-1.9,0-1.9,1,0,2.84.95,2.84,1.9-2.84,0-2.84-1.9-2.84,0m-.94,10.41c-1.9,0-3.79,0-3.79-1.89,1.89,0,1.89-1,3.79-1ZM196.55,445c0-1-1.89-3.79.95-4.73,0,.94-1.9,2.84,1.89,2.84-.94.94-.94,1.89-2.84,1.89m-4.73-53h-1.9c-.94-.94,1.9-.94,1-1.89,1.89-.95,1.89.95.95,1.89m-1.9,5.68a2,2,0,0,1-1.89-1.89c1.89.95.95,0,3.79,0,.94,1.89-1.9.95-1.9,1.89m1.9-36a2.91,2.91,0,0,1,1.89-1c1.89-.95,1.89-.95.95,0A19.62,19.62,0,0,0,189,364.5a20.33,20.33,0,0,0-4.74,2.84c-1.89-1.9,4.74-3.79,7.58-5.68M167.2,377.75c-.94,0-.94.95-1.89.95-1.89,0-.95,1.89-1.89.94,3.78-2.84,8.52-5.68,13.25-8.52-1.89,2.84-6.63,4.74-9.47,6.63M187.08,338h0c-2.84.94-2.84,0-3.78,0h3.78m15.15,16.09c-.94.95-2.84,1.9-3.78,2.84-.95,0,0-.94,0-.94.94,0,.94-1,1.89-1s.95-.95,1.89-.95m5.68,42.61c-5.68,0-1.89-1.9-1.89-3.79.95-.95,4.73-.95,5.68,0,0,2.84-5.68,0-3.79,3.79m-51.12-63.44a16.25,16.25,0,0,1,9.47,0c.94-1.89,6.62.95,11.36-1.89,1.89,1.89,12.3.95,13.25.95a3.27,3.27,0,0,1-1.89-.95c.94,0,.94-.95,2.84-.95,0,.95,1.89.95.94,1.9,6.63.94,16.1-1.9,19.89.94-1,.95-1.9.95-2.84,1.9-1.9-.95.94-.95,0-2.84-2.84,0-7.58.94-9.47,0-2.84.94-1.89.94-5.68.94,0,.95,0,1.9-.95,1.9-10.41-1.9-18.93-.95-32.19-.95h-.94c0-2.84,0-.95-3.79-.95h0m18.93-40.71c2.84,0-1.89,1.9,0,1.9-1.89,1.89-.94-.95-1.89-.95-1-.95,1.89.95,1.89-.95m-.94-24.61c1.89,0,4.73-.95,5.68,0,0,.95-3.79.95-5.68,1.89v-1.89m7.57-2.84c1.89,1-.95,1.89-3.79,1.89-1.89-.94,4.74-.94,3.79-1.89m-1.89-56.81h1.89c0,1.9-3.79.95-4.73,0,0-.94.94,0,2.84,0m-2.84,65.33c0-.95.94-.95,1.89-.95h1a.92.92,0,0,0,.94.95c-1.89.95-1.89,0-3.78,0m9.46,18.93c-.94.95-7.57,0-9.46.95,0-.95,5.68-.95,9.46-.95m-2.84-80.47c-2.84,0-3.78,1-4.73-1.89h4.73Zm2.84,1.89c1.9,0,1.9,1.9.95,2.84-2.84-.94-.95-1.89-.95-2.84m9.47,54h0c-1-.95-3.79.95-2.84-.95,2.84,0,3.79,0,5.68.95,0,.95-2.84-1.89-2.84,0M186.14,267h6.62c0,.95-6.62.95-6.62,0m9.46,43.55c-.94,0,0-.94-.94-1.89,2.84.95,5.68-.95,5.68.95-1,.94-4.74,0-4.74.94m1.9,17c.95-1.89,3.79,3.79,0,3.79.95-.95,0-2.84,0-3.79M200.34,266c-2.84,0-3.79-1-6.63,0l.95-1h.94c2.85,1,1.9-.95,6.63-.95,1,.95-2.84,0-1.89,1.9m3.79-32.19c0,2.84-5.68.94-9.47.94-2.84,0,1.89,1.9-.95,1.9-1,0-2.84,0-1.89-.95h0a.93.93,0,0,0-.95-1c3.79,1,8.52,0,13.26-.94m17,31.24c0,1-1.9,1-1.9,1v-1c0-.95-1.89-.95-1.89-.95-.95.95-15.15,1.9-11.36-.94,2.84,0,11.36-.95,15.15,1.89m0-4.74c-.95.95-4.74.95-3.79-.94,1,0,1.89-1,2.84-1,.95,1-1.89,1.89.95,1.89m0-27.45c0,.95-.95.95,0,0l-1.9.95c-4.73,0-3.78,1.89-6.62,0,1.89-.95,6.62.94,8.52-.95m-3.79-78.58a3,3,0,0,1,2.84,2.84h-4.73c0-1.89,1.89-1.89,1.89-2.84M225.9,291.6c.95-1,2.84-1,5.68-1,.95,1.89-3.79,1-5.68,1m-1,.94c-1.89,0-5.68-.94-6.62,0h-1c-.95-.94,6.63-1.89,6.63-1.89.94,0,.94,1,.94,1.89M214.54,266c-3.79,0-3.79,1.89-8.52.94,0-.94,0-.94-1-.94,1.9,0,8.52-1,9.47,0Zm36.92,164.73c-.94,1.89-.94-.95-1.89-.95,1.89-.94,1.89-.94,5.68-.94-.95.94-5.68,1.89-3.79,1.89m5.68,5.68c-.94-.95-.94-1.89-1.89-2.84,2.84,0,0-.95-.95-.95.95-.94,5.68-.94,7.58-1.89.94,1.89.94,1.89,0,3.79-1.9,0-1.9-.95-4.74,0,1.9,0,1.9.94,0,1.89m-13.25-11.36s2.84,1,2.84,0h1c0,1.89,2.84,1.89,2.84,2.84-3.79.95-5.68-.95-5.68,0-1.9,0-1-1.89-1-2.84m9.47-19.88c-1.9.94-2.84.94-5.68.94-1.9,0,.94-.94-1-1.89,1.89-.95,3.79.95,6.63.95m-6.63-27.46c1-1.89,2.84-.95,6.63-.95,0-.94.94-1.89,1.89-2.84-.95,1.9,3.79,1.9,2.84,2.84h-.95c-1.89-1.89-5.68,0-5.68,1.9h-5.68c.95-.95,3.79-.95,5.68-.95,0-.95-4.73.95-4.73,0m5.68-45.44h3.79a3.33,3.33,0,0,0-1.9.94h-.94s-1.9,0-1-.94m7.57,56.8c0,.95-2.84,0-2.84,0,.95-.94-.94-1.89,2.84-1.89,1.9,0-1.89,1.89,0,1.89m1.9,16.1c-.95-.95-2.84-.95-2.84-1.9a7.23,7.23,0,0,0-4.74,1.9c-1.89-.95,0-.95-1.89-1.9-.95.95-5.68,1.9-4.73-.94,3.78.94,8.52,0,12.3-.95,3.79,0,.95,1.89,1.9,3.79m.94,1.89c1.9-1,3.79.95,3.79,0,1.89.95-3.79.95-4.73,1.89,0-.94,1.89-.94.94-1.89m0-23.67a4.12,4.12,0,0,1,2.84.95h0c-.94.95-3.78.95-2.84-.95m2.84,7.58c1.9,0-.94.94,0,1.89-1.89,0-1.89-2.84-.94-3.79h1.89l-.95,1.9c-1.89-.95-.94.94,0,0m1.9-14.21h0a2.89,2.89,0,0,1,3.78,0c-.94.95-3.78.95-3.78,0-.95.95,0,.95,0,0m0,58.7c1.89.95-.95,0-1.9,1.9-.94-.95.95-1.9-.94-3.79,4.73,0,3.78,1.89,6.62,2.84,0,.95-1.89,0-2.84.95.95-.95.95-1.9-.94-1.9m-1.9-23.67c0-1.89-2.84-.94-.94-2.84,1.89.95,2.84,2.84.94,4.74-.94-1-.94-1.9-3.78-1,0-.95,1.89-.95,3.78-.95m-8.52-5.68c.95,0,1.9-.94,2.84-.94,0,.94-.94.94-.94,1.89-1,0-1.9,0-1.9-1m1.9,1.9c0,1.89,1.89.94,2.84,2.84-1.9,0-1.9-.95-3.79,0,0-1.9-1.89-2.84,1-2.84m10.41,34.08c-.95.95-2.84,0-3.79,0,1.9-1.89,6.63-.95,6.63-2.84,1.89.95-1.89,1.89-4.73,1.89,0,.95.94.95,1.89.95m6.63-12.31c1.89.95-.95,1.9.95,2.84-2.85,0-2.85-2.84-5.69-.94h-.94c0-1-.95-1-1.9-1a13,13,0,0,0,3.79-2.84h.95a.93.93,0,0,0-.95.95c0,.94.95,0,1.89,0,0,.94-.94.94-.94,1.89,2.84,1,2.84,0,2.84-.95M278,403.31c-1-.94,0-1.89,1.9-1.89-.95.95.94.95,0,1.89-1.9,0-1.9.95-2.85,1.9l2.85,2.84c0,.94-2.85.94-2.85,1.89h-1.89C277,409,278,409,278,408.05c0,0-3.79-.95-3.79,0,0-.95-1.89,0-1.89-1.9,2.84-.94,3.79-2.84,5.68-2.84m7.58,31.25c-1.9,0-3.79-.95-2.84-1.9,2.84,0,3.78.95,2.84,1.9m.94-13.26a3,3,0,0,0-.94,1.9s-3.79-.95-3.79,0c-1.89,0,.95-.95.95-1.9,1.89.95.94,0,3.78,0m0-15.15c.95,0,1.9,0,1.9,1h1.89c0,.95-1.89,1.89,1.89,1.89,0,.95-.94,0-1.89.95h-.95a7.07,7.07,0,0,0-2.84-1.89h.95c-.95,0-1.89-.95-3.79,0,1-1.9,4.74-.95,2.84-1.9m1.9,3.79h2.84v.95c-1.9,0-2.84-.95-2.84.94.94.95-.95,0,0-1.89m2.84,14.2c.94-.94,2.84.95,3.78,1.9,0,1.89-2.84-1-2.84.94-1.89-.94,1.9-2.84-.94-2.84M295,435.5h-3.78a8,8,0,0,1,5.68-1.89c0,.95-1.9.95-1.9,1.89m5.68,54c-2.84,0-7.57,1.89-8.52-1,2.84,1,8.52,0,8.52,1m-1.89-19.88v1.89c-1.89,0-1.89-1-3.79-1,0-.94,2.84-.94,3.79-.94m-7.57-27.46c0-.95,0-1.89,1.89-1.89l.95.94a3.46,3.46,0,0,0-2.84.95m2.84-21.78c0,.95.94.95.94,1.9,1.9-1.9,9.47-.95,8.52-3.79,0,1.89,2.84,1.89,4.74,3.79.94.95-2.84.95-1.9,1.89,3.79.95,2.84,3.79,5.68,5.68-1.89.95-4.73.95-4.73,3.79,0,.95,1.89-.95,2.84,0-3.79,1.89-3.79,3.79-3.79,6.63a3.31,3.31,0,0,1-1.89-.95c0,.95-2.84.95-5.68.95.95.94,3.79.94,1.89,1.89-1.89,0-1.89-.95-2.84-1.89,1.9-.95,3.79,0,6.63-1.9,0-1.89-1.89-2.84-1.89-4.73h3.78c-1.89-.95-5.68,0-5.68,1.89-1.89,0,0-2.84,2.84-1.89-2.84-.95-1.89-2.84-6.62-3.79,0-1.89-1-1.89,0-3.78.94,0,1.89,0,1.89.94,1.89,0,1.89-1.89.95-1.89-3.79,1-3.79,0-5.68-.95-2.84,0,1.89,1.9-1.9.95h-2.84c0-.95.95-.95,0-1.9-.94,0-.94.95-1.89.95-1.89,0,.95-.95.95-1.89,1.89-2.84,2.84-1.9,5.68-1.9m3.78-13.25c.95,0,.95-1,1.9-1-.95-.94-3.79-.94-2.84-2.84,1.89,0,1.89,2.84,2.84.95.94.95.94,4.73.94,5.68-1.89,0,0-1.89-2.84-.95,3.79-.94-.94-1.89-2.84-2.84a3.31,3.31,0,0,0-1.89,1c0,.95,1.89-1,1.89.95-2.84,0-.94-1.9-2.84-1.9.95,1,6.63,0,5.68,1m9.47,9.47c0,.94-6.63,1.89-5.68-.95,2.84.95,1.89.95,5.68.95m-3.79-3.79c-.94,1-1.89,1-1.89,1.89-1.89,0,0-2.84-2.84-2.84,0-.94,2.84,0,4.73.95,2.84-.95-.94-2.84,1.9-1.89v2.84c.94,0,1.89-1,2.84-1-.95,1-1.9,1.89-1.9,2.84-1.89,0-.94-1.89-2.84-2.84m1.9-11.36c0,1.89,0,3.79,2.84,2.84.94.95-3.79,1.89-.95,1.89-3.79,1-7.57-1.89-9.47-3.78,4.74,0,4.74,0,7.58-.95m-7.58-52.07c1.9-1,1.9.95,3.79,0h-1.89c-1.9,0-1.9.95-2.84.95a.92.92,0,0,0,.94-.95m1.9-66.27c1.89,0,0,1.89.94,1.89a7.27,7.27,0,0,0-4.73,1.89h0c0-.94,0-1.89-1.89-1.89,1.89,0,4.73,0,5.68-1.89m4.73-25.57c-1,.95-6.63.95-7.57,0h7.57m2.84,2.84c-1.89.95-2.84.95-5.68.95.95,0,3.79-.95,5.68-.95m7.57,37.87c0,1.9-5.68.95-8.52.95.95-1.89,5.68-.95,8.52-.95m0-41.65c0,1.89-1.89.94-4.73.94,0-.94,1.89-.94,4.73-.94m4.74,72.9h-8.52c.94-1,7.57-1.9,8.52,0m3.79,37.87c-2.84,2.84,1.89.94,2.84,2.84-4.74-.95-8.52,0-13.26.94a.93.93,0,0,0,.95-.94c-17,.94,0-.95,6.63-.95,0-1,0-1-.95-1,0-1.89,2.84-.94,3.79-.94m-.95-140.12c-1,.95-7.58,1.89-8.52,0a13.09,13.09,0,0,0,8.52,0m1.89,9.47h1.9a.93.93,0,0,0-.95.94l-.95-.94c-3.78.94-4.73.94-7.57,1.89,0-1,2.84-1,1.89-1.89,1.9,0,4.74.94,5.68,0m9.47-9.47c2.84,0,2.84.95,0,0l-10.41.95c1.89-.95,7.57-.95,10.41-.95m-1.89-19.88h1.89c1.89,0,1.89-1,2.84-1a.93.93,0,0,1-.95,1c-1.89.94-1.89,0-3.78,0ZM348,412.78c1-1.89,7.57-1.89,6.63-3.79.94-.94,2.84.95,2.84,0,.95.95.95,1.9,2.84,2.84-2.84,0-6.63,1.9-10.42,2.84-1.89-1.89-2.84-1.89-3.78-4.73-1.9,0-1.9.95-3.79.95.95-.95,2.84-.95,4.73-1.9-2.84,1.9.95,1.9.95,3.79m1-25.56c.94,0,1.89,0,1.89-1,.95,0,1.89,1,2.84,0v1c-1.89,0-3.79.95-5.68,1.89,0,0,0-.94-.95,0a2,2,0,0,1,1.9-1.89M373.59,392c0,.95-2.84,0-4.73.95h-.95c-4.73,1-5.68,0-8.52,1H357.5c3.79-1.9,11.36-1,16.09-1.9M384,412.78c0,1-2.84,1-3.79,1.89h-1c0-.94-2.84,0-2.84-.94.95-1,5.68-1,7.58-1m3.78,0h2.84v1a14.17,14.17,0,0,0-5.68.94c-.94-1.89.95-1.89,2.84-1.89m7.58,27.46c1.89,0,1.89,2.84,1.89,0,2.84,0-1.89,1.89,0,3.78h-1.89c1.89-.94,0-1.89,0-3.78m8.52,6.62c1.89.95-.95,1.9,0,2.84-1.89-.94-4.73-.94-4.73-3.78,3.78-.95,2.84,2.84,4.73.94M402,439.29h0c-.95,2.84,0,3.79,1.89,5.68-2.84-1,0,.95-2.84.95,0-1.9-2.84-5.68.95-6.63m-37.87-23.67c-.95-1.89-5.68,1.89-7.58,0-1.89.95-3.79,1.89-2.84,3.79-.95,0-1.89.94-2.84.94,0-4.73,5.68-5.68,14.2-5.68a.92.92,0,0,0-.94.95m-2.84,3.79c-1.9,0-1.9-1-2.84-1.9h2.84v1.9m-18-1.9c-1.9,0-.95-.94-2.84-.94,0-.95.94-.95,2.84-.95Zm3.78,47.34c0,1.9-.94,0-2.84.95-.94,1.89,2.84,0,1.9,1.89-2.84.95-2.84,0-5.68,0,0-.94.94-1.89-.95-1.89,1.89-1.89,3.79-.95,7.57-.95m9.47,26.51c-.95-.95,0,.95-1.89.95.94-1.9,3.79-.95,5.68-2.84,1.89.94-.95.94,0,2.84,2.84-.95,4.73-1.9,5.68.94,1.89,0,3.79-.94,6.63-.94-1.9.94-5.68,1.89-9.47,2.84,0-.95-1.89,0-1.89-1.9-2.84,0-6.63,0-5.69,1.9-2.84,0-2.84-.95-5.68,0,.95-2.84,6.63-1.9,6.63-3.79m3.79-7.57c-1.89.94-9.47,3.78-9.47.94,2.84.95,5.68,0,9.47-.94m19.88,4.73c1.89-1.89.95,1.89,2.84,1.89,2.84-1.89,8.52,0,9.47-2.84h1.89c-.95,1.9,2.84,2.84,6.63.95-1.89,1.89-10.42,2.84-9.47,1-2.84.94-3.79,1.89-6.63,2.84-.94,0-1.89-1.9.95-.95-.95-.95-3.79.95-2.84,1.89-2.84-1.89-4.73-1.89-7.57-1.89-1.9-.95,7.57-2.84,4.73-2.84m20.83-14.2h0c0-1.89.95-1.89,2.84-1.89,0,1.89,2.84,0,2.84,1.89h-5.68m7.57,14.2c2.84,0,2.84-1.89,6.63-1.89-1.89.94,0,.94,0,2.84-3.79,0-7.57-1-8.52,1.89-1,0-1-1.89-2.84-1.89.95-1.9-1.89-1.9.95-3.79h1.89c-1,1.89.95,1.89,1.89,2.84m4.74-15.15c0,.95-1.9.95-2.84,1.9-.95,0-.95-.95-.95-1.9h3.79m31.24-.94c-2.84.94-5.68,2.84-9.47,2.84h-.95c0-3.79,5.69-3.79,10.42-2.84M332.88,403.31c.95,0,1.9,1.9.95,1.9,2.84-2.84-1.89-7.58,1.89-9.47,0,3.79,1.9,3.79,0,5.68,1.9,0,1.9.95,2.84,1.89h0c-3.78.95-1.89,2.84-3.78,3.79-1.9-1-4.74,0-4.74-1.89,0,.94,0,1.89-.94,1.89-1.9-1-2.84.95-3.79-1,4.73,1,5.68-.94,7.57-2.84m-8.52,3.79c-2.84,0-3.78-1.89-4.73-2.84h2.84c.95,0,.95.95.95,1.89,1.89,0,.94-1.89,1.89-1.89,3.79,0-.95,1.89-.95,2.84m-5.68,13.25c0-.94,1.9-.94,2.84-.94,0,.94,0,.94,1,.94l-1.89.95c-.95,0,0-.95-1.9-.95m-.94,0c0,.95-.95.95-.95,1.9-1.9-.95-1-1.9-4.74,0-.94-1.9,4.74-2.84,5.69-1.9M314,408.05c-2.84,0-2.84-.95-2.84-1.9,1.89,0,3.78,0,2.84,1.9m15.15-7.58h-3.79c0-1.89-2.84-.94-3.79-2.84,1.9,0,1,.95,2.84.95h.95c.95.95,3.79,0,3.79,1.89m-5.68-101.3c0,.95-2.84.95-4.74.95.95-1.9,2.84-.95,4.74-.95m-.95-41.66c0,.95-2.84,0-3.79.95-.94,0,3.79-.95,3.79-1.89h1.89c0,.94-4.73,0-1.89.94m-3.79,1.9c0-1.9,5.68-1,8.52-1-.94,1-5.68,0-8.52,1m14.2,36c-.94.95-4.73.95-5.68.95.95-.95,2.84,0,5.68-.95m-3.78-38.81c.94,0,.94-.95.94-1.9.95,0,1.9,1,2.84,1-.94,0-2.84.95-3.78.95m4.73,17c-1.89,0,0-1.89-.95-1.89a7.23,7.23,0,0,0,4.74-1.9h0c0,.95,0,1.9,1.89,1.9-1.89.94-4.73,0-5.68,1.89m-4.73,25.56c.94-.95,6.62-.95,7.57,0-.95.95-6.63.95-7.57,0m5.68,70.06c.94-1,4.73-1.89,5.68,0Zm-1.9,26.51v3.79c-.94-.95-3.78-3.79,0-3.79m0-11.36c.95.95,2.84,0,2.84.95,0,1.89-4.73.94-6.62.94-1-1.89,3.78-.94,3.78-1.89m-8.52-55.86c2.84-.95,6.63-.95,9.47-.95-2.84.95-6.63.95-9.47.95M331,349.35c1.89-1,2.84,2.84,5.68,0-.95.95-2.84,1.89-2.84,3.79-1.89,0-2.84-.95-2.84-1.9,1.89.95.95-.94,0-1.89m3.79,46.39c0-.95,0-2.84-.95-2.84-1.89,0,0,1.89-.95,2.84-2.84-.95-.94-2.84.95-3.79,2.84,0,5.68.95,6.63.95.94,1.89-2.84,0-3.79,0-1.89,0,1.89,1.89-1.89,2.84M314,372.07c0-1.89,2.84-.95,4.73-.95-.94.95-2.84.95-4.73.95m5.68,13.26c.95.94,2.84,0,3.79,0,2.84,1.89-6.63,1.89-8.53.94.95-.94,2.85,1,4.74-.94M314,396.69c-.95,0-.95.94-.95,1.89.95.95,3.79,1.89,4.74,0,1.89,1.89-1.9,1.89-5.69,1.89,0-1.89-2.84-1.89-1.89-3.78h-1.89c1.89-.95,4.73,0,5.68,0m-3.79-24.62c1.89.95-3.79.95-5.68.95.95-1.9,4.73,0,5.68-.95m6.63-53c0,.95-2.84.95-1.9,1.9-.94,0-3.78-.95-5.68,0h-1.89a.93.93,0,0,0,.95-.95h.94c3.79-.95,4.74,0,7.58-.95m-4.74-18.93c0-.95,2.84,0,3.79-.95,1,0-3.79.95-3.79,1.89h-1.89c-1-.94,4.73-.94,1.89-.94M300.69,302c.95-.95,2.84-.95,3.79-.95-1,0-1,.95-1,1.9-.94-.95-.94-.95-2.84-.95m9.47,26.51c-1.89,1-7.57,1-10.41,1s-2.84-1,0,0Zm-1,117.4c1.9,1.89,1.9,2.84,0,4.73,0,1.89,3.79,0,3.79,1.89h-1.89c-1.9,0-1.9.95-.95,1.9h0c.95.94.95.94,1.89.94v1.9h-4.73c.95-.95-.95-2.84.95-3.79h0c0-.95.94-.95.94-1.89-.94-1-1.89,0-3.78-1-.95-2.84.94-4.73,3.78-4.73m0-1.9c-1.89,0-2.84-.94-2.84-1.89,2.84,0,2.84.95,2.84,1.89m-2.84-4.73h2.84c1,.95-.94.95-.94,1.89-2.84.95-1.9-.94-1.9-1.89m0,56.8c-1.89,0-4.73,1-4.73-.94,1.89,0,1.89-.95,3.79-.95,0,.95.94.95.94,1.89m-4.73-12.3c.95-1,4.73,0,6.63-1,0,1-.95,1-1.9,1.89-.94,0-1.89-.94-4.73-.94m10.41-14.2c1.9.94-2.84,2.84-.94,3.78-.95-.94-.95-3.78-2.84-3.78,0,.94-1.9,1.89-1.9.94,1.9-.94,3.79-.94,4.74-2.84-4.74,0-2.84-2.84-.95-3.78h.95c1.89-3.79,3.78,3.78.94,3.78.95.95,3.79.95,4.74,1.9-3.79.94-3.79-1.9-4.74,0m0,13.25c-4.73,0-2.84-4.73,0-5.68.95,2.84,1.9,3.79,0,5.68m.95,5.68c0,1-1.89,0-2.84,0,1.89-1.89-1-2.84,2.84-3.79,0,1.9-3.79,2.84,0,3.79m11.36,1h-1.89c-1-1,.95-1.9.95-2.84.94.94,1.89,1.89.94,2.84m-4.73-41.66a12,12,0,0,1-5.68-.95V445c.94-1,.94-2.84,1.89-4.73,1.89-1.9,4.74,0,6.63-.95h1.89V444c-.94,0-.94,1-.94,1.9Zm5.68-36c-2.84.95-1.89,3.79-3.79,4.74-.94-.95-2.84-.95-2.84-2.84h3.79c-1-1,.95-2.84-1.89-2.84,0,1.89-2.84,1.89-3.79,2.84h-5.68c-.95-1.9,1.89-1.9,2.84-2.84h0c-.95,1.89,2.84,0,2.84.94,1.89,0,0-2.84.95-2.84,1.89,0,.94.95,1.89.95,0,0,1.89-1.89,3.79-1.89,1.89,1.89.94,2.84,1.89,3.78m7.57,45.45c-1.89,0-.94-.95-1.89-.95.95-1.89,4.73-1.89,6.63-.95-.95.95-2.84,0-2.84-.94-1.9.94-1.9,1.89-1.9,2.84m4.74,31.24c0-.95,5.68-2.84,5.68-.95-1.9-.94-1.9.95-5.68.95m-186.51-142h0c-1-.95.94-.95.94-1.89,2.84,0,0,.94-.94,1.89m-2.84-12.31c-1.9-1.89-10.42.95-8.52-1.89,1.89,1.89,4.73,0,8.52,0,.94,0,.94.94,0,1.89m-4.74,55.86h0l-.94-7.57V378.7c-1.9,0-2.84,1.89-3.79,0,1.89-.95.95-.95,0-1.9.95-.94,3.79,0,3.79-1.89-1-1-1.9-4.73,0-6.63.94,2.84,0,3.79,2.84,5.68v1h-1c0,2.84-.95,4.73,0,9.47,1.89,0,4.73,0,5.68.95-6.63.94-3.79,3.78-6.63,4.73m-1.89-3.79c-1.89,1-1.89-.94-3.79,0,1-.94,2.84-.94,1.9-2.84h.94s0,.95.95,0c0,1.9-.95,1.9,0,2.84m-4.73-29.35c4.73.95-.95,3.79,0,4.74-2.84-1,1.89-1.9,0-4.74m0-5.68c1.89,0,1.89.95,1.89,2.84-2.84,0-1.89-2.84-1.89-2.84m4.73-1.89c-.95,0-.95.95-1.89.95-.95-.95,0-1.9-.95-3.79,1.89.95,1.89,1.89,2.84,2.84Zm-1.89,8.52c3.78,1.89,1.89,4.73,3.78,7.57-6.62,0-1.89-3.78-3.78-7.57m-2.84-29.35h0c.94,1.89,2.84-1.89,1.89-2.84a5.21,5.21,0,0,1,2.84,4.73c-1.89,0-5.68,0-4.73-1.89m-1.9-1.89c1.9-.95,2.84-1.9,1.9-3.79,1.89,1,.94,1.89.94,3.79v1.89c-2.84,0-1.89-1.89-2.84-1.89m-5.68-33.14h0c-1.89,1.89,1.9,3.79,0,4.73-1.89-1.89-1.89.95-1.89.95-1,0-2.84-1.89-1-4.73,1.9,0,1,1.89,0,1.89,2.84,0,1-2.84,1-4.73-1,0-1,.94-1,1.89-1.89,0-1.89-.95-1.89-1.89h0v-1c1,0,1.89,0,1.89,1,1,0,1-1,1-1.9h2.84c.95-.94,2.84-.94,4.73-.94,0,.94-1.89.94-.94,1.89h-2.84c-2.84,1-.95,1.89-1.9,2.84M127.44,302v-1.89c3.79-.95-1,4.73,0,1.89m.95,10.42c0,1.89-1.9,1.89-3.79,1.89,1.89-.95,1.89-1.89,3.79-1.89ZM127.44,285c3.79,0,0,2.84,1.89,2.84h0c-5.68-.95-.94,0-1.89-2.84m0-9.47c1.89,0,2.84,0,2.84.95h0c-1.89.95-.95-.95-2.84-.95Zm7.57-4.73c-.94,1-2.84,1-5.68,1,0-1.9,3.79-1,5.68-1m5.68,51.12c0-.94,0-.94,1.9-.94h0c-2.84.94,2.84,3.78-2.84,3.78.94,0,.94-1.89.94-2.84m.95-8.52c2.84-.94,2.84,2.84-.95,1.9.95-.95-.94-1.9.95-1.9m4.73-74.79c0,.95-1.89.95-2.84.95h-2.84c-1.89-.95,3.79-.95,5.68-.95m-.94,161.89h0c-1,.95,0,1.9.94.95-1.89,3.79-3.78-3.79-.94-.95m97.51-74.79c.95,0,1.9.95,1.9,0,.94,1.89-3.79,3.79-7.58,3.79,2.84-1.9,6.63-1.9,5.68-3.79m-2.84-35h0c1.9,1,4.74-.95,5.68,1-1.89-1-10.41.94-5.68-1m2.84-146.74a14,14,0,0,0,5.68-.95c1.9.95,0,.95-1.89.95Zm10.42-.95h0c.94.95,3.78,0,3.78.95-.94.94-5.68,0-7.57.94,0-1.89,2.84-.94,3.79-1.89m16.09-1c.95,1.9,5.68-1.89,7.58,0,1.89-.94,3.78-1.89,2.84-3.79.94,0,1.89-.94,2.84-.94,0,4.73-5.68,5.68-14.21,5.68a.93.93,0,0,0,.95-1m2.84-4.73c1.89,0,1.89.94,2.84,1.89h-2.84a1.31,1.31,0,0,0,0-1.89m-28.4,88.05h1.89c.95.94-3.78,1.89-2.84.94s0-.94.95-.94m36.92-55.86c1.9,0,3.79-.95,5.68-1.9,0,0,0,1,.95,0,0,1-.95,1-.95,1.9-.94,0-1.89,0-1.89.94-1.89,0-2.84,0-3.79-.94Zm16.1-3.79c1.89-1-1.9-2.84,1.89-3.79,0,1,0,2.84.95,2.84,1.89,0,0-1.89.94-2.84,2.84,1,.95,2.84-.94,3.79-2.84,0-5.68-1-6.63-1-.95-.94,2.84,0,3.79,1m3.78-7.57c.95.94,3.79,2.84,0,3.78Zm7.58-1.9c0,1.9,2.84.95,3.78,2.84-1.89,0-.94-.94-2.84-.94h-.94c-.95-1-3.79,0-3.79-1.9Zm12.31,0c0,1.9,2.84,1.9,1.89,3.79h1.89c-.94.95-3.78,0-4.73,0,.95,0,.95-.95.95-1.89-.95-1-3.79-1.9-4.74,0-2.84-1.9,1-1.9,4.74-1.9M278.92,329.47H277c.94-1,.94-1,1.89,0-2.84-1-1.89.94-5.68,0v-2.84c1.89,1.89,4.73.94,5.68,2.84h0m45.44-143.91c-1.89-.94,3.79-.94,5.68-.94-1.89.94-5.68-1-5.68.94m-20.83,21.78c-1.89.94-2.84-2.84-5.68,0,.95-1,2.84-1.9,2.84-3.79,1.9,0,2.84.95,2.84,1.89-2.84-.94-1.89,1.9,0,1.9m44.5,18c5.68,1.89,15.15-1,21.78.94H346.14c-1.9,0,2.84.95,1.89-.94M367,178.93c0,.95-1,.95,0,0l-1,.95c-.95,1-2.84,0-3.79,0,.95,0,3.79,0,4.74-.95m.94-6.62c.95-.95,3.79,0,2.84,1.89-.94,0-1.89-.95-2.84-1.89Zm28.4,53-.94-1c5.68,1,7.57-5.68,13.25-6.63-4.73,1.89-6.62,5.68-10.41,7.58h7.57c-3.78-2.84,1-4.74,4.74-5.69,2.84,0,2.84,1.9,6.62,1-1.89,1.9,1.9,1.9,0,3.79,1.9,0,1.9-1.89,3.79-.95.95.95-1.89.95-2.84.95,1,1,3.79,0,1,1,0,.94,4.73-1,3.78.94-1.89,0-12.3.95-14.2-.94a54.69,54.69,0,0,1-11.36.94c-.95,0-1.89.95-2.84.95h-1.89a3.48,3.48,0,0,0,2.84-.95h-2.84c-.95,0-.95,1.9-.95,1.9-.95,0-2.84-.95,0-.95-1.89-.95-.95-.95,0-1.89-2.84,1.89-6.63-1-8.52.94-1.89,0-5.68-1.89-5.68,0-1.89,0-.95-.94-2.84-.94h21.77m-14.2,0h-3.78a3.31,3.31,0,0,0,1.89-1h.95c-.95-.95.94-.95.94,1m-6.62-45.45h0c2.84,1.9,6.62,0,6.62-1.89h5.68c-.94.94-3.78.94-5.68.94,0,.95,4.74-.94,4.74.95-1,1.9-2.84,1-6.63,1,0,.95-1,1.89-1.89,2.84,0-2.84-4.74-1.89-2.84-3.79m40.71,32.19h0c-3.79,1.89-2.84,4.73-7.58,4.73,1.9-.94,5.68-2.84,7.58-4.73M390.63,232c-.94,0-1.89-.94-1.89,0-.95-1.89,3.79-3.78,7.57-3.78-2.84.94-5.68,1.89-5.68,3.78m-15.14-1.89h-1.9c-.94-.95,1.9,0,1.9,0h0l2.84-.95h1.89c-1.89,0-3.79.95-4.73.95m-15.15,0c-.95-1.89-3.79,0-6.63-1.89l1-.95h1.89l-.95.95c1.9,0,.95-1.9,4.74-.95Zm74.79-30.3c.95,0,0,1,0,1-.95,0-.95.95-1.89.95s-.95.94-1.9.94c1-.94,2.84-1.89,3.79-2.84m4.74-2.84a19.84,19.84,0,0,0,5.68-3.78,21.18,21.18,0,0,0,4.73-2.84c1,1.89-5.68,3.78-7.57,5.68-.95,0-1.9.94-2.84.94h0m1.89-31.24h1.89c1,.95-1.89.95-1.89,1.89-.95,0-.95-1.89,0-1.89m23.67-7.57c1.89,0,0,1.89,0,1.89.94,0,1.89,0,1.89.95a2.51,2.51,0,0,1-2.84-2.84c0,.94.95.94.95,0m-33.14,284c2.84.95,0,1.89-1,2.84h0a.93.93,0,0,1-.94-1h.94c1,0-.94-.94,1-1.89m69.11-57.75v-1.89c-.94,0-.94.94,0,1.89-.94-.95-1.89-.95-1.89-1.89v-.95c-.95-2.84,5.68,2.84,1.89,2.84m1.9-9.47h0c2.84,1.89-1.9,1.89-.95,3.79-1.89,0-1.89-3.79.95-3.79M339.51,502.72c0-1.89-2.84-1.89-1.89-3.79h-1.9c0,1.9-.94.95-3.78,0,3.78,0,3.78-2.84,6.62-2.84-.94-1.89,0-2.84.95-5.68h0c0,1.9,3.79.95,1.89,2.84,1.9,0,2.84,0,1.9-.94h3.78c.95.94-2.84,0-.94,1.89-1.9-.95-1.9.95-5.68.95.94.94,1.89,1.89,1.89,2.84.95,0,.95,0,1.89-.95a2.07,2.07,0,0,1-.94,2.84c.94.95,4.73-1.89,1.89-1.89,0-.95,5.68-.95,1.89-.95,5.68-3.79,5.68,1.89,10.42-1.89,0-.95-1.9-.95.94-1.9h-.94c.94.95,1.89-.94,3.79,0,0,.95-1.9,0-1.9.95s2.84-.95,1.9.95c1.89,0,2.84,0,3.78-.95,1.9,0,1.9.95,1.9,1.89a.92.92,0,0,1-1-.94c-3.79,0-5.68,0-4.74,2.84-3.78-.95-2.84.94-5.68,1.89-2.84,0-3.78-.95-2.84-2.84-1.89.95-2.84.95-3.78,0,.94.95-3.79,1.89-3.79,3.79,0,.94,3.79,0,2.84,1.89-1.89.95-1.89-1-2.84-1-1.89,1,.95,1.9,0,2.85-1.89-.95-2.84,0-3.79.94,1,1.9,3.79-.94,5.68.95-2.84.95-3.78.95-.94,1.89-6.63,1-2.84,4.74-3.79,6.63h2.84a170.8,170.8,0,0,0,100.36-38.82v-.94h0c15.14-12.31,28.4-26.51,38.81-43.55l.95-1h0c-20.83,19.88-48.29,33.14-78.58,35-22.72.95-42.6-5.68-61.54-15.15a132.8,132.8,0,0,0,47.34,5.68,135.82,135.82,0,0,0,38.81-8.52h0c27.46-10.41,50.18-29.35,66.28-53h0c.94-.94,1.89-2.84,2.84-3.78-1.9,0-.95-1.9-3.79-2.84,1.89,0,3.79-.95,5.68-.95h0c8.52-16.1,15.15-34.08,16.1-54v-.94C512.76,374,478.68,407.1,435.13,409a88.24,88.24,0,0,1-93.73-83.31h0c-.94-10.41,1-20.83,3.79-30.3h0c5.68-18,18-32.18,33.14-42.6h.94c11.36-6.63,23.67-11.36,37.87-11.36h0c1.9-4.73,4.74-10.41,6.63-15.15-1.89,0-2.84-.94-4.73-1.89.94-.95,1.89-.95,2.84-1.89,1.89.94-.95.94,0,2.84h1.89a152.8,152.8,0,0,1,62.49-62.49c0-1,0-1-.95-1h0a.92.92,0,0,0,.95-.94h2.84c-1.9.94-1.9,1.89-1.9,2.84.95,0,.95-.95,1.9-.95v-1H491a.93.93,0,0,0,.95-.94h.94a58,58,0,0,1,11.36-4.74h-12.3a12,12,0,0,0-5.68.95c.94,1,.94,3.79-.95,1.89h.95c0-.94,0-.94-1.9-.94h0C459.75,161,437,167.57,416.2,178.93a110.63,110.63,0,0,0-42.61-5.68,3.27,3.27,0,0,1-1.89.95c-.95,0-.95,0-.95-.95a116.89,116.89,0,0,0-55.86,17.05c.95,0,2.85,0,3.79-1a.92.92,0,0,0-.94,1c15.14-1,2.84.94-4.74.94-.95,0-.95.95-1.89.95h.94c0,.95-.94.95-1.89.95A114.09,114.09,0,0,0,287.44,213a121,121,0,0,0-29.35,60.59,104.29,104.29,0,0,1,20.83-40.71c15.15-17,34.08-26.51,54.91-30.3-10.41,8.52-20.83,18-29.35,28.41h0a187.19,187.19,0,0,0-20.83,32.19h0c0,.94,0,.94-.94.94a179.66,179.66,0,0,0-16.1,67.22h18c.95,1.89-3.79,0-1.89,1.89-4.74-1.89-10.42,0-16.1-.94v14.2h0c-3.79-4.73-7.57-9.47-10.41-15.15-7.58,1.89-15.15.95-22.73.95l.95.94c-5.68-.94-7.57,5.68-13.25,6.63,4.73-1.89,6.62-5.68,10.41-7.57H224c3.78,2.84-.95,4.73-4.74,5.68-2.84,0-2.84-.95-6.62-.95,1.89-1.89-1.9-1.89,0-3.79-1.9,0-1.9,1.9-3.79.95-1-.95,1.89-.95,2.84-.95-.95-.94-3.79,0-.95-.94,0-.95-4.73.94-3.78-.95,1.89,0,12.3-.95,14.2.95a54.13,54.13,0,0,1,11.36-.95c.95,0,1.89-.95,2.84-.95h1.89a3.48,3.48,0,0,0-2.84.95h2.84c1,0,1-1.89,1-1.89.95,0,2.84.94,0,.94,1.89.95.95.95,0,1.9,2.84-1.9,6.63.94,8.52-.95,1.89,0,5.68,1.89,5.68,0,1,0,1,.95,1.89.95a3.5,3.5,0,0,1-.94-2.84h-4.74c1.9,0,3.79,0,4.74-1-3.79-6.63-6.63-14.2-9.47-21.77-3.79,0-7.57.94-9.47,0,1-.95,4.74-.95,6.63-.95,0-.95,0-.95.95-.95V303h.94c-1.89-7.58-3.78-15.15-3.78-23.67-2.84-44.5,19.88-84.26,54-106h-.95c0-.94.95-.94,2.84-.94,15.15-9.47,33.14-15.15,52.07-17v-1c1.9,0,1.9-.95,2.84-.95a140.72,140.72,0,0,0-19.88-.94v.94c-.94,0-.94,0-1.89-.94h-1.89c.94.94,1.89,1.89,2.84,1.89-3.79,0-3.79,0-6.63,1.89,0-1.89,0-3.78-2.84-2.84h0c-8.52.95-18,1.9-25.56,3.79,0,1.89.94,3.79-.95,4.73,0-2.84-.95-2.84-.95-4.73a205.53,205.53,0,0,0-22.72,6.63h0a3.49,3.49,0,0,1-2.84.94,191.13,191.13,0,0,0-38.82,20.83,179.1,179.1,0,0,1,18.94-18.93h-2.84c-.95-.95,2.84-.95,3.79-.95a119.86,119.86,0,0,1,25.56-17c-.95,0-1.9-.95-1.9,0-.94-.95-.94-1.89-2.84-2.84,2.84,0,6.63-1.89,10.42-2.84.95.95,1.89.95,1.89,1.89,1.9-.94,3.79-1.89,5.68-1.89H284.6v-1.89c1.89,0,.95.94,2.84.94h0c9.47-3.79,19.88-7.57,31.24-9.47-.94-.94-.94-1.89-2.84-2.84,1.9-.94,4.74-.94,4.74-3.78,0-1-1.9.94-2.84,0,2.84-1.9,3.78-3.79,3.78-5.68H302.59c-104.14,5.68-188.41,100.35-182.72,210.17v2.84c4.73-1.89,12.3-.94,17-.94,0,.94-2.84.94,0,.94-3.79,1.9-11.36.95-17,.95,1.89,21.78,6.62,43.55,15.14,62.49v-.95c1,0,1,.95,1.9,0,2.84-1.89.94-2.84,4.73-4.73h0c-.95,0-.95,0-.95.94,2.84-1.89,3.79-3.78,8.52-4.73-.94-1.89-.94-1-.94-3.79,3.78,0-1-.95,1.89-.95,0,.95,2.84,0,1.89.95-3.78,1.9-.94,5.68-7.57,6.63-.95.95,1,.95,1.89,1.89-2.84,0-3.78,2.84-.94,2.84h0a.93.93,0,0,0-1,.95h-2.84c2.84-1.89,1-2.84,1.89-4.73-.94,0-.94.94-1.89.94v3.79c-.95,0-1.89-.95-1.89,0h-.95c-1,0-1,.95-1.89.95,0-.95.94-.95,1.89-.95-1,0-1.89.95-2.84.95,14.2,34.08,37.87,62.48,68.17,83.31H206a.93.93,0,0,0-1,.95c10.42,7.57,22.72,14.2,35,19.88-42.6-24.62-73.84-67.22-81.42-118.35a30.14,30.14,0,0,0-5.68,3.79c.95-1.89,2.84-2.84,5.68-4.73-.94-4.74-.94-9.47-1.89-14.2V348.4c1,16.1,4.73,32.19,9.47,46.39h0a2.51,2.51,0,0,1,2.84,2.84c-.95,0-.95,0-1.9.95h-.94c10.41,27.46,26.5,51.12,48.28,70.06v-.95c1.89,0,1-.94,2.84-.94h1c4.73-.95,5.68.94,7.57,1.89h0c1.89,1.89,1.89,0,3.79.95-3.79,1.89-6.63,4.73-6.63,6.62,8.52,6.63,18,13.26,27.46,18a12,12,0,0,0,5.68-.95c-.95.95-2.84.95-4.74.95,25.57,13.26,55.86,20.83,87.1,18.94,0-2.84-3.78-7.58.95-10.42" transform="translate(-0.58)" fill="#b72726"/><path d="M303.53,426c0,.94-1.89.94-.94,1.89.94,0,.94.95,1.89,0,0,0,.95-1.89-1-1.89" transform="translate(-0.58)" fill="#b72726"/><path d="M330,130.65c0-1,1.9-1,.95-1.89-.95,0-.95-.95-1.89,0,0,.94-1,1.89.94,1.89" transform="translate(-0.58)" fill="#b72726"/><path d="M329.1,119.29h0" transform="translate(-0.58)" fill="#b72726"/><path d="M249.57,304.85c-.95,0-.95-.94,0,0l-1.89-.94c-1,.94,0,.94,1.89.94" transform="translate(-0.58)" fill="#b72726"/><path d="M280.81,146.75a3.32,3.32,0,0,0-1.89.94,2.94,2.94,0,0,1,1.89-.94" transform="translate(-0.58)" fill="#b72726"/><path d="M343.3,503.67c1.89-.95,0-1.9-2.84-1.9.94,1,.94,1.9,2.84,1.9" transform="translate(-0.58)" fill="#b72726"/><path d="M361.29,128.76h0v-1.9c0-.94-1,0-1.9,0,0-.94.95-.94.95-1.89-1.89,0-2.84,0-1.89,1-1.9-1,.94-1.9-.95-2.84,2.84,0,2.84,2.84,5.68.94h.95c0,1,.94,1,1.89,1-2.84,1.89-2.84,2.84-4.73,3.79M350.87,124c-2.84,0-2.84-.94-2.84-1.89,2.84,0,4.73,1,2.84,1.89m-14.2-.94c0-1,1.89-1,1.89-1.9h3.79c-1,1.9-3.79,1.9-5.68,1.9m56.8,10.41h0c-.94,0-.94-1,0,0a7.29,7.29,0,0,0-2.84-1h0s-2.84-.94-2.84,0h-.94c0-1.89-1.9-1.89-2.84-2.84-.95,0-1.9-.94-3.79-.94h-1c-1.89-.95-4.73-.95-6.62-1.9h-.95v-.94c-11.36-2.84-23.67-5.68-36-6.63-1.89.95-3.78,0-5.68.95,0,1.89,1.9,2.84,1.9,4.73h-3.79c1.89,1,5.68,0,5.68-1.89,1.89,0,0,2.84-2.84,1.89,1.89,1,1.89,2.84,6.63,3.79h14.2c.94-.95.94-.95,1.89-.95,0-1-1.89,0-2.84,0,.95-1,.95-1,.95-1.89,1.89,0,1.89.94,2.84.94s.94-.94,1.89-.94c0-1.9-2.84.94-1.89-1,.94,0,1.89-1,2.84-1,.94,1.9-.95,2.84,0,4.74-1.9,0-2.84,0-2.84.94,5.68,0,12.31,0,18,1,0-1,1.89-1,1.89-1.89.95.94,2.84,1.89,6.63.94-1.9,1,.94,1.9,2.84,1v.95c11.36,2.84,22.72,5.68,33.13,11.36-8.52-2.84-16.09-6.63-23.67-9.47" transform="translate(-0.58)" fill="#b72726"/></svg>
