<?xml version="1.0" standalone="no"?>
<!DOCTYPE svg PUBLIC "-//W3C//DTD SVG 20010904//EN"
 "http://www.w3.org/TR/2001/REC-SVG-20010904/DTD/svg10.dtd">
<svg version="1.0" xmlns="http://www.w3.org/2000/svg"
 width="160.000000pt" height="160.000000pt" viewBox="0 0 160.000000 160.000000"
 preserveAspectRatio="xMidYMid meet">
<metadata>
Created by potrace 1.11, written by Peter Selinger 2001-2013
</metadata>
<g transform="translate(0.000000,160.000000) scale(0.100000,-0.100000)"
fill="#000000" stroke="none">
<path d="M1567 1213 c-8 -8 -26 -11 -74 -15 -36 -2 -33 6 -58 -153 -29 -186
-31 -200 -31 -235 1 -33 3 -35 38 -38 l37 -3 25 83 c80 270 97 342 83 355 -7
7 -16 10 -20 6z"/>
<path d="M224 1201 c-117 -28 -227 -135 -219 -211 1 -14 3 -33 4 -42 1 -20 45
-45 76 -44 18 1 20 7 17 51 -4 56 16 113 50 145 23 21 44 27 33 10 -4 -6 -9
-23 -11 -38 -6 -32 -47 -222 -75 -346 -33 -145 -35 -138 41 -138 l65 -1 17 69
c10 38 19 83 22 99 3 17 10 54 16 83 l12 52 48 0 47 0 -9 -47 c-14 -74 -17
-85 -31 -139 -7 -27 -13 -65 -13 -83 l1 -33 62 -2 c58 -1 63 1 68 23 5 20 46
212 61 286 5 26 13 61 19 83 16 63 43 217 39 224 -3 5 -33 7 -67 6 l-61 -3
-25 -117 -26 -118 -47 0 c-43 0 -46 2 -43 23 3 12 13 64 23 115 11 50 17 94
14 97 -7 7 -70 5 -108 -4z"/>
<path d="M986 1032 c-4 -8 -16 -56 -23 -92 -2 -14 -7 -28 -11 -32 -12 -12 -72
-21 -73 -12 -3 36 -24 90 -40 99 -51 32 -148 20 -196 -26 -36 -33 -81 -105
-89 -141 -13 -61 -16 -75 -17 -108 -4 -132 150 -182 259 -84 25 24 64 87 64
105 0 8 5 30 10 50 8 30 16 38 40 41 17 3 30 4 30 4 0 -1 -7 -35 -16 -76 -9
-41 -18 -86 -20 -100 -3 -14 -8 -34 -11 -45 -3 -11 -7 -29 -9 -40 -2 -11 -6
-31 -9 -45 -16 -71 -25 -131 -20 -139 3 -5 32 -2 68 8 l62 18 13 54 c29 118
33 130 44 123 22 -14 83 -12 121 3 117 47 180 315 91 391 -25 22 -35 24 -86
19 -31 -3 -57 -2 -56 1 2 23 -8 28 -62 29 -33 1 -62 -2 -64 -5z m-207 -136
c-10 -29 -11 -41 -1 -56 23 -38 -31 -160 -72 -160 -21 0 -27 13 -27 62 -1 53
33 147 67 183 34 37 51 21 33 -29z m380 15 c20 -37 -6 -165 -42 -206 -34 -40
-74 -41 -68 -3 6 44 44 195 52 209 13 24 45 24 58 0z"/>
<path d="M1362 705 c-22 -27 -21 -80 1 -102 7 -8 28 -15 46 -18 70 -8 110 81
55 124 -36 29 -78 27 -102 -4z"/>
</g>
</svg>
