<svg xmlns="http://www.w3.org/2000/svg" width="385.11" height="353.74" viewBox="0 0 385.11 353.74"><path d="M371,207.75a38.09,38.09,0,0,1-.73,5.14c2.24-1.29,4.35-3.73,4.18-8.36A7.34,7.34,0,0,0,371,207.75Zm-.22-10.42s0,0,0,.06q.33,2.94.38,5.93A12.3,12.3,0,0,0,374.71,193,9.6,9.6,0,0,0,370.73,197.33ZM61.39,171.86c.44-1.07.82-2,1.1-2.57a3.54,3.54,0,0,0-1.6-2.54,11.06,11.06,0,0,0-.42,4.13A6.62,6.62,0,0,1,61.39,171.86Zm5.38-3.37a5.8,5.8,0,0,0-2.3,1c-.24.51-.66,1.45-1.2,2.75a6.19,6.19,0,0,1,1-.26A7.11,7.11,0,0,0,66.77,168.49Zm303.07,18.67a7.29,7.29,0,0,0-.67,1.34c.37,1.64.71,3.32,1,5,.81-.8,3.42-3.83,3-9.59a13,13,0,0,0-2.66,2.35A9.62,9.62,0,0,1,369.84,187.16Zm-8.26,1.44a15.08,15.08,0,0,0,1.52,5.56,19.25,19.25,0,0,1,6,6.05c-.11-1.68-.3-3.35-.55-5C367.74,193.64,365.42,189.79,361.58,188.6Zm7.42-3.46a10.27,10.27,0,0,0,1.57-7.62,6.14,6.14,0,0,0-3.19,4.3c.39,1.27.77,2.6,1.12,4C368.66,185.57,368.83,185.35,369,185.14ZM50.81,204.53c-.17,4.63,1.93,7.07,4.17,8.36a39.74,39.74,0,0,1-.72-5.14A7.34,7.34,0,0,0,50.81,204.53Zm10.72-1.27c2.15-3.82,2.27-6.5,2.11-7.85a16.72,16.72,0,0,0-7.64,9.7c0,.72,0,1.44.1,2.15v0A13.13,13.13,0,0,1,61.53,203.26Zm1.81,1.33c-5,1.64-6.56,4.95-6.9,5.82.13.83.28,1.66.46,2.48A11.66,11.66,0,0,0,63.34,204.59Zm-8-17.42a10.9,10.9,0,0,1-.66-.89A12.77,12.77,0,0,0,52.07,184c-.45,5.75,2.18,8.8,3,9.59.29-1.72.63-3.4,1-5A7.21,7.21,0,0,0,55.37,187.17Zm1.33-1.37c.36-1.38.74-2.71,1.13-4a6.14,6.14,0,0,0-3.19-4.3,10.36,10.36,0,0,0,1.61,7.67C56.4,185.39,56.56,185.59,56.7,185.8Zm309.53-7.53a14.32,14.32,0,0,0,.88-6.82,4.65,4.65,0,0,0-2.35,2.77C365.23,175.43,365.73,176.78,366.23,178.27ZM54.51,197.39s0,0,0-.06a9.65,9.65,0,0,0-4-4.38,12.3,12.3,0,0,0,3.63,10.37Q54.18,200.34,54.51,197.39Zm5.94-23.17a4.63,4.63,0,0,0-2.36-2.77,14.19,14.19,0,0,0,.89,6.82C59.48,176.78,60,175.43,60.45,174.22Zm-1.65,11,0,0c-.47,1.73-.91,3.54-1.3,5.41a12.84,12.84,0,0,1,4.33-3.35,21.32,21.32,0,0,0,2.67-6A13.76,13.76,0,0,0,58.8,185.22Zm-2.14,10c-.24,1.65-.43,3.31-.54,5a19.25,19.25,0,0,1,6-6.05,15.08,15.08,0,0,0,1.52-5.56C59.78,189.79,57.47,193.65,56.66,195.22Zm3.16-13.54a13.65,13.65,0,0,1,1.37-.94h0a15.19,15.19,0,0,0,4.52-7,5.32,5.32,0,0,0-3.58,1.36C61.41,176.93,60.61,179.17,59.82,181.68ZM196,112.76c0,16,1.31,25.07,6.55,25s6.77-7.66,6.77-25c0-16-1.42-24.84-6.55-24.84C197.43,87.92,196,95.5,196,112.76Zm168.72,58.12a11.21,11.21,0,0,0-.41-4.13,3.52,3.52,0,0,0-1.6,2.54c.28.62.66,1.5,1.1,2.57A7.13,7.13,0,0,1,364.73,170.88Zm40.4,14a76.08,76.08,0,0,0-60.59-74V75.65a8.47,8.47,0,0,0-8.46-8.46H308.85C292.1,50.64,262.1,31.7,212.59,31.7s-79.5,18.94-96.25,35.49H89.11a8.46,8.46,0,0,0-8.46,8.46v35.21a76.11,76.11,0,0,0-60.59,73.92l0,1V186l0,.29a76.11,76.11,0,0,0,60.59,73.81v35.21a8.47,8.47,0,0,0,8.46,8.46h27.23c16.75,16.55,46.75,35.49,96.25,35.49s79.51-18.94,96.26-35.49h27.23a8.48,8.48,0,0,0,8.46-8.46V260.13a76.12,76.12,0,0,0,60.59-73.92l0-.94C405.15,185.13,405.14,185,405.13,184.85Zm-6.25,1a69.91,69.91,0,0,1-59.53,68.85,1.25,1.25,0,0,0-1.06,1.23v39.39a2.21,2.21,0,0,1-2.21,2.21H306.76a1.21,1.21,0,0,0-.89.38C290.28,314,261.44,333,212.59,333S134.91,314,119.32,297.93a1.22,1.22,0,0,0-.9-.38H89.11a2.21,2.21,0,0,1-2.21-2.21V256a1.25,1.25,0,0,0-1.06-1.23A69.94,69.94,0,0,1,26.3,185.91a.41.41,0,0,0,0-.1v-.45a2,2,0,0,0,0-.23,69.91,69.91,0,0,1,59.54-68.86A1.25,1.25,0,0,0,86.9,115V75.65a2.21,2.21,0,0,1,2.21-2.21h29.31a1.26,1.26,0,0,0,.9-.38C134.91,57,163.75,38,212.59,38S290.28,57,305.87,73.06a1.25,1.25,0,0,0,.89.38h29.32a2.21,2.21,0,0,1,2.21,2.21V115a1.25,1.25,0,0,0,1.06,1.24,69.9,69.9,0,0,1,59.54,68.89.32.32,0,0,0,0,.11v.37C398.9,185.69,398.88,185.81,398.88,185.87Zm-147.61-68c5.46-.54,8-4.18,7.86-14.39-.22-11.22-3.39-14.93-8-14.93-1.53,0-1.64.69-1.64,3.71,0,0-.11,21.9-.11,25.07C249.41,118,251.27,117.86,251.27,117.86ZM364,180.73h0a16.41,16.41,0,0,1,1.37.94c-.79-2.51-1.59-4.75-2.32-6.64a5.32,5.32,0,0,0-3.57-1.36A15.17,15.17,0,0,0,364,180.73ZM361,172a6.19,6.19,0,0,1,1,.26c-.54-1.3-1-2.23-1.2-2.75a5.73,5.73,0,0,0-2.3-1A7.18,7.18,0,0,0,361,172Zm6.77,18.68c-.39-1.87-.83-3.68-1.3-5.41l0,0a13.93,13.93,0,0,0-5.68-4,21.32,21.32,0,0,0,2.67,6A12.94,12.94,0,0,1,367.73,190.65Zm-6.49-23.08a5.25,5.25,0,0,1,.59-1,1,1,0,0,1-.1-.24,5.88,5.88,0,0,0-1.91-3.07,7.59,7.59,0,0,0,.27,3.78A7.82,7.82,0,0,1,361.24,167.57Zm7.86,39.72v0c.05-.71.08-1.43.1-2.15a16.72,16.72,0,0,0-7.64-9.7c-.16,1.35,0,4,2.11,7.85A13.13,13.13,0,0,1,369.1,207.29ZM65.12,167a7.67,7.67,0,0,0,.27-3.77,5.92,5.92,0,0,0-1.91,3.06,1.09,1.09,0,0,1-.1.25,5.47,5.47,0,0,1,.59,1A7.78,7.78,0,0,1,65.12,167Zm303.65,43.39c-.34-.85-1.92-4.17-6.9-5.83a11.62,11.62,0,0,0,6.44,8.31C368.49,212.07,368.64,211.25,368.77,210.41Zm-32.93-90.14a2.21,2.21,0,0,1-2-2.2v-39a1.25,1.25,0,0,0-1.25-1.25H305.29a2.22,2.22,0,0,1-1.61-.69c-15-15.88-43-34.81-91.09-34.81s-76.07,18.93-91.08,34.81a2.24,2.24,0,0,1-1.61.69H92.57a1.25,1.25,0,0,0-1.25,1.25v39a2.21,2.21,0,0,1-2,2.2,65.59,65.59,0,0,0,0,130.45,2.21,2.21,0,0,1,2,2.2v39a1.25,1.25,0,0,0,1.25,1.25H119.9a2.24,2.24,0,0,1,1.61.69c15,15.88,43,34.8,91.08,34.8s76.08-18.92,91.09-34.8a2.22,2.22,0,0,1,1.61-.69h27.33a1.25,1.25,0,0,0,1.25-1.25v-39a2.21,2.21,0,0,1,2-2.2,65.59,65.59,0,0,0,0-130.45Zm-20.52-13.39a5.24,5.24,0,1,1-5.23,5.24A5.24,5.24,0,0,1,315.32,106.88ZM297.24,91.53,296,126.45H283.59l-1.2-34.92a13.2,13.2,0,0,0-1.75-5.72h18.24A13,13,0,0,0,297.24,91.53Zm.22,44.52c0,3.09-3.61,5.64-8,5.64s-8.08-2.55-8.08-5.64,3.61-5.73,8.08-5.73S297.46,132.87,297.46,136.05Zm-156.18-67c.25-.19,25.82-19.69,71.32-19.69s71.06,19.5,71.31,19.69a1,1,0,0,1-.61,1.79H258.52a3.47,3.47,0,0,1-2,.59c-1.47,0-2.65-.72-2.65-1.6s1.18-1.6,2.65-1.6a3.48,3.48,0,0,1,2.07.61h21.49c-7.51-4.78-30.93-17.48-67.45-17.48s-60,12.7-67.47,17.48h21.51a3.44,3.44,0,0,1,2.07-.61c1.46,0,2.65.72,2.65,1.6s-1.19,1.6-2.65,1.6a3.48,3.48,0,0,1-2-.59H141.89a1,1,0,0,1-.61-1.79ZM251.16,140H231.83a13,13,0,0,0,1.63-5.72V91.55a13,13,0,0,0-1.63-5.72h19.33c19.11,0,25.11,5.34,25,17.48-.11,17.49-20.53,17.57-24.68,17.57-1.09,0-2.07.16-2.07.62v12.77A13.06,13.06,0,0,0,251.16,140Zm-23.59-27.23c-.33,15.86-6.23,28.32-25,28.24-19.22-.08-24.9-12.85-25-28.24s5-27.94,25.23-27.94C222.76,84.82,227.9,96.89,227.57,112.76ZM126.45,85.83h19.33A13.38,13.38,0,0,0,144,91.55V112a21,21,0,0,0,11.58-.08V91.55A13.28,13.28,0,0,0,154,85.83H173.3a13.38,13.38,0,0,0-1.75,5.72v42.72A13.06,13.06,0,0,0,173.3,140H154a13,13,0,0,0,1.64-5.72V115.93a26.59,26.59,0,0,1-11.58,0v18.34a13.06,13.06,0,0,0,1.75,5.72H126.45a13,13,0,0,0,1.64-5.72V91.55A13.28,13.28,0,0,0,126.45,85.83Zm-16.36,21a5.24,5.24,0,1,1-5.23,5.24A5.24,5.24,0,0,1,110.09,106.88ZM93.26,223.23c-.05.28-1.37,6.9-7,10.34a13.91,13.91,0,0,1-7.39,2,23.33,23.33,0,0,1-7.53-1.4C70,233.73,38.73,223,38.73,185.47S70,137.22,71.36,136.78a23.2,23.2,0,0,1,7.52-1.39,13.9,13.9,0,0,1,7.39,2c5.62,3.44,6.94,10.07,7,10.33a14.33,14.33,0,0,1-2.2,10.35,13,13,0,0,1-8.46,5.62,10.33,10.33,0,0,1-8-1.9,11.32,11.32,0,0,1-4.41-7.32,9.32,9.32,0,0,1,7.24-10.81A7.1,7.1,0,0,1,82.93,145a7.74,7.74,0,0,1,3,5,6.4,6.4,0,0,1-.91,4.83,4.62,4.62,0,0,1-3.28,1.88,5.31,5.31,0,0,1-3.22-.71,3.26,3.26,0,0,1-1.34-1.11,2.85,2.85,0,0,1-.56-2.12,1.45,1.45,0,0,1,.61-.95c.84-.53,2.29,0,3.09,1.12a4.51,4.51,0,0,1,.29.52l.12.25.27,0a2.24,2.24,0,0,0,.45,0,1.81,1.81,0,0,0,1.34-.72,3.35,3.35,0,0,0,.37-2.48,4.81,4.81,0,0,0-1.86-3.09,4.48,4.48,0,0,0-3.42-.81A6.34,6.34,0,0,0,73,153.93a8.23,8.23,0,0,0,3.23,5.37,7.66,7.66,0,0,0,5.94,1.41,10.17,10.17,0,0,0,6.64-4.41,11.1,11.1,0,0,0,1.72-8.05c-.13-.57-1.34-5.67-5.65-8.29-3.23-2-7.5-2.08-12.66-.31-3.08,1-29.64,10.87-30.59,44a49.35,49.35,0,0,1,14-27.88l0,0A3.94,3.94,0,0,1,57,155c1.47-.45,2.91,0,3.2.95s-.65,2.12-2.13,2.57a3.26,3.26,0,0,1-2.47-.12c-4.36,4.64-18.87,22.74-9.48,49.22A45.27,45.27,0,0,0,60.42,225a26.52,26.52,0,0,1-4-7c-.34-.88-.62-1.78-.88-2.7,0,0-.08,0-.11,0-2.79-1.15-7.32-4.26-6.41-12.14a.93.93,0,0,1,.41-.68,1,1,0,0,1,.79-.11,6.94,6.94,0,0,1,.84.31,13.8,13.8,0,0,1-2.21-11.31.93.93,0,0,1,1.32-.66,11.33,11.33,0,0,1,1.13.62,16,16,0,0,1-.94-9,.91.91,0,0,1,.49-.68.94.94,0,0,1,.85,0,12.37,12.37,0,0,1,1.21.71,12.34,12.34,0,0,1,.13-6.25.94.94,0,0,1,1.11-.67,7,7,0,0,1,2.33,1.11,12.5,12.5,0,0,1,.08-6.67,1,1,0,0,1,.49-.55,1,1,0,0,1,.74,0,5.76,5.76,0,0,1,.75.35,11.32,11.32,0,0,1,1-4.56.93.93,0,0,1,1.18-.47,6.14,6.14,0,0,1,1.12.61A8.12,8.12,0,0,1,65.25,161a1,1,0,0,1,1.15.13c.17.17,1.52,1.64.76,5.39a6.51,6.51,0,0,1,.89,0,.92.92,0,0,1,.69.34.93.93,0,0,1,.21.74A10.24,10.24,0,0,1,67,171.89a1,1,0,0,1,.43.19,1,1,0,0,1,.32.81,14.29,14.29,0,0,1-2.71,6.29l.59-.1a.94.94,0,0,1,1,1.14,31.09,31.09,0,0,1-2.22,6.27.92.92,0,0,1,1,.82,14.05,14.05,0,0,1-.92,5.79,1,1,0,0,1,.52.47c.07.15,1.49,3.31-1,8.86l.14,0a.92.92,0,0,1,.8.17.93.93,0,0,1,.36.74,13.38,13.38,0,0,1-8,11.45c.24.85.51,1.69.82,2.51A24.35,24.35,0,0,0,71.28,231l.92.33c5.12,1.76,9.41,1.65,12.64-.31,4.3-2.61,5.52-7.71,5.65-8.32a11.06,11.06,0,0,0-1.72-8,10.17,10.17,0,0,0-6.64-4.41,7.67,7.67,0,0,0-5.94,1.4A8.26,8.26,0,0,0,73,217a6.33,6.33,0,0,0,4.94,7.33,4.39,4.39,0,0,0,3.42-.81,4.78,4.78,0,0,0,1.86-3.08,3.35,3.35,0,0,0-.37-2.48,1.82,1.82,0,0,0-1.33-.73,3.38,3.38,0,0,0-.45,0l-.28,0-.12.25a4.4,4.4,0,0,1-.29.51c-.8,1.13-2.25,1.66-3.09,1.12a1.41,1.41,0,0,1-.61-.94,2.83,2.83,0,0,1,.56-2.12,3.42,3.42,0,0,1,1.38-1.14,5.41,5.41,0,0,1,3.18-.69A4.58,4.58,0,0,1,85,216.14,6.39,6.39,0,0,1,86,221a7.76,7.76,0,0,1-3,5,7.1,7.1,0,0,1-5.51,1.31,9.32,9.32,0,0,1-7.24-10.81,11.32,11.32,0,0,1,4.41-7.32,10.29,10.29,0,0,1,8-1.9,12.92,12.92,0,0,1,8.46,5.62A14.3,14.3,0,0,1,93.26,223.23Zm45.07,59.66a.93.93,0,0,0-1.12,0c-.06,0-5.74,4.21-10.23,4h0l.68-.56.21-.17a1,1,0,0,0,.31-.49,1,1,0,0,0-.05-.58.87.87,0,0,0-.16-.26.93.93,0,0,0-.79-.31h-.07a36.49,36.49,0,0,1-10.49-.74,22.62,22.62,0,0,1-9.51-4.37c1.67-1.87,6.76-6.95,12.62-6.69a.85.85,0,0,0,.32,0,.93.93,0,0,0,.4-1.52,1,1,0,0,0-.25-.19l-3.64-1.89a16.47,16.47,0,0,1,6.44-4,9.61,9.61,0,0,1,3.09-.39,1.36,1.36,0,0,0,.29,0l.11-.05.16-.07,0,0a.9.9,0,0,0,.31-.41h0a.92.92,0,0,0-.29-1.06l-1.49-1.19h.63a12.28,12.28,0,0,1,1.77.21l.53.1c.19,0,.4.11.6.16a24.21,24.21,0,0,1,2.31.73,11.18,11.18,0,0,0,1.36.39,7.85,7.85,0,0,0,3.18.13A3.38,3.38,0,0,0,137,263a2.46,2.46,0,0,0,.39-.35h0a3.25,3.25,0,0,0,.35-.49s0,0,0,0a2.76,2.76,0,0,0,.27-.65l0,0a4.18,4.18,0,0,0,.14-.86h0v0a3.08,3.08,0,0,0-1-2.47l-.05,0-.28-.25-.12-.09-.3-.21-.18-.11a3.37,3.37,0,0,0-.32-.19l-.25-.11-.35-.16-.31-.11-.4-.14-.31-.08-.48-.13a18.63,18.63,0,0,0-3.52-.39s-.61,0-1.49-.07a23.65,23.65,0,0,1-3.38-.5,16.44,16.44,0,0,1-1.61-.45,9.57,9.57,0,0,1-3.22-1.66h0l2.21-.22a1,1,0,0,0,.53-.24.92.92,0,0,0,.28-.5.89.89,0,0,0-.07-.58,1,1,0,0,0-.39-.42,15.82,15.82,0,0,1-5.13-5.63,16.67,16.67,0,0,1,4.36.37,14.4,14.4,0,0,1,4.08,1.6c.31.18.61.36.9.56a.91.91,0,0,0,.9.08l.12,0,.05-.05a.92.92,0,0,0,.38-.88l-.55-3.54h0a29.75,29.75,0,0,1,15.36-.92h0l.93.24.79.21c.37.12.72.25,1.08.38.2.07.41.13.61.21.4.16.8.34,1.19.51l.43.19c.43.21.85.44,1.27.67l.27.15c.45.26.89.53,1.32.82l.16.11c.46.3.9.63,1.34,1l.08.07q.68.53,1.32,1.11l0,0,.25.23.45.41,0,0-.25.42c-.11.16-.21.33-.31.49-.3.48-.6.94-.9,1.4s-.75,1.14-1.12,1.69c-.06.1-.13.2-.2.3l-.06,0-.46-.23-.48-.22a30,30,0,0,0-3.56-1.33,13.27,13.27,0,0,0-7.89-5.18,14.89,14.89,0,0,0-4.17-.32.81.81,0,1,0,.1,1.61,12.24,12.24,0,0,1,9.14,3.15,30.86,30.86,0,0,0-10.28-.52.81.81,0,1,0,.28,1.6,30.16,30.16,0,0,1,15.17,2.24l.48.2.47.22.33.15c-.78,1.09-1.54,2.13-2.3,3.12a5.1,5.1,0,0,0-.57-.29,4.78,4.78,0,0,0-.48-.19l-.5-.15-.26-.07a8.93,8.93,0,0,0-5,.44.81.81,0,1,0,.63,1.49,7.64,7.64,0,0,1,3.56-.42l.53.1a4.13,4.13,0,0,1,.5.15,3.88,3.88,0,0,1,.56.23c-1,1.27-2,2.44-3,3.53-.48.52-1,1-1.42,1.5l-.62.61-.43,0c-12.38.64-15,5.17-15.13,5.36a.81.81,0,0,0,.31,1.1.82.82,0,0,0,1.1-.31c0-.08,2.32-3.61,12.32-4.44-6.81,6.14-12.83,8.28-17.38,8.79a1.25,1.25,0,0,0-1,1.83,1.21,1.21,0,0,0,.61.55,1.14,1.14,0,0,0,.49.12h.14l.9-.12a26.92,26.92,0,0,0,5.32-1.39,34.23,34.23,0,0,0,4.26-2,40.39,40.39,0,0,0,5.62-3.73l.6-.48c0,.18,0,.37,0,.58s0,.48-.06.75a11.84,11.84,0,0,1-2.47,5.94.81.81,0,0,0,.15,1.14.82.82,0,0,0,1.14-.15,13.12,13.12,0,0,0,2.85-8.75c0-.26,0-.49-.06-.67a.43.43,0,0,0,0-.12l.44-.39c.73-.65,1.46-1.34,2.21-2.08,1.47-1.47,3-3.12,4.51-5a10.87,10.87,0,0,1-1,7.54.8.8,0,0,0,.32,1.1.81.81,0,0,0,1.1-.33,12.51,12.51,0,0,0,.84-9.88q1.44-1.83,2.9-3.92a29.9,29.9,0,0,1,7.85,6.76l.18.23a5.52,5.52,0,0,1-.56,6.89.81.81,0,0,0,1.16,1.13,7.33,7.33,0,0,0,1.37-2.11,12.72,12.72,0,0,1-1.62,6.32.81.81,0,1,0,1.43.76c3.73-7,.69-12.29-.38-13.82l-.05-.07,0,0-.27-.36a31.73,31.73,0,0,0-8.15-7c.43-.63.85-1.27,1.28-1.93.28-.43.56-.86.84-1.31.12-.19.25-.4.37-.61h0c.3.12.86.36,1.61.73l.22.11.05,0,.52.27.31.17.45.26.47.28.39.25.61.41.32.21.45.34.43.32.08.06c.34.27.68.55,1,.85l.06.05c.31.28.61.57.91.87l.23.24c.24.25.48.5.71.77l.28.33c.21.26.42.52.62.79l.28.39c.19.27.37.56.55.85.09.14.18.27.26.41s.25.47.37.71c0,.09.09.17.14.26s.14.29.21.43c.21.46.41.94.58,1.43h0a16.39,16.39,0,0,1,.8,3.49c.62,5.21-1.08,11.17-5.08,17.78l-.79-1.45a.88.88,0,0,0-.65-.47.74.74,0,0,0-.33,0,1,1,0,0,0-.45.19,6.84,6.84,0,0,1-.57.45,12.08,12.08,0,0,1-6.64,2.31,20.44,20.44,0,0,1,.23-3.46,10,10,0,0,1,.79-2.75,4.17,4.17,0,0,1,.46-.8,1,1,0,0,0,.17-.5,1,1,0,0,0-.13-.51.92.92,0,0,0-.89-.45l-2,.2h0a22.75,22.75,0,0,1,3.38-4.52l.93-1,.07-.07c.41-.48,2.1-2.59,1.49-4.5a2.62,2.62,0,0,0-.65-1.07,4.39,4.39,0,0,0-2.21-1.1l-.29,0c-1.53-.06-4.11.91-5.06,5.05,0,.19-3.43,16-13.87,16h0l.63-1.64A.94.94,0,0,0,138.33,282.89ZM132,218.13a3.25,3.25,0,0,0,.08.45v0s0,0,0,0a5.44,5.44,0,0,0,2.24,2.79,14.13,14.13,0,0,0,14.27.06,1.36,1.36,0,0,0,.67-.91,1.38,1.38,0,0,0-.23-1.11,10.26,10.26,0,0,1-1.57-4.19,15,15,0,0,1,4.26,1.83c2.14,1.34,3.25,2.62,3.12,3.61-.22,1.69-3.67,3.3-5.31,3.81-12.72,3.89-33.23-3.66-40.42-6.78,6.09-2.59,13.76-5.58,22.68-8.5A31.37,31.37,0,0,0,132,218.13Zm3.57-4.65a9.49,9.49,0,0,0-1.21.66,27,27,0,0,1,.37-5.82c5.49-1.74,11.42-3.44,17.72-5A48.51,48.51,0,0,1,154.92,216a14.74,14.74,0,0,0-1.64-1.17A19.4,19.4,0,0,0,135.6,213.48ZM146,219.71a11.29,11.29,0,0,1-10.11-.53c-.78-.56-1.22-1.12-1.18-1.48.07-.58,1.18-1.37,1.9-1.67a17.23,17.23,0,0,1,6.53-1.31c.53,0,1,0,1.53.07A12.63,12.63,0,0,0,146,219.71Zm41.8,13.36h0l-.42.25c-4.27,2.63-11,8.45-8.49,18.29a.82.82,0,0,0,.79.61.71.71,0,0,0,.2,0,.8.8,0,0,0,.58-1c-2.62-10.37,5.94-15.74,9.39-17.44.59-.29,1-.48,1.24-.56l1.29-.1.4,0c.52-.05,1-.1,1.52-.17l.19,0c.57-.07,1.12-.15,1.66-.24h0v0c0,.08,0,.18,0,.27a.88.88,0,0,0,0,.16c0,.12,0,.24.05.36s0,.08,0,.13,0,.3.08.46v.06a28,28,0,0,0,.81,3.41h0c-3.61,10.62-10.2,15.53-14.44,17.68a20.94,20.94,0,0,1-3.27,1.35c-2.67-6.25-3-11.65-1-16a12,12,0,0,1,.55-1.07l.15-.26c.16-.25.32-.51.49-.75l.17-.24a15.65,15.65,0,0,1,1.41-1.68l.19-.19.59-.56.2-.18c.25-.22.49-.42.74-.61l0,0c.25-.2.51-.38.76-.56l.24-.16.52-.34.26-.16c.18-.12.37-.22.55-.33l.22-.12.56-.3.3-.15.3-.14.3-.14.21-.1.27-.12v.06A.92.92,0,0,0,187.84,233.07Zm4-6.9a.84.84,0,0,0,.37.09.81.81,0,0,0,.72-.43c4.59-8.76,12.28-9.47,15.58-9.33l.61,0,.54.05a4,4,0,0,1,.9.93.76.76,0,0,1,.08.11,2.91,2.91,0,0,1,.17.3c0,.07.08.14.11.22a7,7,0,0,1-.2,5h0c-.28.53-3.86,6.68-18.12,8h0l-.93.08c-.7.05-1.42.1-2.17.13h0c.31-3.6,2.27-15.64,14.13-16h0a17.94,17.94,0,0,0-12.07,9.66A.81.81,0,0,0,191.88,226.17Zm41.79-1.1a18.18,18.18,0,0,0-9.57-8.88,18,18,0,0,0-2.51-.78h0a13.08,13.08,0,0,1,8.24,3,16.65,16.65,0,0,1,4.91,8,25.63,25.63,0,0,1,1,5.06h0c-1.5-.06-2.89-.17-4.2-.33l-.22,0-1-.14-.33,0-.91-.15-.37-.07-.84-.16-.36-.07-.81-.19-.32-.07-.8-.21-.26-.07-.8-.23-.19-.06-.81-.27-.12,0-.82-.3,0,0c-.38-.14-.74-.29-1.09-.44l-.74-.35-.24-.11-.84-.43,0,0c-3.67-2-4.94-4.15-5.1-4.45h0l-.06-.23c-.07-.21-.14-.42-.19-.62s-.06-.26-.09-.4-.07-.28-.09-.41-.06-.37-.08-.55l0-.22c0-.23,0-.45,0-.67v0a4.43,4.43,0,0,1,.62-2.36s0,0,0-.05h0c.08-.13.18-.23.27-.35a4.11,4.11,0,0,1,.71-.68h0l.58-.06.54,0a16.5,16.5,0,0,1,15.61,9.31.83.83,0,0,0,.72.43.85.85,0,0,0,.38-.09A.82.82,0,0,0,233.67,225.07Zm11.61,27.14a.65.65,0,0,0,.2,0,.8.8,0,0,0,.78-.61c2.49-9.84-4.21-15.66-8.49-18.29l-.42-.25h0a1,1,0,0,0,.27-.68v-.06h0l.59.26.06,0,.57.27.1.05c.44.22.92.49,1.42.79l.2.13c.19.11.37.24.56.36l.23.16c.25.17.5.35.75.55l.09.08.66.54.26.24.5.47.27.27c.21.22.43.45.63.7a1.46,1.46,0,0,1,.16.19c.2.23.39.48.57.73l.23.33c.14.21.28.42.41.64a4.05,4.05,0,0,1,.21.35,9.66,9.66,0,0,1,.5,1,.16.16,0,0,1,0,.07c1.76,3.81,1.75,8.36,0,13.58a1.15,1.15,0,0,1-.06.17.14.14,0,0,1,0,.06q-.37,1.11-.87,2.25h0c-2.77-.84-12.87-4.82-17.71-19h0a27.5,27.5,0,0,0,1-4.88c.53.09,1.09.17,1.66.24l.19,0,1.51.16.41,0,1.29.1c.19.08.61.26,1.2.56,3.41,1.72,12,7.18,9.42,17.44A.81.81,0,0,0,245.28,252.21ZM189,273a.83.83,0,0,0,.71.41.86.86,0,0,0,.4-.11.8.8,0,0,0,.3-1.1c-4.48-7.9-2.4-13.41-1.33-15.37.11-.2.21-.36.29-.48a16,16,0,0,0,.92,1.42l.06.09c.32.43.67.89,1.08,1.36l.14.16q.26.3.54.6l.11.12c.22.23.45.47.7.71l.19.19.64.6.19.17.88.76.18.15c.26.22.54.44.83.66l.22.17,1.11.82.07.05c.36.25.75.52,1.15.78l.22.15c.43.28.87.56,1.34.84a.92.92,0,0,0,.48.14,1,1,0,0,0,.23-.05h.08c-.09,8.7-6.36,11.62-8.17,12.28l-.36-.35-.76-.75L191,277l-.58-.63-.42-.5-.51-.63-.36-.47c-.17-.22-.32-.44-.47-.66s-.21-.29-.3-.43-.33-.51-.48-.76l-.19-.32c-.21-.35-.4-.71-.57-1.06l-.12-.24c-.13-.27-.26-.54-.37-.81-.05-.12-.1-.24-.14-.36s-.19-.46-.27-.69l-.12-.37c-.08-.22-.14-.45-.21-.67l-.09-.35c-.06-.24-.12-.48-.17-.72l-.06-.27a16.67,16.67,0,0,1-.24-1.93,1.34,1.34,0,0,1,0-.2c0-.24,0-.49,0-.72v-.27c0-.22,0-.43,0-.64a2.45,2.45,0,0,1,0-.27c0-.21,0-.42,0-.63l0-.23c0-.24.07-.49.11-.73,0,0,0-.06,0-.09.1-.55.23-1.08.37-1.59l0-.15a5.58,5.58,0,0,1,.18-.58l.06-.18c.06-.18.12-.36.19-.53l.06-.16c.07-.18.15-.37.23-.55l0-.08a16.14,16.14,0,0,1,.87-1.72l0-.05.26-.44,0,0c.2-.32.38-.59.55-.83.05.14.11.28.17.44a.74.74,0,0,0-.3.23,12.11,12.11,0,0,0-2,4.89C185.74,263.09,185.93,267.56,189,273Zm11.49-8.69c-9.8-6.08-10.62-11.55-10.63-11.63a1,1,0,0,0,0-.1h0l.63-.59c.06.14.12.3.2.48a17,17,0,0,0,7.11,8.11.81.81,0,0,0,.78-1.43,15.71,15.71,0,0,1-6.65-7.94c-.11-.29-.17-.47-.17-.48s0,0,0,0a34.09,34.09,0,0,0,6.46-10.47l0,0h0c.24.59.52,1.19.82,1.79h0q.22.45.48.9h0c.16.3.34.6.52.9v0c.19.3.38.6.59.9h0a23.09,23.09,0,0,0,10.75,8.57h0c-2.37,5.86-7.61,9.25-10,10.55l-.07,0Zm2.54.75c.19-.11.39-.22.59-.35,0,.14.07.31.12.5a20.87,20.87,0,0,0,6.58,10.83.82.82,0,0,0,.52.19.79.79,0,0,0,.62-.3.8.8,0,0,0-.11-1.14,19.74,19.74,0,0,1-6.17-10.52q-.06-.31-.06-.33a.61.61,0,0,0-.07-.17l.23-.16h0c.39-.29.8-.6,1.21-.93l.11-.09c.41-.33.83-.7,1.24-1.09h0a22.69,22.69,0,0,0,2.76-3.1c.31-.42.62-.86.9-1.31l.06-.09c.34-.56.67-1.15,1-1.76l0,0v0c.31.62.64,1.22,1,1.79l0,.06c.31.49.63.95,1,1.39a22.48,22.48,0,0,0,2.72,3h0c.42.38.84.74,1.25,1.08l.11.1c.41.33.82.64,1.21.92h0l.23.17a1.15,1.15,0,0,0-.06.17s0,.12-.07.33a19.64,19.64,0,0,1-6.17,10.52.8.8,0,0,0-.11,1.14.79.79,0,0,0,.62.3.78.78,0,0,0,.52-.19,20.9,20.9,0,0,0,6.59-10.83c0-.19.08-.36.12-.5l.59.36q0,.24,0,.57l0,.22a1.24,1.24,0,0,1,0,.18c0,.15,0,.32-.08.5v0c-.5,2.77-2.39,8-9.39,13-7.55-5.35-9.15-11-9.47-13.57h0c0-.36-.06-.66-.07-.89Zm11.29-10.52h0q-.28-.58-.54-1.2v0a23,23,0,0,0,10.11-7.67h0c.22-.3.44-.6.64-.9h0c.2-.3.4-.6.59-.91h0a25.84,25.84,0,0,0,1.85-3.62h0v0a34.09,34.09,0,0,0,6.46,10.47s0,0,0,0-.06.19-.17.48a15.67,15.67,0,0,1-6.66,7.94.82.82,0,0,0,.39,1.53.78.78,0,0,0,.39-.1,17,17,0,0,0,7.12-8.11c.07-.18.14-.33.19-.48.21.21.42.4.63.59,0,0,0,0,0,0s0,0,0,.05-.7,5.47-10.63,11.63C223.08,263.58,217.3,260.49,214.35,254.58Zm10.1,11.69h.08a.87.87,0,0,0,.22.05,1,1,0,0,0,.49-.14c.45-.27.88-.55,1.31-.83l.28-.18,1-.71.16-.12c.37-.26.71-.52,1.05-.77l.31-.24.71-.57.28-.23c.28-.23.55-.47.81-.7l.3-.27.5-.47.3-.29.62-.63.25-.27.38-.42.25-.29.39-.47.24-.32.34-.44.17-.24.31-.44.09-.15c.13-.19.24-.37.35-.56l.08-.13,0-.06.28.49c1,2,3.11,7.53-1.33,15.36a.81.81,0,0,0,.31,1.1.83.83,0,0,0,.4.11.81.81,0,0,0,.7-.41c3.09-5.45,3.29-9.91,2.71-13a12.15,12.15,0,0,0-2-4.93.74.74,0,0,0-.3-.23q.1-.24.18-.45h0a16.45,16.45,0,0,1,.3,18.87l-.18.27c-.14.22-.29.44-.45.65s-.21.31-.32.46l-.45.59-.44.54-.46.54c-.19.21-.38.43-.58.64s-.29.31-.44.47c-.31.32-.63.64-1,1l-.15.15c-1.82-.66-8.08-3.58-8.17-12.28Zm-10.13-40.2,0,0c.18.18.37.38.58.57l.06,0a15.61,15.61,0,0,0,1.54,1.25l.08.06c.3.21.62.43,1,.64l0,0c.35.21.72.43,1.11.64l0,0c.39.21.8.42,1.24.62l.17.08,1.4.6h0c.49.19,1,.38,1.54.55l.21.07c.25.09.51.16.77.24q0,.21,0,.51c.06,2.3-.62,8.73-8.93,15.58a.83.83,0,0,0-.11,1.15.82.82,0,0,0,.63.29.77.77,0,0,0,.51-.19c8.38-6.9,9.52-13.42,9.54-16.39,0-.18,0-.34,0-.49l1.36.31h.05a25.44,25.44,0,0,1-1,4.84l-.12.39a21.86,21.86,0,0,1-13.49,14.28c-.52-.2-1-.4-1.5-.62h0c-.48-.22-.94-.44-1.38-.68h0a21.32,21.32,0,0,1-4.59-3.29l-.06-.06c-.29-.27-.57-.55-.83-.83l-.12-.12c-.25-.27-.49-.55-.72-.82l-.09-.12a23.17,23.17,0,0,1-2-2.86l-.12-.21c-.13-.24-.27-.48-.39-.72l-.15-.29c-.11-.21-.21-.43-.32-.65s-.09-.19-.13-.29-.2-.44-.29-.67l-.1-.24c-.25-.6-.46-1.2-.65-1.77v0c-.05-.13-.08-.25-.12-.38v0c-.08-.25-.15-.5-.21-.74v0q-.09-.36-.18-.69v-.05c-.05-.21-.09-.41-.14-.61a.29.29,0,0,0,0-.09l-.09-.45a1.55,1.55,0,0,0,0-.21s0-.07,0-.1c-.14-.77-.22-1.4-.26-1.85l1.45-.34c0,.16,0,.32,0,.5,0,3,1.15,9.49,9.53,16.4a.8.8,0,0,0,.52.19.85.85,0,0,0,.63-.29.82.82,0,0,0-.12-1.15c-8.32-6.86-9-13.3-8.92-15.59,0-.2,0-.38,0-.51l.79-.25h0c8.22-2.69,10.39-7.06,10.51-7.32a.36.36,0,0,0,0-.09c0-.12.07-.23.1-.35l.11.35,0,.09.06.1v0l.12.21v0c.06.09.12.2.2.31h0c.08.12.17.25.28.39l0,0C213.69,225.36,214,225.7,214.32,226.07Zm-37,30.46.09-.15.26.63c-.08.16-.18.34-.29.57a14.24,14.24,0,0,0-.95,10.06.8.8,0,0,0,.77.58.62.62,0,0,0,.23,0,.8.8,0,0,0,.55-1,12.55,12.55,0,0,1,.55-8.17l.19-.45h0l.24,0h.18l.17,0h0l.36-.09.07,0,.55-.17h0c.44-.14,1-.33,1.59-.58l.09,0c.3-.12.63-.27,1-.42l.1-.05,1.1-.55h0c.4-.21.81-.45,1.24-.71h0a3.09,3.09,0,0,0-.14.32l-.21.45-.17.41c-.07.16-.13.32-.19.48s-.11.28-.16.43-.13.37-.19.56-.09.26-.13.4c-.08.29-.17.59-.24.9l0,.12c-.09.36-.16.72-.23,1.09,0,.11,0,.21-.05.32-.05.28-.09.57-.12.86l0,.36c0,.3,0,.61-.06.92,0,.11,0,.21,0,.31,0,.42,0,.84,0,1.28l0,0c-1.14,3.79-5.1,5.26-6.69,5.7l0,0c-.17-.37-.32-.74-.46-1.11,0-.1-.08-.19-.11-.29-.14-.37-.27-.74-.37-1.1v0q-.15-.54-.27-1c0-.09,0-.18-.05-.26a10,10,0,0,1-.18-1v0q-.06-.5-.09-1c0-.08,0-.16,0-.24,0-.32,0-.63,0-.93v0c0-.29,0-.58,0-.86a1.64,1.64,0,0,1,0-.22c0-.28.05-.56.09-.83v0c0-.26.09-.51.14-.75,0-.07,0-.14,0-.2.05-.25.11-.5.18-.73,0,0,0,0,0-.06.06-.22.13-.43.2-.64l.07-.18c.07-.21.15-.42.23-.61a.79.79,0,0,1,0-.09c.07-.17.15-.34.22-.5l.08-.17.23-.45.1-.18.17-.31.12-.2Zm3.33,17.08c0-.15,0-.3,0-.43s0-.23,0-.33l0-.32a3.11,3.11,0,0,1,0-.32l0-.21a2.87,2.87,0,0,1,.05-.31.29.29,0,0,1,0-.09A5.62,5.62,0,0,1,181,271h0a4,4,0,0,0,.43-.28c0,.2,0,.41,0,.64a24.79,24.79,0,0,0,2.25,11.2.81.81,0,0,0,.73.46.85.85,0,0,0,.35-.08.82.82,0,0,0,.38-1.08,24.09,24.09,0,0,1-2-11.89c0-.3.05-.53.07-.72a8.86,8.86,0,0,0,.8-1h0v0c.09.35.18.7.29,1.06a.76.76,0,0,1,0,.11q.16.53.36,1.05l.06.14c.13.35.28.7.44,1.05,0,.05.05.1.07.16.17.35.34.7.54,1.06a1.09,1.09,0,0,0,.08.15c.19.36.41.73.64,1.09,0,0,.05.08.07.13.24.37.49.75.76,1.13l.07.09c.28.39.58.78.9,1.18l0,0c.34.41.69.82,1.06,1.24h0v.09c0,.09,0,.2,0,.31a1.93,1.93,0,0,1,0,.24c0,.16,0,.33,0,.51v.27c0,.21,0,.44,0,.68a1.94,1.94,0,0,0,0,.24c0,.24,0,.5.07.76,0,.06,0,.11,0,.16a7.57,7.57,0,0,1-4.13,4.77l-.08,0-.23.08-.18.06-.1,0-.19.05h-.07l-.07,0-.16,0h0c-.32-.61-.61-1.2-.88-1.78-.06-.12-.11-.24-.16-.36q-.31-.66-.57-1.29c-.07-.16-.13-.32-.19-.48-.15-.37-.28-.72-.41-1.07l-.17-.5q-.16-.49-.3-1c-.05-.16-.1-.31-.14-.46-.09-.31-.16-.61-.24-.91l-.09-.4c-.07-.31-.13-.6-.18-.89l-.06-.31q-.09-.56-.15-1.05v0c0-.35-.06-.68-.08-1a1.93,1.93,0,0,1,0-.24c0-.22,0-.43,0-.62S180.67,273.72,180.68,273.61Zm7.08,13.18.11-.08a21.65,21.65,0,0,0,.7,2.13,16.65,16.65,0,0,0,3.93,6.23.86.86,0,0,0,.56.22.82.82,0,0,0,.59-.26.81.81,0,0,0,0-1.15c-2.54-2.37-3.77-6.06-4.25-7.88-.05-.2-.1-.39-.13-.54a10.31,10.31,0,0,0,.87-1.18h0c0,.08.05.17.07.26.07.27.14.56.23.84l.12.41c.12.39.25.78.39,1.19a1.46,1.46,0,0,1,.07.19c.15.41.32.83.5,1.26l.06.16c.21.48.44,1,.68,1.48l0,.05a33,33,0,0,0,4.36,6.6h0a9.91,9.91,0,0,1-1.68,1.61h0c-.45-.33-.86-.66-1.25-1l-.3-.27-.79-.73-.32-.33c-.22-.22-.44-.45-.64-.68l-.28-.32-.56-.69-.21-.28c-.19-.25-.36-.5-.52-.75a2.43,2.43,0,0,1-.14-.2,14.88,14.88,0,0,1-1-1.84l0-.09c-.11-.25-.22-.5-.31-.74,0-.07-.05-.15-.08-.22s-.13-.37-.19-.55l-.08-.26-.12-.44c0-.09-.05-.18-.07-.27s-.05-.23-.07-.34l-.06-.3a1,1,0,0,1,0-.17,7.66,7.66,0,0,1-.11-1.08Zm8.58,6.5-.22-.33c-.3-.43-.59-.87-.85-1.3v0c-.27-.43-.51-.86-.74-1.28l-.18-.34c-.21-.4-.42-.81-.6-1.2l0-.06c-.19-.4-.36-.8-.52-1.19,0-.11-.09-.21-.13-.32-.15-.37-.28-.73-.41-1.09l0-.1c-.13-.36-.24-.71-.34-1.05l-.09-.31c-.09-.32-.18-.64-.25-.94,0-.05,0-.09,0-.14-.07-.31-.13-.6-.19-.89l-.06-.28c-.05-.28-.1-.54-.14-.8a.5.5,0,0,0,0-.12c0-.26-.06-.5-.09-.73l0-.24c0-.22,0-.43-.05-.62v-.06l.23.23.19.18a1,1,0,0,0,.26.16l0,0a1,1,0,0,0,.33.06,1,1,0,0,0,.25,0h0c0,.14,0,.31.05.48.33,2.73,2,9.11,9.69,17.13a.85.85,0,0,0,.59.25.8.8,0,0,0,.56-.23.82.82,0,0,0,0-1.15c-7.84-8.13-9.09-14.5-9.29-16.59,0-.23,0-.4,0-.53a14.32,14.32,0,0,0,8-10c1.21,3.19,3.83,7.35,9.41,11.27,0,.07,0,.14,0,.21,0,.65-.09,1.29-.16,1.9,0,0,0,.08,0,.11-1,8.95-5.06,14.25-7.23,16.49-.34.35-.63.63-.86.83h0c-.56-.45-1.09-.9-1.6-1.36l-.33-.31a34.56,34.56,0,0,1-2.7-2.73l-.29-.32C197.67,295.08,197,294.18,196.34,293.29Zm10.58,6.39.24.47a21.41,21.41,0,0,0,3,4.21.81.81,0,0,0,1.2-1.08,19,19,0,0,1-3.09-4.56,3.21,3.21,0,0,1-.14-.32.91.91,0,0,0-.11-.16l.08-.12.09-.13c.25-.37.51-.75.76-1.17l.06-.1c.27-.44.53-.89.78-1.37l0-.06a30.87,30.87,0,0,0,2.79-7.53v0c.17.75.36,1.47.57,2.15h0c.21.69.44,1.35.68,2h0c.24.63.48,1.22.74,1.79l0,0c.25.55.5,1.07.77,1.57l0,.08c.25.48.51.93.77,1.36l.07.11c.25.42.51.81.77,1.19l.06.09.09.13a.86.86,0,0,0-.1.16s-.06.13-.15.32a19.25,19.25,0,0,1-3.09,4.56.81.81,0,0,0,.06,1.14.82.82,0,0,0,.55.21.8.8,0,0,0,.6-.27,21.42,21.42,0,0,0,3-4.22l.24-.46.39.46a14.32,14.32,0,0,1-2.51,4.12l-.15.18-.36.4-.33.35-.18.19a21.37,21.37,0,0,1-2.54,2.19,19.57,19.57,0,0,1-4.74-4.89l0-.06c-.09-.14-.18-.28-.26-.42a.35.35,0,0,1-.05-.08c-.15-.24-.28-.48-.39-.69l-.05-.08-.1-.21a1.63,1.63,0,0,1-.11-.23,1,1,0,0,1-.07-.15l-.11-.24a.36.36,0,0,0,0-.09l-.11-.29C206.66,300,206.79,299.85,206.92,299.68Zm6.64-18.48v0c5.59-3.93,8.2-8.09,9.42-11.27a14.34,14.34,0,0,0,8,10c0,.12,0,.3,0,.53-.18,2.07-1.39,8.41-9.29,16.59a.82.82,0,0,0,0,1.15.81.81,0,0,0,1.15,0c7.73-8,9.36-14.4,9.69-17.13,0-.17,0-.34,0-.48h0l.24,0a.94.94,0,0,0,.62-.24l.42-.4h0c0,.22,0,.47-.06.72,0,0,0,.1,0,.15q-.09.79-.27,1.74l0,.2c-.13.64-.3,1.33-.51,2.06l-.06.22c-.22.73-.49,1.51-.81,2.32a2.44,2.44,0,0,0-.1.24c-.34.82-.73,1.67-1.19,2.54l-.14.25a28.47,28.47,0,0,1-1.64,2.68l-.17.26a33.88,33.88,0,0,1-2.17,2.76l-.22.26a38,38,0,0,1-2.76,2.79l-.28.26c-.52.46-1.06.92-1.63,1.38h0a18.31,18.31,0,0,1-1.39-1.4C218,296.59,214.07,290.76,213.56,281.2Zm15,15.51a32.46,32.46,0,0,0,4.37-6.62h0c.26-.52.49-1,.71-1.54l0-.05c.21-.49.4-1,.57-1.45h0c.17-.46.31-.91.44-1.34l.06-.18c.12-.43.24-.84.34-1.24a10.31,10.31,0,0,0,.87,1.18c0,.15-.08.34-.14.55-.47,1.81-1.69,5.49-4.25,7.87a.81.81,0,1,0,1.11,1.19,16.68,16.68,0,0,0,3.93-6.2c.31-.82.54-1.56.7-2.16l.11.08c-.05,1.28-.56,5.25-4.63,9.35l-.1.1c-.32.32-.66.63-1,.95l-.12.1c-.4.35-.83.7-1.29,1h0a9.24,9.24,0,0,1-1.68-1.61Zm7.06-15.48a.25.25,0,0,0,0-.08c0-.35.07-.68.09-1v0c0-.31,0-.59.05-.85v-.9c0-.08,0-.15,0-.23s0-.14,0-.2l0,0c.33-.36.63-.72.93-1.08l.15-.19c.29-.35.56-.71.81-1.06l.15-.21c.25-.34.48-.68.69-1l.14-.22c.21-.34.41-.67.59-1l.13-.23c.18-.33.34-.66.49-1l.12-.25c.14-.32.28-.64.4-.95a2.77,2.77,0,0,0,.1-.26c.12-.31.22-.62.32-.93,0-.08.05-.17.08-.26.09-.3.18-.6.25-.9l0-.08h0a8.72,8.72,0,0,0,.81,1c0,.19,0,.42.07.72a24.12,24.12,0,0,1-2,11.89.82.82,0,0,0,.38,1.08.85.85,0,0,0,.35.08.81.81,0,0,0,.73-.46,25,25,0,0,0,2.26-11.21c0-.23,0-.43,0-.63l.45.29h0c0,.12.08.3.12.51,0,.05,0,.09,0,.15s0,.17.05.27l0,.24c0,.09,0,.2,0,.3s0,.21,0,.32l0,.34c0,.12,0,.26,0,.4v.36c0,.16,0,.34,0,.51s0,.24,0,.36,0,.54-.07.83c0,.07,0,.14,0,.21,0,.32-.09.66-.15,1,0,.13-.05.26-.07.39s-.1.53-.16.81l-.12.48c-.06.27-.13.54-.21.82s-.1.36-.16.54-.18.58-.28.88-.13.37-.19.56-.25.66-.38,1-.14.36-.22.55c-.16.4-.35.81-.54,1.23l-.18.41c-.27.58-.56,1.17-.89,1.78h0C239.76,286.1,237.13,285.22,235.66,281.23Zm6.57-14.78a7.79,7.79,0,0,1-.55-1.32v0h0V265c0-.4,0-.79,0-1.18,0-.11,0-.22,0-.33,0-.31,0-.62-.06-.92l0-.34c0-.31-.08-.61-.13-.91,0-.09,0-.17,0-.26a19,19,0,0,0-.52-2.16l-.09-.29c-.08-.24-.15-.47-.24-.7s-.07-.21-.11-.31-.17-.43-.26-.64-.07-.17-.1-.26c-.12-.28-.25-.56-.38-.82h0l.07,0c.39.24.77.45,1.13.65l.06,0c.37.2.73.37,1.07.53l.12.06c.34.16.65.3,1,.42l.09,0c.63.25,1.17.45,1.61.59h0l.56.17h.06l.37.1h0l.18,0h.18a1,1,0,0,0,.25,0h0l.19.45a12.48,12.48,0,0,1,.54,8.17.81.81,0,0,0,.55,1,.66.66,0,0,0,.23,0,.81.81,0,0,0,.78-.58,14.23,14.23,0,0,0-1-10.06c-.1-.23-.2-.41-.28-.57l.24-.61a14.22,14.22,0,0,1,1.8,11.05.94.94,0,0,1,0,.16c-.08.36-.19.71-.3,1.08l-.21.62c-.05.15-.11.29-.17.44-.12.32-.26.64-.4,1l-.05.11h0C247,270.45,243.78,269.28,242.23,266.45ZM249.71,229l-.54-.5L248,227.45l-.58-.51-1.19-1-.6-.51-1.21-1-.63-.5c-.4-.32-.81-.62-1.22-.92l-.67-.5c-.4-.29-.81-.57-1.22-.85l-.7-.48q-.61-.41-1.23-.78c-.24-.16-.48-.32-.73-.47l-1.23-.71-.76-.43-1.23-.64c-.26-.13-.52-.27-.78-.39-.41-.2-.82-.37-1.23-.55s-.54-.25-.81-.36-.82-.31-1.24-.47l-.81-.29-.19-.07a14.15,14.15,0,0,0-5.36-2.17c.53-.05,1.08-.08,1.65-.08a25.78,25.78,0,0,1,11.48,3s.25.15.58.32l.25.13.31.19.78.46,1.25.77.73.48,1.26.86.68.48,1.27.94.63.48c.44.33.86.67,1.29,1l.57.46c.44.36.87.73,1.3,1.1l.5.42c.46.39.9.79,1.34,1.19l.42.38,1.38,1.29.31.29,1.45,1.42.19.19c.54.54,1.06,1.07,1.57,1.61h0a129.22,129.22,0,0,1,9.09,10.62l.07.09.85,1.12.13.18.69.93.17.23.54.75.21.29.4.57.22.31c.1.15.2.28.28.41l.23.33.16.23.23.35h0c-.51.49-1,1-1.49,1.52l-.39.16h0l-.39-.57-.12-.18-.2-.28-.25-.37-.19-.27-.38-.53-.19-.26-.49-.67-.19-.26c-.19-.26-.38-.52-.59-.79-.06-.09-.14-.19-.21-.28l-.66-.88-.24-.3c-.23-.31-.48-.63-.74-.95l-.26-.33-.8-1c-.1-.11-.19-.23-.29-.35l-.87-1.07-.31-.37-.93-1.11-.33-.39-1-1.13-.36-.42-1-1.14-.4-.44-1.07-1.15-.43-.46L253,232.2l-.47-.48-1.13-1.12-.5-.49Zm-.42-10.79c-5.16,0-10.73-3.18-10.83-3.24a27.77,27.77,0,0,0-12.43-3.2,20.82,20.82,0,0,0-4,.38h0c-.39.07-.78.16-1.14.25a20.77,20.77,0,0,0-4.46,1.66,6.86,6.86,0,0,0-2.33,1.27l-.35-.75c3.44-6.53,8.23-9.84,14.27-9.84,7.93,0,15.12,5.76,15.24,5.86,3.51,2.52,6.58,3.8,9.15,3.8a5.5,5.5,0,0,0,4.72-2.3C256.07,216.17,253.44,218.22,249.29,218.22Zm-36.68-9a41.18,41.18,0,0,0-2.47-5.45,11.12,11.12,0,0,1,4.92.05A42.13,42.13,0,0,0,212.61,209.23Zm-1.1,5.36q-.19.39-.36.78a6.3,6.3,0,0,0-1.33-.87l0,0a7.08,7.08,0,0,0-.65-.28h0l-.21-.07a21.15,21.15,0,0,0-4.74-1.76l-1-.21h0a21.46,21.46,0,0,0-4-.37A27.79,27.79,0,0,0,186.75,215c-.05,0-5.64,3.21-10.78,3.21-4.13,0-6.76-2-7.83-6.06a5.58,5.58,0,0,0,4.71,2.25c2.56,0,5.64-1.28,9.2-3.84.07-.06,7.26-5.82,15.19-5.82C203.28,204.75,208.07,208.07,211.51,214.59Zm-40.37,15,.16-.16,1.48-1.44.31-.3,1.39-1.29.42-.39c.44-.39.88-.79,1.33-1.17l.52-.45,1.28-1.08.59-.47,1.27-1c.21-.17.43-.33.65-.49l1.25-.92.7-.5,1.24-.84.75-.49,1.23-.77.5-.29c.88-.42,1.43-.74,1.49-.77a25.8,25.8,0,0,1,11.52-3c.56,0,1.1,0,1.62.07a14.33,14.33,0,0,0-5.32,2.14l-.28.09-.91.34-1.13.42-.92.4c-.37.17-.74.32-1.1.5l-.92.46c-.36.18-.73.36-1.09.56l-.91.51-1.06.62-.91.57c-.34.22-.69.43-1,.66l-.9.61-1,.71-.87.65c-.33.24-.67.49-1,.75l-.85.67-1,.79-.83.7-.95.81-.81.72-.92.83-.79.73-.9.85-.75.74-.87.86-.72.73-.83.87c-.24.24-.47.49-.69.73l-.81.86-.65.72-.78.86-.61.69-.74.85-.57.67-.7.83-.53.64-.66.81-.48.59-.63.79-.43.55-.58.75L162,244c-.2.25-.38.49-.56.73l-.31.42-.51.69-.26.35-.47.65-.2.27-.45.63a.83.83,0,0,1-.11.15l-.43.62,0,0c-.26.37-.44.65-.54.8h0l-.4-.16c-.48-.53-1-1-1.49-1.51h0l.27-.4.11-.15c.08-.13.17-.26.27-.4l.24-.34.26-.38.35-.48c.09-.13.17-.25.27-.38l.45-.63.27-.36.57-.78.25-.33c.22-.3.46-.6.7-.92l.23-.3.84-1.09.17-.21,1-1.29.09-.1A124.81,124.81,0,0,1,171.14,229.59Zm112.77,72.75c-.25.19-25.82,19.69-71.31,19.69s-71.07-19.5-71.32-19.69a1,1,0,0,1,.61-1.79h24.78a3.48,3.48,0,0,1,2-.59c1.46,0,2.65.72,2.65,1.6s-1.19,1.6-2.65,1.6a3.44,3.44,0,0,1-2.07-.61h-21.5c7.52,4.78,30.93,17.48,67.46,17.48s59.94-12.7,67.45-17.48H258.56a3.48,3.48,0,0,1-2.07.61c-1.47,0-2.65-.72-2.65-1.6s1.18-1.6,2.65-1.6a3.47,3.47,0,0,1,2,.59H283.3a1,1,0,0,1,.61,1.79Zm24.6-18.55a36.49,36.49,0,0,1-10.49.74H298a1,1,0,0,0-.8.31.87.87,0,0,0-.16.26.89.89,0,0,0,0,.58.86.86,0,0,0,.31.49l.2.17.68.56h0c-4.49.2-10.17-4-10.23-4a.92.92,0,0,0-1.11,0,.93.93,0,0,0-.31,1.07l.62,1.64h0c-10.44,0-13.83-15.85-13.87-16-.95-4.14-3.53-5.11-5.05-5.05l-.29,0a4.38,4.38,0,0,0-2.22,1.1,2.62,2.62,0,0,0-.65,1.07c-.6,1.91,1.08,4,1.5,4.5l.06.07c.34.35.64.68.93,1l.72.82.07.08a20,20,0,0,1,2.6,3.62h0l-2-.2a.91.91,0,0,0-1,1,.84.84,0,0,0,.17.5,5.58,5.58,0,0,1,.46.8,10.39,10.39,0,0,1,.79,2.75,20.26,20.26,0,0,1,.22,3.46,12.08,12.08,0,0,1-6.64-2.31,6.84,6.84,0,0,1-.57-.45,1,1,0,0,0-.44-.19.77.77,0,0,0-.34,0,.9.9,0,0,0-.65.47l-.79,1.45c-4-6.61-5.69-12.57-5.07-17.78a16.37,16.37,0,0,1,.79-3.49h0c.17-.49.37-1,.58-1.43l.22-.43c0-.09.09-.17.13-.25.12-.24.24-.49.38-.72l.25-.41c.18-.29.36-.58.56-.85l.28-.39c.2-.27.4-.53.61-.79l.28-.33c.23-.27.47-.52.71-.77l.23-.24c.3-.3.61-.59.91-.86l.06-.06c.34-.3.68-.58,1-.85l.09-.07.42-.31.46-.34.31-.21L264,253l.39-.25.47-.28.44-.26.32-.17c.17-.1.35-.19.51-.27l.06,0,.23-.12c.74-.37,1.3-.6,1.59-.72.12.21.25.42.38.61.27.45.55.88.83,1.31.43.66.86,1.3,1.29,1.93a31.41,31.41,0,0,0-8.15,7s-.12.14-.28.36l0,0,0,.07c-1.08,1.53-4.12,6.82-.39,13.82a.81.81,0,1,0,1.43-.76,12.72,12.72,0,0,1-1.62-6.32,7.55,7.55,0,0,0,1.37,2.11.81.81,0,0,0,1.17-1.13,5.51,5.51,0,0,1-.57-6.89,2.77,2.77,0,0,1,.19-.23,30,30,0,0,1,7.84-6.76c1,1.39,1.94,2.7,2.9,3.92a12.52,12.52,0,0,0,.85,9.88.81.81,0,1,0,1.42-.77,10.87,10.87,0,0,1-1-7.54c1.52,1.84,3,3.48,4.49,4.94.74.75,1.48,1.44,2.21,2.09l.45.41s0,.07,0,.12,0,.41-.06.67a13.13,13.13,0,0,0,2.86,8.75.81.81,0,1,0,1.28-1,11.89,11.89,0,0,1-2.47-5.94q0-.39-.06-.75c0-.21,0-.4,0-.58.2.15.39.31.58.47a41.37,41.37,0,0,0,5.63,3.73,31.55,31.55,0,0,0,4.26,1.95,27.34,27.34,0,0,0,5.34,1.4l.89.12h.14a1.23,1.23,0,0,0,.5-.12,1.25,1.25,0,0,0,.61-.55,1.07,1.07,0,0,0,.13-.44,1.25,1.25,0,0,0-1.1-1.39c-4.54-.51-10.56-2.65-17.37-8.79,10,.83,12.26,4.36,12.32,4.44a.8.8,0,0,0,1.09.31.81.81,0,0,0,.32-1.1c-.11-.19-2.76-4.72-15.14-5.36l-.42,0-.63-.62c-.47-.48-.94-1-1.42-1.5-1-1.08-2-2.26-3-3.52a4.41,4.41,0,0,1,.56-.23,4.74,4.74,0,0,1,.5-.15l.53-.1a7.64,7.64,0,0,1,3.56.42.81.81,0,0,0,.64-1.49,9,9,0,0,0-5-.44l-.26.07c-.16.05-.33.09-.49.15s-.32.12-.49.19l-.56.28c-.76-1-1.53-2-2.3-3.11l.32-.15.47-.22.48-.2a30.2,30.2,0,0,1,15.18-2.24.81.81,0,0,0,.27-1.6A30.86,30.86,0,0,0,280,251a12.25,12.25,0,0,1,9.15-3.15.81.81,0,0,0,.09-1.61,14.81,14.81,0,0,0-4.16.32,13.23,13.23,0,0,0-7.89,5.18,30,30,0,0,0-3.56,1.33l-.48.22-.47.23-.06,0-.19-.3c-.38-.55-.75-1.11-1.13-1.69s-.6-.92-.9-1.4l-.3-.49c-.09-.14-.18-.28-.26-.42l0,0,.42-.38.29-.26,0,0q.64-.59,1.32-1.11l.09-.07c.43-.34.88-.67,1.33-1l.16-.11c.44-.29.87-.56,1.32-.82l.28-.15c.41-.23.84-.46,1.27-.67l.42-.18c.4-.18.79-.36,1.19-.52.2-.08.41-.14.61-.21l1.08-.38.79-.2c.31-.09.62-.18.94-.25h0a29.81,29.81,0,0,1,15.37.92h0l-.55,3.54a.9.9,0,0,0,.37.88l.05.05.13,0a.89.89,0,0,0,.89-.08c.31-.21.64-.41,1-.59a14.38,14.38,0,0,1,4-1.57,16.69,16.69,0,0,1,4.36-.37,15.85,15.85,0,0,1-5.12,5.63.92.92,0,0,0-.47,1,.88.88,0,0,0,.29.5.9.9,0,0,0,.53.24l2.21.22h0a9.81,9.81,0,0,1-3.21,1.66c-.56.18-1.11.34-1.62.45a23.74,23.74,0,0,1-3.37.5c-.89.07-1.47.07-1.49.07a18.53,18.53,0,0,0-3.52.39l-.48.13-.32.08c-.14,0-.26.09-.39.14l-.31.11-.35.16a1.45,1.45,0,0,0-.25.12,1.65,1.65,0,0,0-.32.18,1.18,1.18,0,0,0-.19.11l-.3.21-.11.09a3.74,3.74,0,0,0-.29.25l-.05,0a3.15,3.15,0,0,0-1,2.47v0h0a3.16,3.16,0,0,0,.14.86s0,0,0,0a3.26,3.26,0,0,0,.27.65l0,0a3.25,3.25,0,0,0,.35.49h0a2.42,2.42,0,0,0,.38.35,3.47,3.47,0,0,0,1.42.61,7.9,7.9,0,0,0,3.19-.13,10.54,10.54,0,0,0,1.36-.39,24.06,24.06,0,0,1,2.3-.73l.61-.16.54-.1a12.32,12.32,0,0,1,1.76-.21h.64l-1.5,1.19a1,1,0,0,0-.29,1.06h0a1,1,0,0,0,.31.41l.05,0,.16.07a.93.93,0,0,0,.1.05,1.36,1.36,0,0,0,.29,0,9.36,9.36,0,0,1,3.23.44,16.54,16.54,0,0,1,6.3,3.94L304.93,271a1,1,0,0,0-.25.19.93.93,0,0,0-.21.88.91.91,0,0,0,.62.64.8.8,0,0,0,.31,0c5.86-.26,11,4.82,12.62,6.69A22.57,22.57,0,0,1,308.51,283.79Zm-15.16-74.53c8.92,2.92,16.58,5.91,22.68,8.5-7.19,3.12-27.71,10.67-40.42,6.78-1.57-.49-5.09-2.12-5.31-3.81-.13-1,1-2.27,3.17-3.64a14.59,14.59,0,0,1,4.21-1.8,10.19,10.19,0,0,1-1.57,4.19,1.38,1.38,0,0,0-.24,1.11,1.4,1.4,0,0,0,.68.91,14.16,14.16,0,0,0,14.32-.09,5.43,5.43,0,0,0,2.19-2.76s0,0,0,0v0a3.07,3.07,0,0,0,.07-.42A31.35,31.35,0,0,0,293.35,209.26Zm-14.2,10.45a12.63,12.63,0,0,0,1.33-4.92,17.14,17.14,0,0,1,8,1.23c.65.27,1.85,1.07,1.92,1.67,0,.37-.4.92-1.13,1.46A11.42,11.42,0,0,1,279.15,219.71Zm11.65-5.57a7.2,7.2,0,0,0-1.23-.66A19.42,19.42,0,0,0,272,214.79a17.65,17.65,0,0,0-1.69,1.21,48.3,48.3,0,0,1,2.44-12.69c6.3,1.57,12.23,3.27,17.72,5A27,27,0,0,1,290.8,214.14ZM212.59,192.9c-45.67,0-85.5,14.11-106,22.95l-13.4-36c15-7.76,63.07-30.08,119.36-30.08S317,172.1,332,179.86l-13.4,36C298.09,207,258.27,192.9,212.59,192.9Zm141.27,41.26a23.33,23.33,0,0,1-7.53,1.4,13.91,13.91,0,0,1-7.39-2c-5.62-3.44-6.94-10.06-7-10.34a14.25,14.25,0,0,1,2.2-10.33,12.89,12.89,0,0,1,8.46-5.62,10.29,10.29,0,0,1,8,1.9A11.32,11.32,0,0,1,355,216.5a9.33,9.33,0,0,1-7.24,10.81,7.09,7.09,0,0,1-5.51-1.31,7.82,7.82,0,0,1-3-5,6.39,6.39,0,0,1,.92-4.83,4.58,4.58,0,0,1,3.28-1.89,5.41,5.41,0,0,1,3.18.69,3.42,3.42,0,0,1,1.38,1.14,2.83,2.83,0,0,1,.56,2.12,1.41,1.41,0,0,1-.61.94c-.85.54-2.29,0-3.09-1.12a4.52,4.52,0,0,1-.3-.51l-.12-.25-.27,0a3.38,3.38,0,0,0-.45,0,1.82,1.82,0,0,0-1.33.73,3.35,3.35,0,0,0-.37,2.48,4.74,4.74,0,0,0,1.86,3.08,4.37,4.37,0,0,0,3.42.81,6.33,6.33,0,0,0,4.94-7.33,8.34,8.34,0,0,0-3.23-5.37,7.68,7.68,0,0,0-5.94-1.4,10.17,10.17,0,0,0-6.64,4.41,11.11,11.11,0,0,0-1.73,8c.14.61,1.36,5.71,5.66,8.32,3.23,2,7.52,2.07,12.64.31l.93-.33A24.4,24.4,0,0,0,367,217.26c.31-.82.58-1.66.82-2.51a13.38,13.38,0,0,1-8-11.45.93.93,0,0,1,.36-.74.92.92,0,0,1,.8-.17l.14,0c-2.52-5.55-1.1-8.71-1-8.86a1,1,0,0,1,.52-.47,14.39,14.39,0,0,1-.93-5.79.94.94,0,0,1,.37-.64,1,1,0,0,1,.66-.18,30.4,30.4,0,0,1-2.22-6.27.94.94,0,0,1,1-1.14l.59.1a14.29,14.29,0,0,1-2.71-6.29.91.91,0,0,1,.32-.8.86.86,0,0,1,.43-.2,10.19,10.19,0,0,1-1.91-4.29.93.93,0,0,1,.21-.74.92.92,0,0,1,.69-.34,8.63,8.63,0,0,1,.89,0c-.76-3.74.59-5.22.76-5.39A1,1,0,0,1,360,161a8.12,8.12,0,0,1,3.38,4.12,6.14,6.14,0,0,1,1.12-.61.93.93,0,0,1,1.18.47,11.49,11.49,0,0,1,1,4.56,5.76,5.76,0,0,1,.75-.35,1,1,0,0,1,.74,0,1,1,0,0,1,.49.55,12.6,12.6,0,0,1,.08,6.67,7,7,0,0,1,2.33-1.11.94.94,0,0,1,1.11.67,12.22,12.22,0,0,1,.12,6.25,13.21,13.21,0,0,1,1.22-.71.89.89,0,0,1,.84,0,.92.92,0,0,1,.5.68,16,16,0,0,1-.94,9,11.33,11.33,0,0,1,1.13-.62.93.93,0,0,1,1.32.66,13.84,13.84,0,0,1-2.21,11.31,6.94,6.94,0,0,1,.84-.31.93.93,0,0,1,1.2.79c.91,7.88-3.62,11-6.41,12.14,0,0-.07,0-.11,0-.26.92-.54,1.82-.88,2.7a26.8,26.8,0,0,1-4,7,45.26,45.26,0,0,0,14.29-17.36c9.41-26.52-5.12-44.59-9.48-49.22a3.29,3.29,0,0,1-2.48.12c-1.47-.45-2.42-1.6-2.13-2.57s1.73-1.4,3.21-.95a3.94,3.94,0,0,1,1.43.79l0,0a49.35,49.35,0,0,1,14,27.87c-.95-33.13-27.52-43-30.6-44-5.15-1.77-9.42-1.66-12.65.31-4.31,2.62-5.53,7.72-5.65,8.29a11.1,11.1,0,0,0,1.72,8.05,10.17,10.17,0,0,0,6.64,4.41A7.68,7.68,0,0,0,349,159.3a8.27,8.27,0,0,0,3.23-5.37,6.34,6.34,0,0,0-4.94-7.33,4.47,4.47,0,0,0-3.42.81A4.77,4.77,0,0,0,342,150.5a3.35,3.35,0,0,0,.37,2.48,1.81,1.81,0,0,0,1.34.72,2.22,2.22,0,0,0,.45,0l.27,0,.11-.25a4.63,4.63,0,0,1,.3-.52c.8-1.12,2.25-1.65,3.09-1.12a1.45,1.45,0,0,1,.61.95,2.85,2.85,0,0,1-.56,2.12,3.26,3.26,0,0,1-1.34,1.11,5.31,5.31,0,0,1-3.22.71,4.62,4.62,0,0,1-3.28-1.88,6.4,6.4,0,0,1-.92-4.83,7.79,7.79,0,0,1,3-5,7.1,7.1,0,0,1,5.51-1.31A9.33,9.33,0,0,1,355,154.45a11.32,11.32,0,0,1-4.41,7.32,10.33,10.33,0,0,1-8,1.9,12.93,12.93,0,0,1-8.46-5.62A14.28,14.28,0,0,1,332,147.7c.05-.26,1.37-6.89,7-10.33a13.87,13.87,0,0,1,7.38-2,23.21,23.21,0,0,1,7.53,1.39c1.34.44,32.63,11.18,32.63,48.69S355.19,233.73,353.86,234.16ZM107.69,183.87l1.41-4.51-9.54,4.09,4.32,2.05,8.23,18.76-1.42,4.55,9.53-4.08-4.3-2.1Zm20.07-12-8.23,3.25,4.08,2.25,4.6,11.38L117,176.16l-6.58,2.6,4.22,2.19,7.68,19-1.54,4.46,9-3.56-4.33-2.2-6-14.91,14,15.65,2-.81-9-22.35Zm11.66-.24,1.87-.6,5.33,7.28.44-.15-3.77-11.42-13.83,4.47,3.72,11.27.48-.15-.11-8.8,1.84-.6,6.47,19.6L140,197l9.91-3.2-4-2.51Zm20.72-5c-2-2.71-4.31-3.74-6.88-3.08q-3.6.92-4.21,6.08a25.79,25.79,0,0,0,.92,9.66,25.51,25.51,0,0,0,4,8.79q3.1,4.25,6.62,3.35c2.46-.62,3.92-2.64,4.38-6a25.06,25.06,0,0,0-.88-9.71A26.46,26.46,0,0,0,160.14,166.71Zm-.36,21.85c-1.25.32-2.46-.95-3.63-3.83a60.79,60.79,0,0,1-2-6.44q-2.88-11-.16-11.71,2-.51,3.76,3.72a48.44,48.44,0,0,1,2.07,6.54,54.62,54.62,0,0,1,1.45,6.69C161.65,186.54,161.14,188.21,159.78,188.56ZM190,170.2l.46-.06L189,158.21l-14.44,1.73L176,171.7l.49-.06,1.63-8.65,1.92-.23,2.49,20.47-2.67,4L190.2,186l-3.46-3.23-2.5-20.47,1.95-.23Zm18.06-9.27,2.95-3.75-9.83.41,2.7,3.51.21,4.9-2.64,3.28-3-3.05-.21-4.89,2.42-3.73-9.83.42,3.25,3.48L195,181.9,192,185.65l9.83-.41-2.73-3.51L198.67,171l3,3.09,2.65-3.33.46,10.73-2.39,3.72,9.82-.42-3.25-3.48Zm17.27,20.75-5.68-.13.22-9.54,2,.05,1.79,5h.38l.3-12.74H224l-2,4.4-2,0,.19-8.06,5,.11,2.79,7h.35l.24-10.37L212.91,157l3,3.65-.47,20.57-3.19,3.54,16.65.38.27-11.52h-.59Zm31-7.29-9-1.42,3,3.73-.42,2.59a14.08,14.08,0,0,1-1.11,4.08,2.47,2.47,0,0,1-2.77,1.35c-1.12-.17-1.82-1.22-2.1-3.12a29,29,0,0,1,.38-8.92,44.46,44.46,0,0,1,1.4-5.52c1-3.38,2.26-5,3.65-4.75.75.12,1.36.72,1.84,1.78a21.77,21.77,0,0,1,1.5,7l.81.12,1.76-10.8-.46-.07-2.07,1.92c-.91-1.65-2-2.57-3.19-2.76a5.06,5.06,0,0,0-3.74,1.07,11.32,11.32,0,0,0-3.67,4.74,24.09,24.09,0,0,0-1.9,6.4,35.17,35.17,0,0,0-.5,6.16,16.68,16.68,0,0,0,1.24,6.57,5.37,5.37,0,0,0,4,3.43c2,.31,3.85-.52,5.68-2.47l1.1,3.05.49.08,1.87-11.5Zm13.76,11.7a16.47,16.47,0,0,0-.18-5.91,13.71,13.71,0,0,0-1.3-2.78,4.78,4.78,0,0,0,3.51-1.19,7.09,7.09,0,0,0,2.22-3.85q1-3.84-.52-5.89a6.82,6.82,0,0,0-4.08-2.36l-9.63-2.36,2.13,4.25-5,19.81-3.89,2.78,10.08,2.47-2.16-4.26,2.32-9.26a4.52,4.52,0,0,1,2.49,1.16c.46.65.63,1.86.5,3.64,0,.35-.24,1.71-.56,4.06a20.88,20.88,0,0,0-.14,5.26l5,1.24,0-.16a9.39,9.39,0,0,1-1-1.64C269.79,190.51,269.81,188.84,270.08,186.09Zm-3.35-11-2.36-.58,1.94-7.75,2.08.51q3.15.78,2.2,4.57C269.93,174.5,268.64,175.59,266.73,175.12Zm23-2.05,3.58-2.3-10.75-3.32,1.92,4L274.7,190.2l-3.46,2.72,7.85,2.43-1.38-4.18,1.35-2.6,4.52,1.4-.36,2.87-3.57,2.68,8.57,2.65L286.94,194ZM284,186.52l-3.4-1.05,4.84-9.18Zm33.84-5.76,1.11,4.49-5.31,11.07,1.74-16.71-6.4-3,1.25,4.55-8.88,18.51-3.69,1.63-1.29-3.8,7.66-19,4.22-2.18-9.65-3.81,1.56,4.47-7.65,19-4.26,2.22,9.4,3.7,8.12,3.81-1.31-4.63,7-14.5-2.05,20.82,2,.93,10.44-21.74,4.06-2.06ZM359.18,347a1.34,1.34,0,0,0-.06-.4l0-.08a1.22,1.22,0,0,0-.18-.36l0-.05a1.48,1.48,0,0,0-.28-.28l0,0L325.32,322a1.5,1.5,0,0,0-2.37,1.22v22.35H101.82V323.21a1.48,1.48,0,0,0-.81-1.33,1.51,1.51,0,0,0-1.56.11L66.21,345.84l0,0a1.48,1.48,0,0,0-.28.28l0,.05a1.55,1.55,0,0,0-.19.36s0,.05,0,.08a1.78,1.78,0,0,0-.07.39v0h0v36.87a1.5,1.5,0,0,0,1.5,1.5H357.69a1.5,1.5,0,0,0,1.5-1.5V347.06h0Zm-3,35.39H68.58V348.56H356.19ZM76.78,373.6a7.93,7.93,0,0,0,1.45,3.09,3.08,3.08,0,0,0,2.46,1.18,3.14,3.14,0,0,0,3.13-2,15.36,15.36,0,0,0,.88-5.94c0-.19-.09-.29-.26-.29s-.29.09-.29.26a12.49,12.49,0,0,1-.18,1.25,21.57,21.57,0,0,1-.51,2.21,8.14,8.14,0,0,1-.86,2,1.49,1.49,0,0,1-1.22.85,1.55,1.55,0,0,1-1.09-.41,3.55,3.55,0,0,1-.75-1.59,20.27,20.27,0,0,1-.45-3.39q-.15-2.22-.15-5.89a52.44,52.44,0,0,1,.39-7.78c.25-1.5.75-2.25,1.51-2.25a1.64,1.64,0,0,1,1.2.61,5.88,5.88,0,0,1,1,1.62,15.93,15.93,0,0,1,.71,2.15c.2.75.35,1.51.48,2.28,0,.24.14.36.29.36s.22-.1.22-.3v-7.8c0-.37-.09-.55-.26-.55a.6.6,0,0,0-.31.14,3.09,3.09,0,0,0-.38.35,1,1,0,0,1-.69.39.92.92,0,0,1-.62-.2,3.11,3.11,0,0,0-1.75-.68,3.18,3.18,0,0,0-2.58,1.16,7.13,7.13,0,0,0-1.44,3,20.65,20.65,0,0,0-.59,3.63c-.08,1.21-.12,2.5-.12,3.88,0,1.64.05,3.18.16,4.62A23,23,0,0,0,76.78,373.6Zm10.57,2.82-1.09.95a.18.18,0,0,1-.11.1c-.09.09-.14.15-.14.2s.07.2.22.2h5.71c.15,0,.22-.07.22-.2s0-.11-.14-.2a.18.18,0,0,1-.11-.1l-1.1-.95a1.18,1.18,0,0,1-.32-.91V366.2h.62a2.09,2.09,0,0,1,1.6.72,2.6,2.6,0,0,1,.65,1.8v7a2.1,2.1,0,0,0,.57,1.51,2.34,2.34,0,0,0,1.76.59h1.9c.24,0,.36,0,.36-.1s-.1-.19-.29-.36l-1.17-1.12a.82.82,0,0,1-.32-.59v-6.85a3.83,3.83,0,0,0-.66-2.23,4.29,4.29,0,0,0-1.67-1.44,5.13,5.13,0,0,0,1.93-2,7.88,7.88,0,0,0,.76-3.82,6.37,6.37,0,0,0-1.44-4.61,5.82,5.82,0,0,0-4.31-1.45H86.23c-.15,0-.22.06-.22.19s0,.11.14.2a.18.18,0,0,1,.11.1l1.09,1a1.16,1.16,0,0,1,.33.92v19.86A1.15,1.15,0,0,1,87.35,376.42Zm3.14-21.5H91a2.06,2.06,0,0,1,2,1,7.39,7.39,0,0,1,.56,3.44,9.83,9.83,0,0,1-.58,4.06A2,2,0,0,1,91,364.56h-.54Zm7.75,22.95h4.19c.17,0,.25-.07.25-.2s-.06-.12-.18-.23l-.18-.16-.8-.76a.85.85,0,0,1-.18-.59l.54-3.6c.05-.16.12-.23.22-.23h2.7a.31.31,0,0,1,.32.29l.55,3.44a.9.9,0,0,1-.18.66l-1,.88-.08.07c-.12.09-.18.16-.18.23s.09.2.26.2h5.24c.17,0,.25-.07.25-.2s-.07-.17-.21-.3l-1.06-.85a1.26,1.26,0,0,1-.4-.88l-3.46-22q-.08-.36-.33-.36h-1.35c-.14,0-.24.09-.29.29l-3.31,22a1.36,1.36,0,0,1-.29.82l-1,.92c-.17.15-.26.26-.26.33S98.1,377.87,98.24,377.87Zm5.17-15.77h.08l1.27,8c0,.15-.05.23-.15.23h-2.29c-.07,0-.11-.07-.11-.2Zm8.45,14.32-1.09.95a.33.33,0,0,1-.15.13c-.07.07-.11.12-.11.17s.08.2.22.2h6c.15,0,.22-.07.22-.2s-.06-.14-.18-.23l-.07-.07-1.35-.95a1,1,0,0,1-.33-.91v-9.25h.8a.4.4,0,0,1,.4.23l1.28,2.4,0,0c0,.13.11.2.19.2s.14-.07.14-.2V362c0-.13-.06-.19-.18-.19s-.16.07-.25.23l-1.21,2.26a.4.4,0,0,1-.4.23H115v-9.61h2.08a.89.89,0,0,1,.94.63l2,6.16a.3.3,0,0,0,.29.23c.12,0,.18-.06.18-.17v-8.19c0-.2-.09-.29-.29-.29h-9.43c-.14,0-.22.06-.22.19s0,.11.15.2a.21.21,0,0,1,.11.1l1.09,1a1.16,1.16,0,0,1,.33.92v19.86A1.15,1.15,0,0,1,111.86,376.42ZM122,361.94c.17,0,.26-.07.29-.2l1.89-6.52c.1-.24.23-.36.4-.36h1.35v20.65a1.19,1.19,0,0,1-.29.91l-1.09.95-.08.07c-.12.09-.18.16-.18.23s.07.2.22.2h5.64c.15,0,.22-.07.22-.2s-.06-.14-.18-.23l-.07-.07-1.1-.95a1.19,1.19,0,0,1-.29-.91V354.86H130c.17,0,.3.12.4.36l1.89,6.52a.3.3,0,0,0,.3.2c.12,0,.18-.08.18-.23v-8.29c0-.09-.06-.13-.18-.13H122c-.13,0-.19,0-.19.13v8.29C121.76,361.86,121.82,361.94,122,361.94Zm17.44,14.48-1.09.95a.39.39,0,0,1-.15.13c-.07.07-.11.12-.11.17s.07.2.22.2H144a4,4,0,0,0,3.46-1.76,9.36,9.36,0,0,0,1.2-5.26,7.52,7.52,0,0,0-.77-3.78,4.6,4.6,0,0,0-2-1.89,4.84,4.84,0,0,0,2-2,8.14,8.14,0,0,0,.71-3.85c0-4-1.91-6.06-5.75-6.06h-4.55c-.15,0-.22.06-.22.19s.05.11.15.2a.21.21,0,0,1,.11.1l1.09,1a1.16,1.16,0,0,1,.33.92v19.86A1.15,1.15,0,0,1,139.39,376.42Zm3.13-21.5h.55a2.09,2.09,0,0,1,2,1,7.19,7.19,0,0,1,.59,3.44,9.87,9.87,0,0,1-.59,4,2,2,0,0,1-2,1.16h-.55Zm0,11.28h.55a2.09,2.09,0,0,1,1.94,1,7,7,0,0,1,.61,3.41,16.51,16.51,0,0,1-.39,4.48,1.53,1.53,0,0,1-1.58,1.13h-1.13Zm8.92,10.22-1.09.95a.33.33,0,0,1-.15.13c-.07.07-.11.12-.11.17s.08.2.22.2h9.43a.27.27,0,0,0,.3-.3v-8.23a.17.17,0,0,0-.19-.19.25.25,0,0,0-.25.19l-2,6.3a.93.93,0,0,1-1,.59h-2.08v-10h.8a.4.4,0,0,1,.4.23l1.24,2.4,0,0c0,.13.12.2.22.2s.14-.06.14-.17V362c0-.13,0-.19-.14-.19s-.15.06-.22.19l-1.28,2.3a.4.4,0,0,1-.4.23h-.8v-9.61h2.08a.91.91,0,0,1,.95.63l2,6.16a.3.3,0,0,0,.29.23.18.18,0,0,0,.19-.2v-8.16c0-.2-.1-.29-.3-.29h-9.43c-.14,0-.22.06-.22.19s0,.11.15.2a.21.21,0,0,1,.11.1l1.09,1a1.16,1.16,0,0,1,.33.92v19.86A1.15,1.15,0,0,1,151.44,376.42Zm11.25,0-1.09.95a.3.3,0,0,1-.14.13c-.08.07-.11.12-.11.17a.18.18,0,0,0,.21.2H171a.26.26,0,0,0,.29-.3v-8.23a.17.17,0,0,0-.19-.19.25.25,0,0,0-.25.19l-2,6.3a.93.93,0,0,1-1,.59h-2.07v-10h.8a.42.42,0,0,1,.4.23l1.23,2.4,0,0c0,.13.12.2.22.2s.15-.06.15-.17V362c0-.13,0-.19-.15-.19s-.15.06-.22.19L167,364.3a.42.42,0,0,1-.4.23h-.8v-9.61h2.07a.91.91,0,0,1,.95.63l2,6.16a.3.3,0,0,0,.29.23c.13,0,.19-.07.19-.2v-8.16a.25.25,0,0,0-.29-.29h-9.44c-.14,0-.21.06-.21.19s0,.11.14.2a.18.18,0,0,1,.11.1l1.09,1a1.16,1.16,0,0,1,.33.92v19.86A1.15,1.15,0,0,1,162.69,376.42Zm11.25,0-1.09.95a.18.18,0,0,1-.11.1c-.09.09-.14.15-.14.2s.07.2.22.2h5.71c.15,0,.22-.07.22-.2s-.05-.11-.14-.2a.18.18,0,0,1-.11-.1l-1.1-.95a1.18,1.18,0,0,1-.32-.91V366.2h.62a2.09,2.09,0,0,1,1.6.72,2.6,2.6,0,0,1,.65,1.8v7a2.1,2.1,0,0,0,.57,1.51,2.34,2.34,0,0,0,1.76.59h1.9c.24,0,.36,0,.36-.1s-.1-.19-.29-.36l-1.16-1.12a.8.8,0,0,1-.33-.59v-6.85a3.83,3.83,0,0,0-.66-2.23,4.29,4.29,0,0,0-1.67-1.44,5.13,5.13,0,0,0,1.93-2,7.88,7.88,0,0,0,.76-3.82,6.37,6.37,0,0,0-1.44-4.61,5.8,5.8,0,0,0-4.31-1.45h-4.55c-.15,0-.22.06-.22.19s.05.11.14.2a.18.18,0,0,1,.11.1l1.09,1a1.16,1.16,0,0,1,.33.92v19.86A1.15,1.15,0,0,1,173.94,376.42Zm3.14-21.5h.54a2.06,2.06,0,0,1,1.95,1,7.37,7.37,0,0,1,.57,3.44,9.79,9.79,0,0,1-.59,4.06,2,2,0,0,1-1.93,1.15h-.54Zm18.31,22.95a5.1,5.1,0,0,0,1.46-.2,4.1,4.1,0,0,0,1.09-.49,2.73,2.73,0,0,0,1.9.69,2.35,2.35,0,0,0,1.94-.84,2.76,2.76,0,0,0,.68-1.75c0-.13-.05-.2-.15-.2a.21.21,0,0,0-.18.13,3.68,3.68,0,0,1-.71.72,1.44,1.44,0,0,1-.89.36.91.91,0,0,1-.8-.59,6.42,6.42,0,0,0,1.4-3,27.26,27.26,0,0,0,.42-5.51l1.16-1a.31.31,0,0,0,.22-.29c0-.11-.07-.17-.22-.17h-5c-.17,0-.25.06-.25.17s.07.14.22.22l0,0,1.1.72a1.57,1.57,0,0,1,.52.95,7.13,7.13,0,0,1,.17,1.64,13.26,13.26,0,0,1-.26,2.57,4.54,4.54,0,0,1-.58,1.72,35.77,35.77,0,0,1-1.26-3.49c-.45-1.43-.91-3-1.4-4.73l-.33-1.15.48-.62a18.45,18.45,0,0,0,1.84-3.08,8.75,8.75,0,0,0,.78-3.74,4.09,4.09,0,0,0-.82-2.72,2.8,2.8,0,0,0-2.28-1,3.31,3.31,0,0,0-2.65,1.26,4.76,4.76,0,0,0-1.06,3.19,16.44,16.44,0,0,0,.24,2.85,22,22,0,0,0,.6,2.66l.36,1.31-.69.82a15.1,15.1,0,0,0-2.11,3.13,8,8,0,0,0-.73,3.59,5.79,5.79,0,0,0,1.53,4.18A5.59,5.59,0,0,0,195.39,377.87Zm-.94-22.31a1.28,1.28,0,0,1,1.2-.7,1.06,1.06,0,0,1,1,.6,3.83,3.83,0,0,1,.29,1.66,8,8,0,0,1-.45,2.61,7.08,7.08,0,0,1-1.11,2.11l-.37.46-.58-2.07a10.29,10.29,0,0,1-.44-2.78A3.79,3.79,0,0,1,194.45,355.56Zm-.62,11.36.43,1.57c.37,1.27.79,2.59,1.28,3.95a26.46,26.46,0,0,0,1.38,3.33,2,2,0,0,1-1.53.52,2.72,2.72,0,0,1-2.22-1.29,5.59,5.59,0,0,1-.95-3.36A6.46,6.46,0,0,1,193.83,366.92Zm15.07,9.5-.91.95a.57.57,0,0,1-.11.1.34.34,0,0,0-.14.23c0,.11.07.17.21.17h4.48c.15,0,.22-.06.22-.17a.51.51,0,0,0-.14-.26l-.11-.1-.77-.88a1.46,1.46,0,0,1-.25-.95V359.64h.07l3,17.93q.07.3.18.3h.8c.15,0,.24-.09.29-.27l2.77-18h.08v15.87a1.46,1.46,0,0,1-.26.95l-.76.88-.11.1a.47.47,0,0,0-.15.26c0,.11.07.17.22.17h5.1c.14,0,.22-.06.22-.17s-.07-.16-.19-.29l-.07,0-.91-.95a1.42,1.42,0,0,1-.29-.91V355.65a1.43,1.43,0,0,1,.29-.92l.91-1,.07-.07c.12-.11.19-.19.19-.26s-.08-.16-.22-.16H218c-.22,0-.36.18-.41.55L215.38,368h-.07l-2.4-14.19c0-.37-.22-.55-.51-.55H208c-.14,0-.21,0-.21.16s0,.14.14.23l.11.1.91,1a1.39,1.39,0,0,1,.33.92v19.86A1.36,1.36,0,0,1,208.9,376.42Zm15.77-21.69a1.2,1.2,0,0,1,.29.92v18.68a3.17,3.17,0,0,0,1.15,2.55,4.77,4.77,0,0,0,3.22,1,4.58,4.58,0,0,0,3-1,3.19,3.19,0,0,0,1.18-2.54V355.65a1.35,1.35,0,0,1,.29-.92l1.13-1a.47.47,0,0,0,.19-.3c0-.13-.08-.19-.22-.19h-5c-.15,0-.22.06-.22.19a.45.45,0,0,0,.18.3l1.13,1a1.17,1.17,0,0,1,.29.92v17.82a4.44,4.44,0,0,1-.38,2,1.36,1.36,0,0,1-1.33.77,1.51,1.51,0,0,1-1.51-.71,4.79,4.79,0,0,1-.35-2V355.65a1.35,1.35,0,0,1,.29-.92l1.13-1a.47.47,0,0,0,.19-.3c0-.13-.08-.19-.22-.19h-5.57c-.15,0-.22.06-.22.19a.45.45,0,0,0,.18.3ZM238.87,366a55,55,0,0,1,2.44,5.11,9.66,9.66,0,0,1,.73,3.41c0,1.14-.35,1.71-1.06,1.71a1.85,1.85,0,0,1-1.38-.66,6.35,6.35,0,0,1-1.1-1.64,14.7,14.7,0,0,1-.8-2.08c-.21-.73-.43-1.53-.65-2.41-.05-.15-.12-.23-.22-.23s-.18.08-.18.23v8.26c0,.11.06.17.18.17a.88.88,0,0,0,.36-.17l.08-.06.43-.3a3.2,3.2,0,0,1,.73-.43,2.37,2.37,0,0,1,.73.33,5,5,0,0,0,.93.46,3.24,3.24,0,0,0,1.11.17,3.17,3.17,0,0,0,1.13-.23,3.22,3.22,0,0,0,1.09-.76,3.8,3.8,0,0,0,.82-1.42,6.44,6.44,0,0,0,.31-2.12,15.52,15.52,0,0,0-.09-1.78,8.36,8.36,0,0,0-.38-1.64c-.2-.58-.48-1.26-.84-2.05s-.87-1.8-1.53-3.05-1.19-2.34-1.6-3.21-.74-1.62-1-2.24a10.41,10.41,0,0,1-.47-1.59,6.56,6.56,0,0,1-.13-1.32,2.83,2.83,0,0,1,.18-1.16.8.8,0,0,1,.8-.38,1.75,1.75,0,0,1,1.21.66,7.67,7.67,0,0,1,1.16,1.69,18.67,18.67,0,0,1,1,2.21,16.46,16.46,0,0,1,.65,2.23c.05.15.12.23.22.23s.22-.06.22-.17v-8.12c0-.24-.09-.36-.26-.36a1.7,1.7,0,0,0-.76.42c-.39.35-.67.53-.84.53a1.42,1.42,0,0,1-.55-.2,3.82,3.82,0,0,0-1-.54,3,3,0,0,0-1-.21,3.16,3.16,0,0,0-2.43.95,4.43,4.43,0,0,0-.92,3.14,13.15,13.15,0,0,0,.62,3.85A28.7,28.7,0,0,0,238.87,366Zm8.34,10.42-1.09.95a.26.26,0,0,1-.11.1c-.1.09-.15.15-.15.2s.07.2.22.2h5.72a.18.18,0,0,0,.21-.2c0-.05,0-.11-.14-.2a.18.18,0,0,1-.11-.1l-1.09-.95a1.15,1.15,0,0,1-.33-.91V355.65a1.16,1.16,0,0,1,.33-.92l1.09-1a.18.18,0,0,1,.11-.1c.1-.09.14-.15.14-.2s-.07-.19-.21-.19h-5.72c-.15,0-.22.06-.22.19s0,.11.15.2a.26.26,0,0,1,.11.1l1.09,1a1.16,1.16,0,0,1,.33.92v19.86A1.15,1.15,0,0,1,247.21,376.42Zm7.08-2.82a7.93,7.93,0,0,0,1.46,3.09,3,3,0,0,0,2.46,1.18,3.16,3.16,0,0,0,3.13-2,15.59,15.59,0,0,0,.87-5.94c0-.19-.08-.29-.25-.29s-.3.09-.3.26a12.49,12.49,0,0,1-.18,1.25,21.57,21.57,0,0,1-.51,2.21,8.13,8.13,0,0,1-.85,2,1.51,1.51,0,0,1-1.22.85,1.58,1.58,0,0,1-1.1-.41,3.45,3.45,0,0,1-.74-1.59,19.1,19.1,0,0,1-.46-3.39q-.14-2.22-.14-5.89a54.31,54.31,0,0,1,.38-7.78c.25-1.5.76-2.25,1.51-2.25a1.61,1.61,0,0,1,1.2.61,5.65,5.65,0,0,1,1,1.62,17.47,17.47,0,0,1,.71,2.15c.19.75.35,1.51.47,2.28.05.24.15.36.29.36s.22-.1.22-.3v-7.8c0-.37-.08-.55-.25-.55a.54.54,0,0,0-.31.14,3.16,3.16,0,0,0-.39.35,1,1,0,0,1-.69.39.94.94,0,0,1-.62-.2,3.08,3.08,0,0,0-1.74-.68,3.22,3.22,0,0,0-2.59,1.16,7.26,7.26,0,0,0-1.44,3,20.63,20.63,0,0,0-.58,3.63c-.09,1.21-.13,2.5-.13,3.88,0,1.64.06,3.18.17,4.62A23,23,0,0,0,254.29,373.6Zm15,2.82-1.09.95a.39.39,0,0,1-.15.13c-.07.07-.11.12-.11.17s.07.2.22.2h6c.15,0,.22-.07.22-.2s-.06-.14-.18-.23l-.08-.07-1.34-.95a1,1,0,0,1-.33-.91v-9.25h.8a.4.4,0,0,1,.4.23l1.28,2.4,0,0c.05.13.11.2.18.2s.15-.07.15-.2V362c0-.13-.06-.19-.18-.19s-.16.07-.26.23l-1.2,2.26a.4.4,0,0,1-.4.23h-.8v-9.61h2.08a.89.89,0,0,1,.94.63l2,6.16a.29.29,0,0,0,.29.23c.12,0,.18-.06.18-.17v-8.19a.25.25,0,0,0-.29-.29h-9.43c-.15,0-.22.06-.22.19s.05.11.15.2a.21.21,0,0,1,.11.1l1.09,1a1.16,1.16,0,0,1,.33.92v19.86A1.15,1.15,0,0,1,269.24,376.42Zm11.25,0-1.09.95a.39.39,0,0,1-.15.13c-.07.07-.11.12-.11.17s.07.2.22.2h9.43c.2,0,.29-.1.29-.3v-8.23c0-.13-.06-.19-.18-.19a.24.24,0,0,0-.25.19l-2,6.3a.93.93,0,0,1-1,.59h-2.08v-10h.8a.4.4,0,0,1,.4.23l1.24,2.4,0,0c0,.13.12.2.22.2s.14-.06.14-.17V362c0-.13,0-.19-.14-.19s-.15.06-.22.19l-1.28,2.3a.4.4,0,0,1-.4.23h-.8v-9.61h2.08a.89.89,0,0,1,.94.63l2,6.16a.29.29,0,0,0,.29.23c.12,0,.18-.07.18-.2v-8.16c0-.2-.09-.29-.29-.29h-9.43c-.15,0-.22.06-.22.19s.05.11.15.2a.21.21,0,0,1,.11.1l1.09,1a1.16,1.16,0,0,1,.33.92v19.86A1.15,1.15,0,0,1,280.49,376.42Zm13-10.42a55,55,0,0,1,2.44,5.11,9.62,9.62,0,0,1,.72,3.41q0,1.71-1.05,1.71a1.89,1.89,0,0,1-1.39-.66,6.59,6.59,0,0,1-1.09-1.64,14.7,14.7,0,0,1-.8-2.08c-.22-.73-.44-1.53-.65-2.41,0-.15-.13-.23-.22-.23s-.19.08-.19.23v8.26c0,.11.06.17.19.17a.88.88,0,0,0,.36-.17l.07-.06.44-.3a3,3,0,0,1,.73-.43,2.37,2.37,0,0,1,.73.33,4.46,4.46,0,0,0,.93.46,3.24,3.24,0,0,0,1.11.17,3.17,3.17,0,0,0,1.13-.23,3.32,3.32,0,0,0,1.09-.76,3.8,3.8,0,0,0,.82-1.42,6.72,6.72,0,0,0,.31-2.12,15.52,15.52,0,0,0-.09-1.78,8.42,8.42,0,0,0-.39-1.64,20.56,20.56,0,0,0-.83-2.05c-.37-.79-.88-1.8-1.53-3.05s-1.19-2.34-1.61-3.21-.73-1.62-1-2.24a10.41,10.41,0,0,1-.47-1.59,6.56,6.56,0,0,1-.13-1.32,2.83,2.83,0,0,1,.18-1.16.8.8,0,0,1,.8-.38,1.71,1.71,0,0,1,1.2.66,8,8,0,0,1,1.17,1.69,18.65,18.65,0,0,1,1,2.21,16.58,16.58,0,0,1,.66,2.23c.05.15.12.23.22.23s.21-.06.21-.17v-8.12c0-.24-.08-.36-.25-.36a1.71,1.71,0,0,0-.77.42c-.38.35-.66.53-.83.53a1.32,1.32,0,0,1-.55-.2,4,4,0,0,0-1-.54,3,3,0,0,0-1-.21,3.2,3.2,0,0,0-2.44.95,4.43,4.43,0,0,0-.91,3.14,13.15,13.15,0,0,0,.62,3.85A27.11,27.11,0,0,0,293.53,366Zm7.17-4.06c.17,0,.27-.07.29-.2l1.89-6.52c.1-.24.23-.36.4-.36h1.35v20.65a1.19,1.19,0,0,1-.29.91l-1.09.95-.08.07c-.12.09-.18.16-.18.23s.08.2.22.2h5.65a.18.18,0,0,0,.21-.2c0-.07-.06-.14-.18-.23l-.07-.07-1.09-.95a1.16,1.16,0,0,1-.29-.91V354.86h1.34c.17,0,.31.12.4.36l1.9,6.52a.28.28,0,0,0,.29.2c.12,0,.18-.08.18-.23v-8.29c0-.09-.06-.13-.18-.13H300.7c-.12,0-.18,0-.18.13v8.29C300.52,361.86,300.58,361.94,300.7,361.94Zm13.07,14.48-1.09.95a.21.21,0,0,1-.11.1c-.1.09-.15.15-.15.2s.08.2.22.2h5.72c.15,0,.22-.07.22-.2s-.05-.11-.15-.2a.21.21,0,0,1-.11-.1l-1.09-.95a1.15,1.15,0,0,1-.33-.91V355.65a1.16,1.16,0,0,1,.33-.92l1.09-1a.21.21,0,0,1,.11-.1c.1-.09.15-.15.15-.2s-.07-.19-.22-.19h-5.72c-.14,0-.22.06-.22.19s.05.11.15.2a.21.21,0,0,1,.11.1l1.09,1a1.16,1.16,0,0,1,.33.92v19.86A1.15,1.15,0,0,1,313.77,376.42Zm6.81-21.53a1.54,1.54,0,0,1,.44.85l3.49,21.86c.05.18.15.27.29.27h1.28c.19,0,.31-.12.36-.37l2.88-21.76a1.23,1.23,0,0,1,.44-.85l1.2-1.08a.56.56,0,0,0,.22-.39c0-.09-.11-.13-.33-.13H326c-.17,0-.26,0-.26.13a.55.55,0,0,0,.22.36l.88.78a1.18,1.18,0,0,1,.43.89L325.71,367h-.07l-1.85-11.5a1.06,1.06,0,0,1,.43-.89l.95-.78a.48.48,0,0,0,.18-.36c0-.09-.07-.13-.22-.13h-5.64c-.22,0-.33,0-.33.13a.53.53,0,0,0,.22.39Zm9.47,21.53-1,.92c-.17.15-.26.26-.26.33s.08.2.22.2h4.19c.17,0,.25-.07.25-.2s-.06-.12-.18-.23l-.18-.16-.8-.76a.85.85,0,0,1-.18-.59l.54-3.6c.05-.16.12-.23.22-.23h2.7a.33.33,0,0,1,.33.29l.54,3.44a.9.9,0,0,1-.18.66l-1,.88-.08.07c-.12.09-.18.16-.18.23s.09.2.26.2h5.24c.17,0,.25-.07.25-.2s-.07-.17-.21-.3l-1.06-.85a1.26,1.26,0,0,1-.4-.88l-3.46-22q-.08-.36-.33-.36h-1.35c-.14,0-.24.09-.29.29l-3.31,22A1.36,1.36,0,0,1,330.05,376.42Zm4.11-14.32h.08l1.27,8c0,.15-.05.23-.14.23h-2.3c-.07,0-.11-.07-.11-.2Zm8.45,14.32-1.09.95a.33.33,0,0,1-.15.13c-.07.07-.11.12-.11.17s.08.2.22.2h8.92c.27,0,.4-.16.4-.46v-8c0-.16-.06-.23-.18-.23a.21.21,0,0,0-.18.13.12.12,0,0,1,0,.1l-2.25,6.36c-.13.32-.44.49-.95.49h-1.46V355.65a1.16,1.16,0,0,1,.33-.92l1.09-1a.21.21,0,0,1,.11-.1c.1-.09.15-.15.15-.2s-.07-.19-.22-.19h-5.72c-.14,0-.22.06-.22.19s.05.11.15.2a.21.21,0,0,1,.11.1l1.09,1a1.16,1.16,0,0,1,.33.92v19.86A1.15,1.15,0,0,1,342.61,376.42Z" transform="translate(-20.04 -31.7)" fill="#fff"/></svg>
