<svg xmlns="http://www.w3.org/2000/svg" width="80" height="96.6" viewBox="0 0 80 96.6"><path d="M68.3,11.7A40,40,0,0,0,11.7,68.3L40,96.6,68.3,68.3A40.08,40.08,0,0,0,68.3,11.7Z" transform="translate(0 0)" fill="#a74150"/><path d="M23.73,27h6.32V24.28H23.73V22.19h6.81v-2.8H19.67V32.52H30.74v-3h-7Zm16.55.42-2.06-8H32.88V32.52h3.33v-10l2.55,10h3l2.56-10v10h3.33V19.39H42.32Zm14.36,2.17a11.12,11.12,0,0,1,.87-.8c.25-.21.74-.56,1.47-1.07a9.56,9.56,0,0,0,2.56-2.4A4.17,4.17,0,0,0,60.25,23a3.54,3.54,0,0,0-.62-2A3.62,3.62,0,0,0,58,19.6a8.26,8.26,0,0,0-3-.44,7.3,7.3,0,0,0-2.89.46A3.69,3.69,0,0,0,50.44,21a5.93,5.93,0,0,0-.79,2.4l3.66.3a2.64,2.64,0,0,1,.6-1.55,1.54,1.54,0,0,1,1.14-.44,1.5,1.5,0,0,1,1.11.43,1.34,1.34,0,0,1,.45,1,2.06,2.06,0,0,1-.45,1.18,10.92,10.92,0,0,1-2,1.81,15.2,15.2,0,0,0-3.58,3.37,6.73,6.73,0,0,0-1.14,3.05H60.33v-3ZM23.73,41.82h6.32V39.14H23.73V37.05h6.81v-2.8H19.67V47.39H30.74v-3h-7Zm16.55.42-2.06-8H32.88V47.39h3.33v-10l2.55,10h3l2.56-10v10h3.33V34.25H42.32Zm15.23,1.37c.25-.2.74-.56,1.47-1.06a9.72,9.72,0,0,0,2.56-2.4,4.2,4.2,0,0,0,.71-2.3,3.58,3.58,0,0,0-.62-2A3.66,3.66,0,0,0,58,34.47,8,8,0,0,0,55,34a7.3,7.3,0,0,0-2.89.46,3.73,3.73,0,0,0-1.62,1.32,6,6,0,0,0-.79,2.41l3.66.3a2.61,2.61,0,0,1,.6-1.55,1.51,1.51,0,0,1,1.14-.44,1.53,1.53,0,0,1,1.11.42,1.36,1.36,0,0,1,.45,1,2,2,0,0,1-.45,1.17,10.56,10.56,0,0,1-2,1.81,15.41,15.41,0,0,0-3.58,3.37,6.77,6.77,0,0,0-1.14,3.06H60.33v-3H54.64C55,44.08,55.26,43.82,55.51,43.61Z" transform="translate(0 0)" fill="#fff"/></svg>
